SplineFontDB: 3.0
FontName: ObliquayRegular
FullName: Obliquay Regular
FamilyName: Obliquay
Weight: Regular
Copyright: (c) Frank Sikernitsky, 2014-2017
Version: Version 1.4.067
ItalicAngle: 0
UnderlinePosition: -100
UnderlineWidth: 50
Ascent: 1050
Descent: 235
InvalidEm: 0
sfntRevision: 0x00010000
LayerCount: 2
Layer: 0 0 "Back" 1
Layer: 1 0 "Fore" 0
XUID: [1021 668 1240808111 15182958]
StyleMap: 0x0040
FSType: 0
OS2Version: 3
OS2_WeightWidthSlopeOnly: 0
OS2_UseTypoMetrics: 1
CreationTime: -2082844800
ModificationTime: 1490975340
PfmFamily: 81
TTFWeight: 400
TTFWidth: 5
LineGap: 0
VLineGap: 0
Panose: 0 0 0 0 0 0 0 0 0 0
OS2TypoAscent: 0
OS2TypoAOffset: 1
OS2TypoDescent: 0
OS2TypoDOffset: 1
OS2TypoLinegap: 0
OS2WinAscent: 0
OS2WinAOffset: 1
OS2WinDescent: 0
OS2WinDOffset: 1
HheadAscent: 0
HheadAOffset: 1
HheadDescent: 0
HheadDOffset: 1
OS2SubXSize: 650
OS2SubYSize: 699
OS2SubXOff: 0
OS2SubYOff: 140
OS2SupXSize: 650
OS2SupYSize: 699
OS2SupXOff: 0
OS2SupYOff: 479
OS2StrikeYSize: 49
OS2StrikeYPos: 258
OS2Vendor: 'XXXX'
OS2CodePages: 00000001.00000000
OS2UnicodeRanges: a000003f.5000004f.00000000.00000000
Lookup: 258 0 0 "'kern' Horizontal Kerning in Latin lookup 1" { "'kern' Horizontal Kerning in Latin lookup 1-1" [155,0,0] } ['kern' ('DFLT' <'dflt' > 'latn' <'dflt' > ) ]
Lookup: 258 0 0 "'dist' Distance in Latin lookup 0" { } ['dist' ('DFLT' <'dflt' > 'latn' <'dflt' > ) ]
MarkAttachClasses: 1
DEI: 91125
KernClass2: 35 29 "'kern' Horizontal Kerning in Latin lookup 1-1"
 1 A
 1 B
 1 C
 1 D
 1 E
 1 F
 3 G S
 13 H I M N i l d
 3 J U
 1 K
 1 L
 3 O Q
 1 P
 1 R
 1 T
 1 V
 1 W
 1 X
 1 Y
 1 Z
 7 a h m n
 5 b p s
 1 c
 1 e
 1 f
 5 g q u
 1 j
 1 k
 1 o
 1 r
 1 t
 5 v w y
 1 x
 1 z
 1 A
 31 B D E F H I K L M N P R b h i l
 5 C O Q
 1 G
 1 J
 1 S
 1 T
 1 U
 1 V
 1 W
 1 X
 1 Y
 1 Z
 1 a
 5 c e o
 1 d
 3 f t
 1 g
 1 j
 1 k
 9 m n p r u
 1 q
 1 s
 3 v y
 1 w
 1 x
 1 z
 0 

StartChar: .notdef
Encoding: 0 -1 0
AltUni2: 000000.ffffffff.0
Width: 630
VWidth: 1024
Flags: W
HStem: 0 50<141 510.08> 650 50<141 510.08>
VStem: 91 50<50 650> 510.08 50<50 650>
LayerCount: 2
Fore
SplineSet
91 700 m 1
 560.080078125 700 l 1
 560.080078125 0 l 1
 91 0 l 1
 91 700 l 1
141 50 m 1
 510.080078125 50 l 1
 510.080078125 650 l 1
 141 650 l 1
 141 50 l 1
EndSplineSet
Validated: 1
EndChar

StartChar: exclam
Encoding: 33 33 2
Width: 287
VWidth: 1024
Flags: W
HStem: -6 123<96 215>
VStem: 92 123<-6 113 459.794 931>
LayerCount: 2
Fore
SplineSet
91 931 m 1
 211 943 l 1
 219 539 l 1
 194 206 l 1
 111 210 l 1
 91 553 l 1
 91 931 l 1
96 -6 m 1
 92 117 l 1
 215 113 l 1
 215 -6 l 1
 96 -6 l 1
EndSplineSet
Validated: 1
EndChar

StartChar: quotedbl
Encoding: 34 34 3
Width: 443
VWidth: 1024
Flags: W
HStem: 709 218<112.07 166.8>
VStem: 85.7998 101<808.125 921> 113.8 53<715 746.482> 263.8 110<781.684 919>
LayerCount: 2
Fore
SplineSet
85.7998046875 927 m 1xd0
 186.799804688 921 l 1xd0
 194.799804688 813 l 1
 166.799804688 715 l 1
 113.799804688 709 l 1xb0
 93.7998046875 813 l 1
 85.7998046875 927 l 1xd0
263.799804688 919 m 1
 373.799804688 927 l 1
 373.799804688 813 l 1
 344.799804688 709 l 1
 290.799804688 719 l 1
 263.799804688 813 l 1
 263.799804688 919 l 1
EndSplineSet
Validated: 1
EndChar

StartChar: numbersign
Encoding: 35 35 4
Width: 865
VWidth: 1024
Flags: W
HStem: 0 21G<199.3 284.637 468.5 580.521> 187 86<78.2998 217.3 326.8 492.5 605.5 729.5> 656 82<160.237 264.3 404.8 553.5 651.5 800.5>
VStem: 226.3 100.5<274 326.278> 264.3 127.5<604.722 658> 272.3 132.5<736 788.863>
LayerCount: 2
Fore
SplineSet
391.799804688 658 m 1xe8
 326.799804688 273 l 1xf0
 503.5 273 l 1
 553.5 656 l 1
 391.799804688 658 l 1xe8
588.5 927 m 1
 670.5 927 l 1
 651.5 740 l 1
 813.5 742 l 1
 800.5 652 l 1
 643.5 654 l 1
 605.5 272 l 1
 740.5 271 l 1
 729.5 189 l 1
 597.5 188 l 1
 578.5 0 l 1
 468.5 0 l 1
 492.5 187 l 1
 312.5 187 l 1
 281.299804688 0 l 1
 199.299804688 0 l 1
 217.299804688 186 l 1
 66.2998046875 185 l 1
 78.2998046875 275 l 1
 226.299804688 274 l 1xf0
 264.299804688 659 l 1xe8
 139.299804688 662 l 1
 149.299804688 733 l 1
 272.299804688 735 l 1
 294.299804688 927 l 1
 437.299804688 927 l 1
 404.799804688 736 l 1xe4
 564.5 738 l 1
 588.5 927 l 1
EndSplineSet
Validated: 1
EndChar

StartChar: dollar
Encoding: 36 36 5
Width: 748
VWidth: 1024
Flags: W
HStem: 4 100<205.796 327.04 470.04 553.604>
VStem: 74.0996 112<556.585 796.21> 327.04 143<-155.908 3> 573.84 118<122.83 352.855>
LayerCount: 2
Fore
SplineSet
106.099609375 163 m 1
 255.33984375 113 293.040039062 107 452.940429688 104 c 1
 567.33984375 106 573.83984375 126 573.83984375 251 c 0
 573.83984375 363 563.440429688 372 350.240234375 406 c 0
 86.099609375 455 74.099609375 467 74.099609375 690 c 0
 74.099609375 893 112.099609375 936 302.040039062 941 c 1
 304.639648438 975 309.83984375 1098 309.83984375 1098 c 1
 433.83984375 1106 l 1
 439.040039062 939 l 1
 493.639648438 935 577.83984375 925 666.83984375 897 c 1
 615.83984375 792 l 1
 529.639648438 817 503.639648438 831 345.040039062 831 c 0
 204.099609375 831 186.099609375 805 186.099609375 641 c 0
 186.099609375 544 197.099609375 537 462.040039062 493 c 0
 681.83984375 453 691.83984375 442 691.83984375 261 c 0
 691.83984375 58 676.83984375 13 470.040039062 3 c 5
 468.740234375 -29 462.240234375 -156 462.240234375 -156 c 5
 332.240234375 -164 l 1
 327.040039062 4 l 1
 143.099609375 15 82.099609375 58 82.099609375 58 c 1
 106.099609375 163 l 1
EndSplineSet
EndChar

StartChar: percent
Encoding: 37 37 6
Width: 841
VWidth: 1024
Flags: W
HStem: -15 63<561.303 711.923> 0 21G<88.4004 228.804> 261 72<574.024 708.112> 585 85<157.502 262.362> 874 67<157.514 265.271>
VStem: 75.4004 76<677.65 868.438> 268.4 64<675.894 872.137> 490.4 72<50.6767 251.201> 722.3 62<60.5625 246.84>
LayerCount: 2
Fore
SplineSet
88.400390625 18 m 5x7f80
 646 942 l 1
 724.299804688 889 l 1
 217.400390625 0 l 1
 88.400390625 18 l 5x7f80
195.400390625 941 m 2
 211.400390625 941 l 2
 326.400390625 941 332.400390625 919 332.400390625 791 c 2
 332.400390625 749 l 2
 332.400390625 645 326.400390625 586 217.400390625 585 c 0
 95.400390625 586 75.400390625 662 75.400390625 791 c 0
 75.400390625 919 81.400390625 941 195.400390625 941 c 2
151.400390625 794 m 2
 151.400390625 756 l 2
 151.400390625 693 153.400390625 670 211.400390625 670 c 0
 264.400390625 670 268.400390625 697 268.400390625 749 c 2
 268.400390625 823 l 2
 268.400390625 868 264.400390625 874 211.400390625 874 c 0
 153.400390625 874 151.400390625 857 151.400390625 794 c 2
635.200195312 -15 m 0xbf80
 496.400390625 -15 490.400390625 11 490.400390625 141 c 0
 490.400390625 271 492.400390625 333 630 333 c 0
 774.299804688 333 784.299804688 265 784.299804688 135 c 0
 784.299804688 5 778.299804688 -15 635.200195312 -15 c 0xbf80
624.799804688 48 m 0
 706.700195312 48 722.299804688 62 722.299804688 132 c 0
 722.299804688 135 722.299804688 138 722.299804688 142 c 0
 722.299804688 216 721 261 640.400390625 261 c 0
 565 261 562.400390625 224 562.400390625 159 c 2
 562.400390625 139 l 2
 562.400390625 136 562.400390625 132 562.400390625 129 c 0
 562.400390625 111 560.400390625 95 560.400390625 83 c 0
 560.400390625 61 568.900390625 48 624.799804688 48 c 0
EndSplineSet
EndChar

StartChar: ampersand
Encoding: 38 38 7
Width: 635
VWidth: 1024
Flags: HMW
LayerCount: 2
Fore
SplineSet
281.200195312 87 m 1
 117.400390625 98 75.400390625 169 75.400390625 278 c 0
 75.400390625 288 75.400390625 299 76.400390625 309 c 0
 81.400390625 409 81.400390625 474 209.299804688 504 c 1
 118.400390625 526 107.400390625 549 102.400390625 668 c 1
 102.400390625 685 l 2
 102.400390625 817 181.400390625 858 286.900390625 870 c 5
 281.700195312 910 266.099609375 1021 266.099609375 1021 c 5
 397.799804688 1025 l 1
 392.599609375 872 l 1
 470.740234375 868 509.740234375 849 569.740234375 801 c 1
 513.740234375 733 l 1
 480.740234375 774 447.740234375 788 392.599609375 788 c 0
 380.900390625 788 367.900390625 787 353.599609375 786 c 0
 239.200195312 778 204.099609375 761 201.5 661 c 1
 205.400390625 582 239.200195312 547 353.599609375 547 c 1
 442.740234375 555 l 1
 447.740234375 499 l 1
 441.740234375 436 l 1
 351 444 l 1
 201.5 444 188.5 407 180.700195312 313 c 0
 179.400390625 303 179.400390625 294 179.400390625 285 c 0
 179.400390625 206 218.400390625 176 332.799804688 176 c 0
 449.740234375 176 475.740234375 185 530.740234375 259 c 1
 590.740234375 184 l 1
 535.740234375 135 515.740234375 97 394.700195312 87 c 1
 397.299804688 49 405.099609375 -62 405.099609375 -62 c 1
 265.599609375 -64 l 1
 281.200195312 87 l 1
EndSplineSet
EndChar

StartChar: quotesingle
Encoding: 39 39 8
Width: 269
VWidth: 1024
Flags: W
HStem: 703 218
VStem: 89.7002 89<705 769.82>
LayerCount: 2
Fore
SplineSet
97.7001953125 921 m 1
 202.700195312 913 l 1
 192.700195312 807 l 1
 178.700195312 703 l 1
 89.7001953125 705 l 1
 95.7001953125 807 l 1
 97.7001953125 921 l 1
EndSplineSet
Validated: 1
EndChar

StartChar: parenleft
Encoding: 40 40 9
Width: 381
VWidth: 1024
Flags: W
HStem: 915 20G<180.6 277.573>
VStem: 87.0996 94<133.421 745.199>
LayerCount: 2
Fore
SplineSet
263.099609375 935 m 1
 318.099609375 859 l 1
 209.099609375 791 181.099609375 817 181.099609375 441 c 0
 181.099609375 93 215.099609375 37 342.099609375 -34 c 1
 289.099609375 -95 l 1
 96.099609375 13 87.099609375 19 87.099609375 417 c 2
 87.099609375 572 l 2
 87.099609375 834 98.099609375 835 263.099609375 935 c 1
EndSplineSet
Validated: 1
EndChar

StartChar: parenright
Encoding: 41 41 10
Width: 377
VWidth: 1024
Flags: W
VStem: 198.8 109<128.15 764.858>
LayerCount: 2
Fore
SplineSet
129.799804688 -119 m 1
 59.7998046875 -41 l 1
 191.799804688 46 198.799804688 70 198.799804688 447 c 1
 186.799804688 795 180.799804688 817 64.7998046875 899 c 1
 129.799804688 972 l 1
 286.799804688 861 294.799804688 835 307.799804688 447 c 1
 307.799804688 21 298.799804688 -7 129.799804688 -119 c 1
EndSplineSet
Validated: 1
EndChar

StartChar: asterisk
Encoding: 42 42 11
Width: 601
VWidth: 1024
Flags: W
LayerCount: 2
Fore
SplineSet
510.080078125 735 m 1
 547.080078125 621 l 1
 400.080078125 569 l 1
 521.080078125 427 l 1
 427.080078125 358 l 1
 320.33984375 539 l 1
 219.200195312 375 l 1
 126.200195312 446 l 1
 221 570 l 5
 70.2001953125 599 l 1
 117.200195312 748 l 1
 248.83984375 673 l 1
 228.040039062 817 l 1
 377.540039062 817 l 1
 351.540039062 634 l 1
 510.080078125 735 l 1
EndSplineSet
EndChar

StartChar: plus
Encoding: 43 43 12
Width: 885
VWidth: 1024
Flags: W
HStem: 395 109<552.673 827.38> 409 87<367.902 400.94 495.34 707.282> 419 67<68.9004 367.57>
VStem: 391.84 111.3<500 777> 412.64 71<126 405.747>
LayerCount: 2
Fore
SplineSet
403.540039062 409 m 1x48
 68.900390625 419 l 1
 68.900390625 486 l 1x28
 400.940429688 496 l 1x48
 391.83984375 777 l 1
 503.139648438 777 l 1
 495.33984375 500 l 1
 827.379882812 504 l 1
 827.379882812 395 l 1x90
 491.440429688 406 l 1
 483.639648438 126 l 1
 412.639648438 126 l 1
 403.540039062 409 l 1x48
EndSplineSet
Validated: 1
EndChar

StartChar: comma
Encoding: 44 44 13
Width: 272
VWidth: 1024
Flags: W
HStem: -99 57<104.4 118.684> 0 109<96.4004 129.4 183.397 195.51>
VStem: 96.4004 99<29.2987 109>
LayerCount: 2
Fore
SplineSet
96.400390625 109 m 1
 195.400390625 117 l 1
 207.400390625 0 l 1
 201.400390625 0 l 1
 130.400390625 -96 137.400390625 -99 111.400390625 -99 c 2
 104.400390625 -99 l 1
 92.400390625 -42 l 1
 93.400390625 -42 l 2
 98.400390625 -42 100.400390625 -40 129.400390625 0 c 1
 88.400390625 0 l 1
 96.400390625 109 l 1
EndSplineSet
Validated: 1
EndChar

StartChar: hyphen
Encoding: 45 45 14
Width: 425
VWidth: 1024
Flags: W
HStem: 398 118<89.7998 260.56> 403 99<183.04 357.8>
VStem: 89.7998 268
LayerCount: 2
Fore
SplineSet
89.7998046875 398 m 1xa0
 85.7998046875 516 l 5xa0
 357.799804688 502 l 1
 357.799804688 403 l 1x60
 89.7998046875 398 l 1xa0
EndSplineSet
Validated: 1
EndChar

StartChar: period
Encoding: 46 46 15
Width: 276
VWidth: 1024
Flags: W
HStem: 0 111<89.7002 200.7>
VStem: 89.7002 111<0 111>
LayerCount: 2
Fore
SplineSet
89.7001953125 -8 m 1
 89.7001953125 119 l 1
 200.700195312 111 l 1
 208.700195312 0 l 1
 89.7001953125 -8 l 1
EndSplineSet
Validated: 1
EndChar

StartChar: slash
Encoding: 47 47 16
Width: 452
VWidth: 1024
Flags: W
HStem: 919 20G<320.12 394.396>
VStem: 63.7002 341
LayerCount: 2
Fore
SplineSet
63.7001953125 0 m 1
 325.700195312 939 l 1
 404.700195312 916 l 1
 155.700195312 -30 l 1
 63.7001953125 0 l 1
EndSplineSet
Validated: 1
EndChar

StartChar: zero
Encoding: 48 48 17
Width: 883
VWidth: 1024
Flags: W
HStem: -15 102<294.944 635.626> 840 101<308.641 626.841>
VStem: 113.1 123<150.518 756.917> 695 122<150.518 756.917>
LayerCount: 2
Fore
SplineSet
113.099609375 463 m 0
 113.099609375 897 140.099609375 941 464.900390625 941 c 0
 790 941 817 897 817 463 c 0
 817 8 803 -15 464.900390625 -15 c 0
 128.099609375 -15 113.099609375 8 113.099609375 463 c 0
464.900390625 87 m 0
 683.299804688 87 695 105 695 463 c 0
 695 805 674.200195312 840 464.900390625 840 c 0
 256.900390625 840 236.099609375 805 236.099609375 463 c 0
 236.099609375 105 247.799804688 87 464.900390625 87 c 0
EndSplineSet
Validated: 1
EndChar

StartChar: one
Encoding: 49 49 18
Width: 448
VWidth: 1024
Flags: W
HStem: -11 5<286.3 305.3> 909 20G<211.709 344.3>
VStem: 227.3 117<4 770>
LayerCount: 2
Fore
SplineSet
305.299804688 -6 m 1
 227.299804688 4 l 1
 227.299804688 770 l 1
 66.2998046875 746 l 1
 70.2998046875 841 l 1
 253.299804688 929 l 1
 344.299804688 927 l 1
 344.299804688 -6 l 2
 345.299804688 -6 345.299804688 -6 344.299804688 -9 c 0
 345.299804688 -11 345.299804688 -11 344.299804688 -11 c 2
 286.299804688 -11 l 1
 286.299804688 -6 l 1
 305.299804688 -6 l 1
EndSplineSet
Validated: 1
EndChar

StartChar: two
Encoding: 50 50 19
Width: 655
VWidth: 1024
Flags: W
HStem: 0 114<197.7 559.08> 845 96<207.07 435.309>
VStem: 63.7002 134<114 239.516> 67.7002 120<711 826.387> 466.08 118<545.56 814.383>
LayerCount: 2
Fore
SplineSet
63.7001953125 0 m 1xe8
 63.7001953125 61 l 2xe8
 63.7001953125 314 68.7001953125 269 218.940429688 383 c 0
 438.639648438 512 466.080078125 548 466.080078125 654 c 0
 466.080078125 819 451.080078125 845 328.139648438 845 c 0
 203.700195312 845 187.700195312 829 187.700195312 725 c 0
 187.700195312 668 186.700195312 650 182.700195312 650 c 0
 181.700195312 650 179.700195312 652 177.700195312 654 c 2
 68.7001953125 711 l 2
 67.7001953125 713 67.7001953125 715 67.7001953125 725 c 0xd8
 67.7001953125 912 98.7001953125 941 324.240234375 941 c 0
 553.080078125 941 584.080078125 901 584.080078125 642 c 0
 583.080078125 505 561.080078125 467 412.639648438 359 c 0
 222.83984375 247 200.700195312 265 197.700195312 114 c 1
 559.080078125 106 l 1
 599.080078125 0 l 1
 63.7001953125 0 l 1xe8
EndSplineSet
Validated: 1
EndChar

StartChar: three
Encoding: 51 51 20
Width: 772
VWidth: 1024
Flags: W
HStem: -15 111<247.831 540.16> 434 111<276 518.079> 839 101<227.387 515.095>
VStem: 75.4004 133<132.792 230 763 816.759> 562 122.3<594.806 795.266> 576.3 137<129.969 392.943>
LayerCount: 2
Fore
SplineSet
322.799804688 940 m 4xf8
 533.400390625 940 684.299804688 925 684.299804688 743 c 0xf8
 684.299804688 728 683.299804688 712 681.299804688 695 c 0
 665.299804688 555 644.299804688 522 526.900390625 495 c 1
 689.299804688 459 713.299804688 423 713.299804688 257 c 0
 713.299804688 23 675.299804688 -15 395.599609375 -15 c 0
 128.400390625 -15 91.400390625 19 75.400390625 237 c 1
 208.400390625 230 l 1
 218.799804688 114 244.799804688 96 395.599609375 96 c 0
 552.900390625 96 576.299804688 119 576.299804688 262 c 0xf4
 576.299804688 412 546.400390625 434 360.5 434 c 2
 276 434 l 1
 276 489 l 1
 272.099609375 545 l 1
 370.900390625 545 l 2
 513.900390625 545 538.599609375 554 559.400390625 686 c 0
 560.700195312 697 562 708 562 718 c 0
 562 797 516.5 838 369.599609375 838 c 0
 359.200195312 838 348.799804688 839 338.400390625 839 c 0
 248.700195312 839 211 820 203.400390625 759 c 1
 76.400390625 763 l 1
 92.400390625 905 123.400390625 940 322.799804688 940 c 4xf8
EndSplineSet
Validated: 1
EndChar

StartChar: four
Encoding: 52 52 21
Width: 729
VWidth: 1024
Flags: W
HStem: 248 111<563.44 675.44> 260 109<192.5 446.44> 917 20G<470.44 563.44>
VStem: 446.44 117<6 248 362 703>
LayerCount: 2
Fore
SplineSet
192.5 369 m 1x70
 446.440429688 362 l 1
 445.139648438 683 l 1
 447.440429688 703 l 1
 192.5 369 l 1x70
471.440429688 937 m 1
 563.440429688 927 l 1
 563.440429688 901 l 1
 567.440429688 900 l 1
 563.440429688 893 l 1
 563.440429688 359 l 1
 675.440429688 355 l 1
 675.440429688 244 l 1
 563.440429688 248 l 1xb0
 563.440429688 6 l 1
 447.440429688 -17 l 1
 446.440429688 252 l 1
 161.5 260 l 1
 71.5 258 l 1
 71.5 355 l 1
 470.440429688 925 l 1
 471.440429688 937 l 1
EndSplineSet
Validated: 1
EndChar

StartChar: five
Encoding: 53 53 22
Width: 712
VWidth: 1024
Flags: W
HStem: -15 111<251.985 486.399> 495 97<243.64 480.983> 820 107<269.64 610.14>
VStem: 523.14 127<135.711 456.823>
LayerCount: 2
Fore
SplineSet
106.299804688 494 m 1
 138.299804688 927 l 1
 619.139648438 927 l 1
 610.139648438 813 l 1
 269.639648438 820 l 1
 243.639648438 592 l 1
 398.33984375 592 l 2
 620.139648438 592 650.139648438 551 650.139648438 290 c 0
 650.139648438 26 615.139648438 -15 354.139648438 -15 c 0
 171.299804688 -15 136.299804688 14 66.2998046875 203 c 1
 180.299804688 250 l 1
 231.940429688 117 257.940429688 96 354.139648438 96 c 0
 499.740234375 96 523.139648438 122 523.139648438 290 c 0
 523.139648438 467 501.040039062 495 368.440429688 495 c 2
 231.940429688 495 l 1
 231.940429688 490 l 1
 106.299804688 494 l 1
EndSplineSet
Validated: 1
EndChar

StartChar: six
Encoding: 54 54 23
Width: 757
VWidth: 1024
Flags: W
HStem: -15 102<258.237 536.402> 428 101<231.792 532.03> 724 21G<537.14 607.806> 845 96<268.226 493.101>
VStem: 575.14 127<122.494 368.479>
LayerCount: 2
Fore
SplineSet
669.139648438 784 m 1
 577.139648438 724 l 1
 497.139648438 829 472.440429688 845 402.240234375 845 c 0
 207.099609375 845 205.099609375 770 205.099609375 510 c 1
 208.099609375 510 241.099609375 529 384.040039062 529 c 2
 403.540039062 529 l 2
 665.139648438 526 663.139648438 514 693.139648438 303 c 0
 699.139648438 258 702.139648438 220 702.139648438 186 c 0
 702.139648438 17 620.139648438 -15 386.639648438 -15 c 0
 100.099609375 -15 87.099609375 9 87.099609375 490 c 0
 87.099609375 879 100.099609375 941 402.240234375 941 c 0
 551.740234375 941 588.139648438 920 669.139648438 784 c 1
373.639648438 428 m 1
 232.099609375 424 196.099609375 392 196.099609375 327 c 0
 196.099609375 326 196.099609375 325 196.099609375 324 c 0
 204.099609375 126 234.099609375 87 386.639648438 87 c 0
 510.139648438 87 575.139648438 101 575.139648438 207 c 0
 575.139648438 233 571.240234375 265 563.440429688 303 c 0
 541.33984375 412 537.440429688 428 416.540039062 428 c 2
 373.639648438 428 l 1
EndSplineSet
Validated: 1
EndChar

StartChar: seven
Encoding: 55 55 24
Width: 617
VWidth: 1024
Flags: W
HStem: 823 116<90.7002 381.8>
VStem: 188.7 132<-8 269.271>
LayerCount: 2
Fore
SplineSet
90.7001953125 939 m 1
 570.83984375 939 l 1
 526.83984375 834 l 1
 328.5 233 320.700195312 220 320.700195312 36 c 2
 320.700195312 -8 l 1
 188.700195312 -8 l 1
 188.700195312 40 l 2
 188.700195312 237 194.700195312 250 381.799804688 831 c 1
 63.7001953125 823 l 1
 90.7001953125 939 l 1
EndSplineSet
Validated: 1
EndChar

StartChar: eight
Encoding: 56 56 25
Width: 753
VWidth: 1024
Flags: W
HStem: -15 102<211.245 545.086> 439 111<233.456 529.286> 845 96<255.913 516.531>
VStem: 81.9004 112<106.673 401.153> 102.9 117<567.053 806.316> 551.4 104.6<565.778 810.115> 567 127<107.883 400.294>
LayerCount: 2
Fore
SplineSet
388.900390625 87 m 0xf2
 529.299804688 87 567 88 567 200 c 0
 567 218 565.700195312 238 564.400390625 262 c 0
 554 415 551.400390625 439 388.900390625 439 c 0
 219.900390625 439 193.900390625 438 193.900390625 206 c 0
 193.900390625 103 193.900390625 87 388.900390625 87 c 0xf2
108.900390625 698 m 0
 127.900390625 929 157.900390625 941 388.900390625 941 c 0
 645 941 656 909 656 706 c 0xec
 656 578 647 521 604 496 c 1
 680 469 684 403 691 251 c 0
 693 220 694 193 694 168 c 0
 694 -14 640 -15 388.900390625 -15 c 0
 83.900390625 -15 81.900390625 23 81.900390625 269 c 0xf2
 81.900390625 413 94.900390625 472 152.900390625 496 c 1
 113.900390625 513 102.900390625 545 102.900390625 600 c 0xe8
 102.900390625 626 105.900390625 659 108.900390625 698 c 0
388.900390625 550 m 0
 529.299804688 550 551.400390625 551 551.400390625 664 c 0
 551.400390625 820 541 845 346 845 c 0
 256.299804688 845 240.700195312 838 225.099609375 688 c 0
 222.5 662 219.900390625 641 219.900390625 624 c 0
 219.900390625 562 251.099609375 550 388.900390625 550 c 0
EndSplineSet
Validated: 1
EndChar

StartChar: nine
Encoding: 57 57 26
Width: 740
VWidth: 1024
Flags: W
HStem: -15 97<254.294 502.746> 311 106<256.908 523.152> 840 101<239.26 502.286>
VStem: 78 127<473.77 804.293> 556 117<139.086 720.001>
LayerCount: 2
Fore
SplineSet
370.099609375 417 m 2
 389.599609375 417 410.400390625 415 431.200195312 415 c 0
 494.900390625 415 556 431 556 558 c 0
 556 576 554.700195312 595 552.099609375 618 c 0
 527.400390625 827 514.400390625 840 410.400390625 840 c 2
 366.200195312 840 l 2
 228.400390625 840 205 815 205 656 c 0
 205 449 247.900390625 417 364.900390625 417 c 2
 370.099609375 417 l 2
560 335 m 1
 560 335 414.299804688 311 314.200195312 311 c 0
 150 311 78 374 78 656 c 0
 78 900 111 941 355.799804688 941 c 2
 366.200195312 941 l 1
 380.5 941 l 2
 660 941 673 905 673 342 c 0
 673 34 660 -14 346.700195312 -15 c 0
 198 -14 168 7 87 143 c 1
 179 203 l 1
 250.5 98 275.200195312 82 346.700195312 82 c 0
 539.099609375 82 560 128 560 335 c 1
EndSplineSet
Validated: 1
EndChar

StartChar: colon
Encoding: 58 58 27
Width: 272
VWidth: 1024
Flags: W
HStem: 0 119<87.7998 151.327> 584 113<87.7998 206.8>
VStem: 87.7998 119<0 119 584 697>
LayerCount: 2
Fore
SplineSet
87.7998046875 0 m 1
 87.7998046875 119 l 1
 200.799804688 135 l 1
 206.799804688 0 l 1
 87.7998046875 0 l 1
85.7998046875 584 m 1
 87.7998046875 697 l 1
 206.799804688 697 l 1
 206.799804688 578 l 1
 85.7998046875 584 l 1
EndSplineSet
Validated: 1
EndChar

StartChar: semicolon
Encoding: 59 59 28
Width: 270
VWidth: 1024
Flags: W
HStem: -119 59<85.7998 131.97> 578 119<85.7998 192.8>
VStem: 85.7998 107<578 666.199> 99.7998 105<45.4025 119> 132.8 72<-58.7179 0>
LayerCount: 2
Fore
SplineSet
99.7998046875 127 m 1xd0
 204.799804688 119 l 1xd0
 204.799804688 0 l 1
 204.799804688 -25 l 2xc8
 204.799804688 -117 200.799804688 -119 97.7998046875 -119 c 2
 85.7998046875 -119 l 1
 85.7998046875 -60 l 1xe0
 93.7998046875 -60 l 2
 131.799804688 -60 132.799804688 -59 132.799804688 -13 c 2
 132.799804688 0 l 1xc8
 85.7998046875 0 l 1xe0
 99.7998046875 127 l 1xd0
85.7998046875 578 m 1xe0
 85.7998046875 697 l 1xe0
 204.799804688 697 l 1xc8
 192.799804688 574 l 1
 85.7998046875 578 l 1xe0
EndSplineSet
Validated: 1
EndChar

StartChar: less
Encoding: 60 60 29
Width: 679
VWidth: 1024
Flags: W
LayerCount: 2
Fore
SplineSet
600.6796875 673 m 1
 627.6796875 568 l 1
 199 349 l 1
 610.6796875 150 l 5
 571.6796875 50 l 1
 78 308 l 1
 78 389 l 1
 600.6796875 673 l 1
EndSplineSet
Validated: 1
EndChar

StartChar: equal
Encoding: 61 61 30
Width: 753
VWidth: 1024
Flags: W
HStem: 186 86<388.953 681.48> 200 90<96.0996 388.627> 449 85<112.1 679.48>
LayerCount: 2
Fore
SplineSet
87.099609375 540 m 1x20
 679.48046875 534 l 1
 694.48046875 449 l 1
 112.099609375 446 l 1
 87.099609375 540 l 1x20
96.099609375 290 m 1x60
 681.48046875 272 l 1
 700.48046875 186 l 5xa0
 88.099609375 200 l 1
 96.099609375 290 l 1x60
EndSplineSet
Validated: 1
EndChar

StartChar: greater
Encoding: 62 62 31
Width: 676
VWidth: 1024
Flags: W
LayerCount: 2
Fore
SplineSet
521.280273438 359 m 5
 76.7001953125 563 l 1
 109.700195312 667 l 1
 615.280273438 406 l 1
 617.280273438 306 l 1
 103.700195312 43 l 1
 78.7001953125 130 l 1
 521.280273438 359 l 5
EndSplineSet
Validated: 1
EndChar

StartChar: question
Encoding: 63 63 32
Width: 606
VWidth: 1024
Flags: W
HStem: 0 119<320.753 372.34> 0 99<257.64 309.226> 839 102<224.751 414.467>
VStem: 243.64 104<185.712 394.019> 247.64 124.7<0 89.0505> 254.64 100.801<184 333.866> 257.64 114.7<9.9495 99> 440.78 105<646.26 814.661>
LayerCount: 2
Fore
SplineSet
426.780273438 683 m 0x31
 435.780273438 710 440.780273438 734 440.780273438 753 c 0
 440.780273438 815 395.780273438 839 332.639648438 839 c 0
 261.639648438 839 168.400390625 796 142.400390625 741 c 1
 62.400390625 777 l 1
 125.400390625 912 187.400390625 941 291.639648438 941 c 0
 296.639648438 941 302.639648438 941 307.639648438 941 c 0
 558.780273438 934 536.780273438 841 544.780273438 687 c 0
 545.780273438 675 545.780273438 664 545.780273438 656 c 0
 545.780273438 588 523.780273438 608 410.780273438 439 c 0
 359.33984375 373 347.639648438 364 347.639648438 335 c 0x31
 347.639648438 311 355.440429688 275 355.440429688 184 c 1
 254.639648438 178 l 1x25
 254.639648438 290 243.639648438 331 243.639648438 361 c 0
 243.639648438 396 258.639648438 414 318.639648438 506 c 0
 402.780273438 619 401.780273438 612 426.780273438 683 c 0x31
247.639648438 0 m 1x69
 257.639648438 99 l 1x63
 372.33984375 119 l 1xa3
 372.33984375 0 l 1xa9
 247.639648438 0 l 1x69
EndSplineSet
Validated: 1
EndChar

StartChar: at
Encoding: 64 64 33
Width: 1333
VWidth: 1024
Flags: W
HStem: -294 103<404.818 1022.26> -33 96<954.659 1107.43> -17 96<514.259 779.463> 329 94<535.804 813.529> 663 107<573.555 781.716> 922 95<429.999 969.678>
VStem: 79.2998 104<48.6333 647.58> 392.6 106<92.7655 290.76 524.708 578.551> 810.6 130<109.599 319> 1173.3 99<171.56 702.658>
LayerCount: 2
Fore
SplineSet
813.599609375 319 m 1xbfc0
 813.599609375 319 717 329 635.099609375 329 c 0
 549.299804688 329 498.599609375 308 498.599609375 168 c 0
 498.599609375 101 520.700195312 79 596.099609375 79 c 0
 615.599609375 79 639 80 667.599609375 83 c 0
 765.099609375 93 771.599609375 89 810.599609375 143 c 1
 813.599609375 319 l 1xbfc0
726.099609375 922 m 0
 345.799804688 922 183.299804688 875 183.299804688 364 c 0
 183.299804688 -138 289.900390625 -191 713.099609375 -191 c 2
 774.200195312 -191 l 2
 927.599609375 -191 1121.29980469 -187 1229.29980469 -104 c 1
 1273.29980469 -216 l 1
 1069.29980469 -288 903.599609375 -294 713.099609375 -294 c 0
 217.099609375 -294 79.2998046875 -215 79.2998046875 352 c 0
 79.2998046875 920 205.400390625 1017 705.299804688 1017 c 0
 1162.90039062 1017 1272.29980469 941 1272.29980469 478 c 0
 1272.29980469 50 1232.29980469 -33 1006.90039062 -33 c 0xdfc0
 960.099609375 -33 871.599609375 -17 867.599609375 2 c 1
 858.599609375 9 852.599609375 21 849.599609375 43 c 1
 820.599609375 -4 748.200195312 -1 589.599609375 -15 c 0
 572.700195312 -16 557.099609375 -17 542.799804688 -17 c 0xbfc0
 412.599609375 -17 392.599609375 59 392.599609375 124 c 0
 392.599609375 137 393.599609375 150 394.599609375 162 c 0
 405.599609375 306 420.599609375 414 584.400390625 423 c 0
 639 426 683.200195312 427 718.299804688 427 c 0
 808 427 830.599609375 420 830.599609375 420 c 1
 817.599609375 585 833.599609375 663 670.200195312 663 c 0
 562.299804688 663 519.400390625 602 502.5 499 c 1
 395.599609375 527 l 1
 415.599609375 694 519.400390625 770 672.799804688 770 c 0
 680.599609375 770 689.700195312 769 698.799804688 769 c 0
 883.599609375 757 921.599609375 698 938.599609375 482 c 1
 940.599609375 106 l 1
 949.700195312 76 1030.29980469 64 1064.09960938 63 c 1xdfc0
 1155.09960938 95 1173.29980469 201 1173.29980469 484 c 0
 1173.29980469 874 1013.40039062 922 726.099609375 922 c 0
EndSplineSet
Validated: 1
EndChar

StartChar: A
Encoding: 65 65 34
Width: 915
VWidth: 1024
Flags: W
HStem: 184 95<281.34 681.74> 193 87<281.34 681.74>
LayerCount: 2
Fore
SplineSet
281.33984375 279 m 1x80
 681.740234375 280 l 1x40
 468.540039062 779 l 1
 281.33984375 279 l 1x80
59.7998046875 6 m 1
 382.740234375 928 l 1
 553.040039062 927 l 1
 870.780273438 5 l 1
 778.780273438 -26 l 1
 703.83984375 193 l 1x40
 231.940429688 184 l 1x80
 167.799804688 -22 l 1
 59.7998046875 6 l 1
EndSplineSet
Validated: 1
EndChar

StartChar: B
Encoding: 66 66 35
Width: 877
VWidth: 1024
Flags: W
HStem: 0 97<210 681.006> 372 94<205 553.938> 830 97<197 588.856>
VStem: 92 118<97 372 466 716.476> 97 100<466 828> 606 116<514.42 811.136> 689.303 107.924<105.686 341.933>
LayerCount: 2
Fore
SplineSet
210 97 m 1xf2
 441 97 l 1
 490 97 l 2
 530.56 97 563.344 95.9632 589.692928 95.9632 c 0
 667.696315822 95.9632 689.302906626 105.049687167 689.302906626 177.021949461 c 0
 689.302906626 182.036615112 689.198015221 187.356566191 689 193 c 0
 688 217 688 247 685 286 c 0
 680 360 643 372 418 372 c 2
 205 372 l 1
 210 97 l 1xf2
203 466 m 1
 339 461 l 1
 569 461 606 486 606 649 c 2
 606 685 l 2
 606 825 600 830 442 830 c 2
 400 830 l 2
 312 830 282 828 197 828 c 1xec
 203 466 l 1
644 438 m 1
 764 428 791 392 797 269 c 0
 800 212 796 164 797 129 c 4
 797.14453125 124.607421875 797.2265625 120.338867188 797.2265625 116.192382812 c 4
 797.2265625 34.419921875 771.381691327 0 562 0 c 2
 487 0 l 1
 92 0 l 1
 92 5 l 1xf2
 97 927 l 1
 394 927 l 1
 465 927 l 2
 714 927 722 920 722 738 c 2
 722 690 l 2
 722 542 707 471 644 438 c 1
EndSplineSet
EndChar

StartChar: C
Encoding: 67 67 36
Width: 792
VWidth: 1024
Flags: W
HStem: -9 102<317.39 722.02> 839 102<328.572 723.34>
VStem: 76.7002 127<209.695 694.625>
LayerCount: 2
Fore
SplineSet
625.83984375 839 m 0
 598.83984375 839 548.200195312 840 493.599609375 840 c 0
 250.5 840 210.200195312 754 203.700195312 465 c 1
 203.700195312 414 l 2
 203.700195312 166 254.400390625 93 506.599609375 93 c 0
 691.83984375 93 717.83984375 94 718.83984375 97 c 2
 738.83984375 -1 l 2
 737.83984375 -8 708.83984375 -9 506.599609375 -9 c 0
 134.700195312 -9 76.7001953125 86 76.7001953125 411 c 2
 76.7001953125 465 l 1
 82.7001953125 833 130.700195312 941 485.799804688 941 c 0
 682.83984375 941 739.83984375 937 739.83984375 937 c 1
 717.83984375 844 l 2
 717.83984375 842 702.83984375 839 625.83984375 839 c 0
EndSplineSet
Validated: 1
EndChar

StartChar: D
Encoding: 68 68 37
Width: 903
VWidth: 1024
Flags: W
HStem: 0 96<209.3 632.454> 830 97<197.3 627.469>
VStem: 92.2998 117<97 646.445> 97.2998 100<280.555 830> 711.1 127<189.115 748.612>
LayerCount: 2
Fore
SplineSet
401.700195312 0 m 2xd8
 92.2998046875 0 l 1
 92.2998046875 5 l 1xe8
 97.2998046875 927 l 1
 362.700195312 927 l 2
 786.099609375 927 838.099609375 908 838.099609375 589 c 0
 838.099609375 551 837.099609375 510 836.099609375 463 c 0
 827.099609375 10 819.099609375 0 401.700195312 0 c 2xd8
209.299804688 97 m 1
 284.700195312 97 313.299804688 96 390 96 c 0
 692.900390625 96 699.400390625 104 708.5 463 c 0
 709.799804688 504 711.099609375 540 711.099609375 573 c 0
 711.099609375 816 663 830 369.200195312 830 c 2
 197.299804688 830 l 1xd8
 209.299804688 97 l 1
EndSplineSet
Validated: 1
EndChar

StartChar: E
Encoding: 69 69 38
Width: 742
VWidth: 1024
Flags: W
HStem: -6 114<339.61 665.14> -6 105<218.8 537.891> 370 99<218.8 634.14> 843 96<218.8 654.14>
VStem: 99.7998 119<99 377 461 843>
LayerCount: 2
Fore
SplineSet
665.139648438 108 m 1xb8
 669.139648438 -6 l 1
 99.7998046875 -6 l 1
 99.7998046875 939 l 1
 654.139648438 939 l 1
 654.139648438 836 l 1
 485.299804688 836 408.599609375 842 218.799804688 843 c 1
 218.799804688 461 l 1
 630.139648438 469 l 1
 634.139648438 469 l 1
 634.139648438 370 l 1
 630.139648438 370 l 1
 218.799804688 377 l 1
 218.799804688 99 l 1x78
 429.400390625 99 502.200195312 108 665.139648438 108 c 1xb8
EndSplineSet
EndChar

StartChar: F
Encoding: 70 70 39
Width: 674
VWidth: 1024
Flags: W
HStem: 804 109<204 385.759>
VStem: 87.0996 122.101<-8 357.58> 104.1 96<484 804>
LayerCount: 2
Fore
SplineSet
204 804 m 0xa0
 200.099609375 484 l 1
 200.099609375 484 599.33984375 480 599.33984375 476 c 1
 590.33984375 378 l 1
 584.33984375 378 576.33984375 378 570.33984375 378 c 0
 495.33984375 378 401.599609375 367 200.099609375 362 c 1xa0
 209.200195312 -19 l 1
 87.099609375 -8 l 1xc0
 104.099609375 915 l 1
 105.099609375 914 116.099609375 913 134.099609375 913 c 0
 246.900390625 913 628.33984375 926 628.33984375 926 c 1
 628.33984375 825 l 1
 204 804 l 0xa0
EndSplineSet
Validated: 1
EndChar

StartChar: G
Encoding: 71 71 40
Width: 874
VWidth: 1024
Flags: W
HStem: -15 102<274.091 647.126> 366 101<413.5 701.7> 849 102<303.861 607.168>
VStem: 74.0996 121<165.408 633.553> 691.7 107<709.31 748.797>
LayerCount: 2
Fore
SplineSet
413.5 366 m 1
 413.5 467 l 1
 803.700195312 467 l 1
 803.700195312 467 806.700195312 422 806.700195312 361 c 0
 806.700195312 292 802.700195312 204 787.700195312 135 c 0
 758.700195312 5 756.700195312 -15 472 -15 c 0
 148.099609375 -15 74.099609375 31 74.099609375 287 c 0
 74.099609375 337 77.099609375 396 82.099609375 463 c 0
 111.099609375 885 151.099609375 951 430.400390625 951 c 0
 707.700195312 951 749.700195312 919 798.700195312 712 c 1
 691.700195312 680 l 1
 646.200195312 826 611.099609375 849 430.400390625 849 c 0
 264 849 232.799804688 797 202.900390625 463 c 0
 197.700195312 404 195.099609375 354 195.099609375 311 c 0
 195.099609375 121 257.5 87 472 87 c 0
 646.200195312 87 659.200195312 100 681.299804688 180 c 0
 700.700195312 260 701.700195312 366 701.700195312 366 c 1
 413.5 366 l 1
EndSplineSet
Validated: 1
EndChar

StartChar: H
Encoding: 72 72 41
Width: 864
VWidth: 1024
Flags: W
HStem: 388 85<207 682.8> 909 20G<91.0873 214>
VStem: 91 123<473 922> 93 113<2 388 473 641.094> 676.8 114<1 381 480 748.051> 691.8 94<480 927>
LayerCount: 2
Fore
SplineSet
682.799804688 381 m 1xc8
 206 388 l 1
 200 -7 l 1
 96 2 l 1
 93 469 l 1
 92 471 l 1
 93 471 l 1xd8
 91 929 l 1
 214 922 l 1
 207 473 l 1
 684.799804688 480 l 1
 691.799804688 927 l 1
 785.799804688 927 l 1xe4
 790.799804688 1 l 1
 676.799804688 -3 l 1
 682.799804688 381 l 1xc8
EndSplineSet
Validated: 1
EndChar

StartChar: I
Encoding: 73 73 42
Width: 283
VWidth: 1024
Flags: W
HStem: 1 21G<156.8 215.8> 910 20G<85.7998 203.8>
VStem: 85.7998 118<233.131 924> 97.7998 112<6 689.869>
LayerCount: 2
Fore
SplineSet
85.7998046875 919 m 1xe0
 85.7998046875 930 l 1
 203.799804688 924 l 1xe0
 209.799804688 6 l 1
 215.799804688 1 l 1
 156.799804688 1 l 1
 156.799804688 3 l 1
 97.7998046875 4 l 1xd0
 85.7998046875 919 l 1xe0
EndSplineSet
Validated: 1
EndChar

StartChar: J
Encoding: 74 74 43
Width: 635
VWidth: 1024
Flags: W
HStem: -15 111<221.396 344.193>
VStem: 79.2998 118<121.708 280> 457.3 98<121.592 857.982> 463.3 102<349.018 920>
LayerCount: 2
Fore
SplineSet
79.2998046875 280 m 1xe0
 197.299804688 301 l 5
 197.299804688 247 l 2
 197.299804688 113 206 107 320.799804688 96 c 0
 333.740534213 94.7600325178 344.200195312 98 344.200195312 98 c 0
 454.700195312 111 457.299804688 123 457.299804688 237 c 0
 457.299804688 241 457.299804688 245 457.299804688 250 c 0
 457.299804688 260 457.299804688 272 457.299804688 284 c 2xe0
 463.299804688 920 l 1
 565.299804688 927 l 2
 566.299804688 927 566.299804688 927 565.299804688 924 c 0
 566.299804688 922 566.299804688 922 565.299804688 922 c 2xd0
 555.299804688 285 l 1
 555.299804688 26 545.299804688 -14 320.799804688 -15 c 0
 310.400390625 -15 300 -15 290.900390625 -15 c 0
 141.299804688 -15 79.2998046875 -1 79.2998046875 217 c 2
 79.2998046875 280 l 1xe0
EndSplineSet
Validated: 1
EndChar

StartChar: K
Encoding: 75 75 44
Width: 794
VWidth: 1024
Flags: W
HStem: 0 21G<632.54 749.539> 921 20G<92.2998 210.397>
VStem: 96.2998 118<0 343 531 926>
LayerCount: 2
Fore
SplineSet
96.2998046875 0 m 1
 92.2998046875 926 l 1
 210.299804688 941 l 1
 212.299804688 531 l 1
 578.299804688 944 l 1
 736.540039062 927 l 1
 460 599 l 1
 759.540039062 0 l 1
 632.540039062 12 l 1
 361.200195312 497 l 1
 214.299804688 343 l 1
 214.299804688 -9 l 1
 96.2998046875 0 l 1
EndSplineSet
Validated: 1
EndChar

StartChar: L
Encoding: 76 76 45
Width: 658
VWidth: 1024
Flags: W
HStem: 0 101<222.4 537.138> 911 20G<88.5726 206.4>
VStem: 88.4004 118<460.882 923> 96.4004 126<101 426.804>
LayerCount: 2
Fore
SplineSet
238.900390625 918 m 1xc0
 238.900390625 918 238.900390625 917 240.200195312 918 c 2
 238.900390625 918 l 1xc0
96.400390625 2 m 1xd0
 88.400390625 931 l 1
 206.400390625 923 l 1xe0
 222.400390625 101 l 1
 539.139648438 101 595.139648438 101 595.139648438 99 c 2
 594.139648438 99 l 1
 615.139648438 0 l 1
 225.053710938 0 l 1
 225.053710938 -2 l 1
 96.400390625 2 l 1xd0
EndSplineSet
Validated: 1
EndChar

StartChar: M
Encoding: 77 77 46
Width: 1048
VWidth: 1024
Flags: W
HStem: 0 21G<468.1 565.026> 909 20G<790.58 896.3>
VStem: 87.0996 121<17 580.687> 99.0996 97<230.637 769> 855.7 112<17 226.35> 889.3 86<589.65 799>
LayerCount: 2
Fore
SplineSet
99.099609375 927 m 1xd0
 264 923 l 1
 517.700195312 202 l 1
 798.299804688 929 l 1
 896.299804688 927 l 1
 975.299804688 925 l 1xd4
 967.700195312 -2 l 1
 855.700195312 17 l 1xc8
 889.299804688 799 l 1
 556.700195312 0 l 1
 470.700195312 0 l 1
 468.099609375 6 l 1
 460.299804688 6 l 1
 464.200195312 17 l 1
 196.099609375 769 l 1xd4
 208.099609375 17 l 1
 87.099609375 -2 l 1xe0
 99.099609375 927 l 1xd0
EndSplineSet
Validated: 1
EndChar

StartChar: N
Encoding: 78 78 47
Width: 871
VWidth: 1024
Flags: W
HStem: 0 21G<93.5996 217.6> 914 21G<94.5781 221.648 681.963 793.1>
VStem: 93.5996 124<0 483.811> 94.5996 110<218.189 697> 681.7 111.399<248.958 925> 692.1 105<142 827.042>
LayerCount: 2
Fore
SplineSet
681.700195312 934 m 1xc8
 793.099609375 925 l 1xc8
 797.099609375 -1 l 1
 611.5 -7 l 1
 204.599609375 697 l 5xd4
 217.599609375 5 l 1
 217.599609375 0 l 1
 93.599609375 0 l 1
 93.599609375 5 l 1xe0
 94.599609375 935 l 1
 228 914 l 1
 692.099609375 142 l 1xd4
 681.700195312 934 l 1xc8
EndSplineSet
Validated: 1
EndChar

StartChar: O
Encoding: 79 79 48
Width: 916
VWidth: 1024
Flags: W
HStem: -15 102<297.59 646.096> 840 101<302.658 601.902>
VStem: 76.7002 127<189.715 720.346> 722.4 127<167.247 652.688>
LayerCount: 2
Fore
SplineSet
203.700195312 463 m 0
 203.700195312 133 238.799804688 87 479.299804688 87 c 0
 669.099609375 87 722.400390625 127 722.400390625 334 c 0
 722.400390625 372 719.799804688 414 717.200195312 463 c 4
 697.700195312 773 652.200195312 840 459.799804688 840 c 0
 249.200195312 840 203.700195312 773 203.700195312 463 c 0
498.799804688 -15 m 0
 126.700195312 -15 76.7001953125 42 76.7001953125 463 c 0
 76.7001953125 856 134.700195312 941 459.799804688 941 c 0
 768.400390625 941 826.400390625 856 845.400390625 463 c 0
 847.400390625 410 849.400390625 363 849.400390625 321 c 0
 849.400390625 40 787.400390625 -15 498.799804688 -15 c 0
EndSplineSet
Validated: 1
EndChar

StartChar: P
Encoding: 80 80 49
Width: 740
VWidth: 1024
Flags: W
HStem: 325 97<208.7 549.972> 830 97<193.1 538.9> 922 5<87.0996 89.0996>
VStem: 89.0996 104<547.695 830> 95.0996 113.601<117.17 325 422 657.245> 574 102<450.658 792.742>
LayerCount: 2
Fore
SplineSet
206.099609375 422 m 1xd4
 402.400390625 422 l 2
 544.099609375 422 574 430 574 557 c 0
 574 583 572.700195312 613 571.400390625 649 c 0
 562.299804688 821 554.5 830 389.400390625 830 c 2
 193.099609375 830 l 1
 206.099609375 422 l 1xd4
87.099609375 922 m 1xb4
 87.099609375 927 l 1xb4
 304.900390625 927 l 2
 598 927 662 918 672 653 c 0
 674 595 676 547 676 507 c 0
 676 338 641 325 395.900390625 325 c 2
 208.700195312 325 l 1
 219.099609375 -13 l 1
 95.099609375 -8 l 1xcc
 89.099609375 922 l 1
 87.099609375 922 l 1xb4
EndSplineSet
Validated: 1
EndChar

StartChar: Q
Encoding: 81 81 50
Width: 917
VWidth: 1024
Flags: W
HStem: -15 102<296.3 541.884> 840 101<293.126 601.667>
VStem: 76.7002 106<220.895 707.223> 744.3 106<196.328 596.373>
LayerCount: 2
Fore
SplineSet
542.799804688 90 m 1
 463.5 183 l 1
 590.900390625 207 l 1
 659.799804688 127 l 1
 701.400390625 160 744.299804688 212 744.299804688 314 c 0
 744.299804688 354 736.5 409 732.599609375 464 c 0
 710.5 774 642.900390625 840 460.900390625 840 c 0
 254.200195312 840 182.700195312 783 182.700195312 473 c 0
 182.700195312 148 243.799804688 87 460.900390625 87 c 0
 490.799804688 87 518.099609375 88 542.799804688 90 c 1
76.7001953125 463 m 0
 76.7001953125 856 133.700195312 941 460.900390625 941 c 0
 767.299804688 941 823.299804688 856 845.299804688 463 c 0
 848.299804688 403 850.299804688 351 850.299804688 304 c 0
 850.299804688 141 826.299804688 59 751.299804688 19 c 1
 789.299804688 -39 l 1
 696.200195312 -90 l 1
 627.299804688 -8 l 1
 579.200195312 -13 524.599609375 -15 460.900390625 -15 c 0
 118.700195312 -15 76.7001953125 50 76.7001953125 463 c 0
EndSplineSet
Validated: 1
EndChar

StartChar: R
Encoding: 82 82 51
Width: 752
VWidth: 1024
Flags: W
HStem: 347 97<211.6 391> 833 94<212.9 449.622> 845 82<216.599 545.233>
VStem: 93.5996 118<3 347 444 833> 563.9 118<470.444 830.716>
LayerCount: 2
Fore
SplineSet
211.599609375 444 m 1xd8
 393.599609375 444 l 2
 556.099609375 444 563.900390625 454 563.900390625 649 c 0
 563.900390625 835 558.700195312 845 454.700195312 845 c 0xb8
 345.5 845 292.200195312 837 212.900390625 833 c 1
 211.599609375 444 l 1xd8
706.900390625 5 m 1
 708.900390625 0 l 1
 573.900390625 -5 l 1
 391 347 l 1
 211.599609375 347 l 1
 211.599609375 -8 l 1
 93.599609375 3 l 1
 93.599609375 927 l 1xb8
 388.400390625 927 l 2xd8
 669.900390625 927 681.900390625 914 681.900390625 649 c 0
 681.900390625 411 673.900390625 360 523.599609375 350 c 1
 706.900390625 5 l 1
EndSplineSet
Validated: 1
EndChar

StartChar: S
Encoding: 83 83 52
Width: 779
VWidth: 1024
Flags: W
HStem: -2 104<219.276 569.901> 722 21G<574.85 656.3> 831 111<232.636 549.031>
VStem: 74.0996 101<151.589 212.405> 76.0996 115.9<560.125 796.468> 596.3 117<128.388 352.85>
LayerCount: 2
Fore
SplineSet
79.099609375 180 m 0xec
 77.099609375 190 76.099609375 200 74.099609375 210 c 1
 175.099609375 237 l 1xf4
 199.799804688 119 224.5 102 336.299804688 102 c 0
 372.700195312 102 416.900390625 103 472.799804688 104 c 0
 587.200195312 106 582 126 593.700195312 251 c 0
 595 265 596.299804688 278 596.299804688 289 c 0
 596.299804688 365 556 376 370.099609375 406 c 0
 89.099609375 455 83.099609375 471 77.099609375 690 c 0
 77.099609375 703 76.099609375 716 76.099609375 728 c 0
 76.099609375 911 123.099609375 941 364.900390625 941 c 0
 415.599609375 941 457.200195312 942 492.299804688 942 c 0
 620.299804688 942 647.299804688 926 699.299804688 773 c 0
 701.299804688 768 702.299804688 763 704.299804688 758 c 1
 596.299804688 722 l 1
 553.400390625 822 532.599609375 831 445.5 831 c 0
 423.400390625 831 397.400390625 831 364.900390625 831 c 0
 231 831 192 810 192 686 c 0
 192 673 192 657 193.299804688 641 c 0
 198.5 544 207.599609375 537 481.900390625 493 c 0
 684.299804688 457 713.299804688 444 713.299804688 307 c 0
 713.299804688 293 712.299804688 278 712.299804688 261 c 0
 706.299804688 56 699.299804688 6 426 1 c 0
 359.700195312 0 306.400390625 -2 262.200195312 -2 c 0
 136.099609375 -2 107.099609375 20 79.099609375 180 c 0xec
EndSplineSet
Validated: 1
EndChar

StartChar: T
Encoding: 84 84 53
Width: 743
VWidth: 1024
Flags: W
HStem: 826 101<438.34 693.68> 841 86<63.7998 320.34>
VStem: 320.34 118<4 831>
LayerCount: 2
Fore
SplineSet
379.33984375 0 m 1xa0
 379.33984375 -4 l 1
 320.33984375 -4 l 1
 320.33984375 835 l 1
 59.7998046875 841 l 1
 59.7998046875 884 l 1
 61.7998046875 884 l 1
 63.7998046875 927 l 1x60
 693.6796875 927 l 1
 693.6796875 826 l 1
 688.6796875 826 l 1
 438.33984375 831 l 1
 438.33984375 4 l 1
 379.33984375 0 l 1xa0
EndSplineSet
Validated: 1
EndChar

StartChar: U
Encoding: 85 85 54
Width: 824
VWidth: 1024
Flags: W
HStem: -15 116<249.851 573.023> 909 20G<88.0647 204.1 617.2 753.529>
VStem: 87.0996 118<150.375 908> 617.2 134.399<453.926 921> 627.6 124<170.547 848.074>
LayerCount: 2
Fore
SplineSet
204.099609375 910 m 2xe8
 205.099609375 908 204.099609375 908 204.099609375 908 c 1
 205.099609375 380 l 2
 205.099609375 115 215.5 101 420.900390625 101 c 0
 601.599609375 101 612 115 627.599609375 381 c 1xe8
 617.200195312 921 l 1xf0
 753.599609375 929 l 1
 751.599609375 359 l 1
 735.599609375 3 721.599609375 -15 420.900390625 -15 c 0
 101.099609375 -15 87.099609375 3 87.099609375 359 c 2
 88.099609375 932 l 1
 204.099609375 913 l 2
 205.099609375 913 204.099609375 910 204.099609375 910 c 2xe8
EndSplineSet
Validated: 1
EndChar

StartChar: V
Encoding: 86 86 55
Width: 767
VWidth: 1024
Flags: W
HStem: 916 20G<85.1922 178.626 612.218 690.304>
LayerCount: 2
Fore
SplineSet
54.599609375 909 m 1
 172.599609375 936 l 1
 389.240234375 217 l 1
 618.580078125 938 l 1
 722.580078125 909 l 1
 464.639648438 0 l 1
 458.139648438 0 l 1
 459.440429688 -6 l 1
 389.240234375 0 l 1
 315.139648438 0 l 1
 317.740234375 7 l 1
 54.599609375 909 l 1
EndSplineSet
Validated: 1
EndChar

StartChar: W
Encoding: 87 87 56
Width: 1045
VWidth: 1024
Flags: W
HStem: 918 20G<83.6411 167.705 472.44 606.857>
VStem: 890.88 106<869.951 914.309>
LayerCount: 2
Fore
SplineSet
55.900390625 911 m 1
 162.900390625 938 l 1
 332.040039062 234 l 1
 472.440429688 929 l 1
 601.139648438 934 l 1
 807.83984375 211 l 5
 890.879882812 950 l 1
 996.879882812 911 l 1
 864.879882812 -16 l 1
 728.540039062 0 l 1
 554.33984375 652 l 1
 400.940429688 16 l 1
 397.040039062 0 l 1
 260.540039062 -10 l 1
 55.900390625 911 l 1
EndSplineSet
Validated: 1
EndChar

StartChar: X
Encoding: 88 88 57
Width: 763
VWidth: 1024
Flags: W
HStem: -14 5<127.2 144.2> 915 20G<95.2002 210.966>
LayerCount: 2
Fore
SplineSet
571.280273438 943 m 1
 704.280273438 927 l 1
 473.740234375 470 l 1
 721.280273438 -20 l 1
 602.280273438 0 l 1
 403.540039062 351 l 1
 193.200195312 -14 l 1
 125.200195312 -14 l 1
 127.200195312 -9 l 1
 144.200195312 -9 l 1
 57.2001953125 0 l 1
 311.240234375 505 l 1
 95.2001953125 927 l 1
 199.200195312 935 l 1
 382.740234375 623 l 1
 571.280273438 943 l 1
EndSplineSet
Validated: 1
EndChar

StartChar: Y
Encoding: 89 89 58
Width: 753
VWidth: 1024
Flags: W
VStem: 321.64 119<3 440>
LayerCount: 2
Fore
SplineSet
588.280273438 951 m 1
 710.280273438 919 l 1
 440.639648438 439 l 1
 438.639648438 440 l 1
 440.639648438 -5 l 1
 321.639648438 3 l 1
 323.639648438 443 l 1
 321.639648438 442 l 1
 53.2998046875 921 l 1
 171.299804688 944 l 1
 378.639648438 559 l 1
 588.280273438 951 l 1
EndSplineSet
Validated: 1
EndChar

StartChar: Z
Encoding: 90 90 59
Width: 805
VWidth: 1024
Flags: W
HStem: 0 97<190.117 732.28> 8 101<72.7998 74.7998 189.8 617.422> 826 101<98.7998 562.14 728.28 732.28>
LayerCount: 2
Fore
SplineSet
189.799804688 106 m 1x60
 760.280273438 97 l 1
 732.280273438 0 l 1xa0
 72.7998046875 8 l 1
 72.7998046875 109 l 1
 74.7998046875 109 l 1
 562.139648438 826 l 1
 98.7998046875 826 l 1
 87.7998046875 927 l 1
 732.280273438 927 l 1
 732.280273438 826 l 1
 728.280273438 826 l 1
 189.799804688 106 l 1x60
EndSplineSet
Validated: 1
EndChar

StartChar: bracketleft
Encoding: 91 91 60
Width: 378
VWidth: 1024
Flags: W
HStem: -115 86<196.6 329.6> 920 92<183.6 320.6>
VStem: 93.5996 90<263.365 920> 97.5996 232<-115 -50.3995 949.386 1012> 97.5996 99<-29 627.635>
LayerCount: 2
Fore
SplineSet
183.599609375 920 m 1xe0
 196.599609375 -29 l 1xc8
 340.599609375 -36 l 1
 329.599609375 -115 l 1
 97.599609375 -115 l 1xd0
 93.599609375 1012 l 1
 332.599609375 1012 l 1
 320.599609375 918 l 1
 183.599609375 920 l 1xe0
EndSplineSet
Validated: 1
EndChar

StartChar: backslash
Encoding: 92 92 61
Width: 450
VWidth: 1024
Flags: W
HStem: 0 21G<337.338 372.016> 921 20G<62.4004 172.565>
VStem: 62.4004 374
LayerCount: 2
Fore
SplineSet
343.400390625 0 m 1
 62.400390625 927 l 1
 166.400390625 941 l 5
 436.400390625 65 l 1
 343.400390625 0 l 1
EndSplineSet
Validated: 1
EndChar

StartChar: bracketright
Encoding: 93 93 62
Width: 378
VWidth: 1024
Flags: W
HStem: -115 99<71.7998 171.8> 927 85<67.7998 192.8>
VStem: 171.8 123<-15 386.348> 192.8 106<520.652 922>
LayerCount: 2
Fore
SplineSet
171.799804688 -15 m 1xe0
 192.799804688 922 l 1
 67.7998046875 927 l 1
 59.7998046875 1012 l 1
 298.799804688 1012 l 1xd0
 294.799804688 -115 l 1
 62.7998046875 -115 l 1
 71.7998046875 -16 l 1
 171.799804688 -15 l 1xe0
EndSplineSet
Validated: 1
EndChar

StartChar: asciicircum
Encoding: 94 94 63
Width: 820
VWidth: 1024
Flags: W
LayerCount: 2
Fore
SplineSet
681.080078125 339 m 1
 421.740234375 697 l 1
 158.5 336 l 1
 71.5 361 l 1
 360.639648438 823 l 1
 465.940429688 824 l 1
 768.080078125 367 l 1
 681.080078125 339 l 1
EndSplineSet
Validated: 1
EndChar

StartChar: underscore
Encoding: 95 95 64
Width: 876
VWidth: 1024
Flags: W
HStem: -132 64<119.7 778.68>
LayerCount: 2
Fore
SplineSet
119.700195312 -132 m 1
 102.700195312 -68 l 1
 778.6796875 -68 l 1
 796.6796875 -132 l 1
 119.700195312 -132 l 1
EndSplineSet
Validated: 1
EndChar

StartChar: grave
Encoding: 96 96 65
Width: 340
VWidth: 1024
Flags: W
HStem: 784 232
VStem: 75.4004 201
LayerCount: 2
Fore
SplineSet
75.400390625 955 m 1
 161.400390625 1016 l 1
 221.400390625 928 l 1
 276.400390625 839 l 1
 206.400390625 784 l 1
 146.400390625 866 l 1
 75.400390625 955 l 1
EndSplineSet
Validated: 1
EndChar

StartChar: a
Encoding: 97 97 66
Width: 710
VWidth: 1024
Flags: W
HStem: -17 87<184.028 461.303> 325 97<204.57 536.58> 620 94<210.151 488.618>
VStem: 79.2998 95<82.8497 290.44> 539.6 99<122.844 307>
LayerCount: 2
Fore
SplineSet
538.299804688 307 m 1
 538.299804688 307 353.700195312 325 282.200195312 325 c 0
 200.299804688 325 186 299 175.599609375 162 c 0
 175.599609375 155 174.299804688 148 174.299804688 141 c 0
 174.299804688 85 200.299804688 70 254.900390625 70 c 0
 283.5 70 314.700195312 73 355 77 c 0
 452.5 87 526.599609375 109 539.599609375 163 c 1
 538.299804688 307 l 1
88.2998046875 568 m 1
 105.299804688 663 128.299804688 714 295.200195312 714 c 0
 314.700195312 714 335.5 713 357.599609375 712 c 0
 589.599609375 699 610.599609375 699 627.599609375 483 c 0
 636.599609375 372 638.599609375 242 638.599609375 143 c 0
 638.599609375 49 636.599609375 -18 636.599609375 -18 c 1
 571.599609375 -10 564.599609375 -11 555.599609375 -7 c 0
 547.599609375 -3 551.599609375 9 546.599609375 44 c 1
 511 -3 434.299804688 0 275.700195312 -14 c 0
 254.900390625 -16 235.400390625 -17 217.200195312 -17 c 0
 122.299804688 -17 79.2998046875 18 79.2998046875 163 c 0
 79.2998046875 403 111.299804688 418 271.799804688 422 c 1
 469.400390625 417 537 413 537 413 c 1
 521.400390625 571 545.599609375 615 357.599609375 617 c 0
 329 619 308.200195312 620 290 620 c 0
 221.099609375 620 202.900390625 602 182.099609375 540 c 1
 88.2998046875 568 l 1
EndSplineSet
Validated: 1
EndChar

StartChar: b
Encoding: 98 98 67
Width: 720
VWidth: 1024
Flags: W
HStem: -15 95<244.557 500.459> 617 94<244.834 474.282> 922 20G<95.2364 169.3>
VStem: 92.2998 109<0 31 124.828 571.378 667 913> 566.6 91<150.753 497.355>
LayerCount: 2
Fore
SplineSet
201.299804688 426 m 1
 201.299804688 282 l 2
 205.200195312 109 236.400390625 80 359.900390625 80 c 0
 506.799804688 80 566.599609375 102 566.599609375 334 c 1
 549.700195312 567 489.900390625 617 359.900390625 617 c 0
 239 617 207.799804688 589 201.299804688 426 c 1
657.599609375 348 m 1
 657.599609375 34 628.599609375 -15 410.599609375 -15 c 0
 306.599609375 -15 241.599609375 -6 200.299804688 31 c 1
 200.299804688 0 l 1
 193.299804688 0 l 1
 92.2998046875 -15 l 1
 92.2998046875 -5 l 1
 95.2998046875 942 l 1
 202.599609375 913 l 1
 202.599609375 903 l 1
 201.299804688 667 l 1
 242.900390625 702 307.900390625 711 410.599609375 711 c 0
 611.599609375 711 640.599609375 662 657.599609375 348 c 1
EndSplineSet
Validated: 1
EndChar

StartChar: c
Encoding: 99 99 68
Width: 680
VWidth: 1024
Flags: W
HStem: -10 94<234.699 512.405> 618 90<211.717 505.547>
VStem: 76.7002 99<155.213 574.486> 528 91<102.884 139.68>
LayerCount: 2
Fore
SplineSet
528 155 m 1
 619 138 l 1
 597 22 592 -10 359 -10 c 0
 110.700195312 -10 90.7001953125 -7 78.7001953125 355 c 0
 77.7001953125 389 76.7001953125 421 76.7001953125 449 c 0
 76.7001953125 683 121.700195312 708 296.599609375 708 c 0
 316.099609375 708 336.900390625 707 359 707 c 0
 617 700 598 630 621 570 c 1
 531 549 l 1
 513.700195312 583 531 616 359 617 c 0
 336.900390625 617 317.400390625 618 299.200195312 618 c 0
 209.5 618 175.700195312 597 175.700195312 377 c 0
 175.700195312 107 225.099609375 84 359 84 c 0
 483.799804688 84 517.599609375 86 528 155 c 1
EndSplineSet
Validated: 1
EndChar

StartChar: d
Encoding: 100 100 69
Width: 711
VWidth: 1024
Flags: W
HStem: -15 95<243.344 480.044> 617 94<255.832 479.766> 922 20G<555.3 629.363>
VStem: 75.4004 119<131.704 536.347> 523.3 109<0 31 124.828 571.378 667 913>
LayerCount: 2
Fore
SplineSet
75.400390625 348 m 1
 92.400390625 662 121.400390625 711 314 711 c 0
 416.700195312 711 481.700195312 702 523.299804688 667 c 1
 522 903 l 1
 522 913 l 1
 629.299804688 942 l 1
 632.299804688 -5 l 1
 632.299804688 -15 l 1
 531.299804688 0 l 1
 524.299804688 0 l 1
 524.299804688 31 l 1
 483 -6 418 -15 314 -15 c 0
 104.400390625 -15 75.400390625 34 75.400390625 348 c 1
523.299804688 426 m 1
 516.799804688 589 485.599609375 617 364.700195312 617 c 0
 234.700195312 617 211.299804688 581 194.400390625 348 c 1
 194.400390625 116 217.799804688 80 364.700195312 80 c 0
 488.200195312 80 519.400390625 109 523.299804688 282 c 2
 523.299804688 426 l 1
EndSplineSet
Validated: 1
EndChar

StartChar: e
Encoding: 101 101 70
Width: 685
VWidth: 1024
Flags: W
HStem: -12 84<223.776 479.561> 305 98<180.7 489.293> 323 73<311.717 507> 624 93<211.236 464.838>
VStem: 76.7002 104<117.66 305 403 590.422> 508.3 94<396 581.58>
LayerCount: 2
Fore
SplineSet
335.400390625 624 m 2xbc
 325 624 l 2
 206.700195312 624 180.700195312 621 180.700195312 418 c 2
 180.700195312 403 l 1xdc
 507 396 l 1
 507 413 508.299804688 429 508.299804688 443 c 0
 508.299804688 593 479.700195312 624 335.400390625 624 c 2xbc
180.700195312 305 m 1
 187.200195312 74 211.900390625 72 356.200195312 72 c 2
 364 72 l 2
 468 72 491.400390625 88 529.099609375 178 c 1
 630.099609375 152 l 1
 584.099609375 12 552.099609375 -12 366.599609375 -12 c 0
 115.700195312 -12 83.7001953125 -12 77.7001953125 361 c 0
 77.7001953125 385 76.7001953125 406 76.7001953125 428 c 0
 76.7001953125 708 118.700195312 711 353.599609375 716 c 0
 377 716 397.799804688 717 417.299804688 717 c 0
 576.299804688 717 602.299804688 691 602.299804688 526 c 0
 602.299804688 474 600.299804688 407 597.299804688 323 c 1xbc
 475.799804688 317 328.900390625 311 180.700195312 305 c 1
EndSplineSet
Validated: 1
EndChar

StartChar: f
Encoding: 102 102 71
Width: 448
VWidth: 1024
Flags: W
HStem: 689 20G<64.4828 152.9> 838 89<261.415 381.9>
VStem: 152.9 104<-8 606 703 836.641>
LayerCount: 2
Fore
SplineSet
256.900390625 696 m 1
 381.900390625 688 l 1
 390.900390625 598 l 1
 256.900390625 606 l 1
 254.900390625 -19 l 1
 153.900390625 -8 l 1
 152.900390625 613 l 1
 55.900390625 618 l 1
 66.900390625 709 l 1
 152.900390625 703 l 1
 152.900390625 762 l 1
 158.900390625 922 154.900390625 927 252.900390625 927 c 2
 274.900390625 927 l 1
 381.900390625 927 l 1
 395.900390625 833 l 1
 315.900390625 837 l 2
 306.900390625 837 298.900390625 838 291.900390625 838 c 0
 258.900390625 838 259.900390625 825 256.900390625 726 c 2
 256.900390625 696 l 1
EndSplineSet
Validated: 1
EndChar

StartChar: g
Encoding: 103 103 72
Width: 670
VWidth: 1024
Flags: W
HStem: -261 97<134.344 448.317> -6 101<208.644 465.372> 613 88<214.327 442.156> 701 20G<505.7 596.2>
VStem: 82.9004 98<115.595 578.287> 487.7 109<115.086 562.576 667 692> 487.7 99<-125.307 0 115.086 562.576>
LayerCount: 2
Fore
SplineSet
347.299804688 613 m 2xe8
 320 613 l 2
 203 613 180.900390625 604 180.900390625 344 c 0
 180.900390625 106 190 95 296.599609375 95 c 2
 334.299804688 95 l 1
 365.5 95 l 2
 470.799804688 95 489.700195312 103 489.700195312 304 c 0
 489.700195312 537 479.900390625 613 347.299804688 613 c 2xe8
310.900390625 -164 m 0
 473.400390625 -164 487.700195312 -110 487.700195312 -36 c 2
 487.700195312 0 l 1xda
 487.700195312 0 383.700195312 -6 283.599609375 -6 c 2
 270.599609375 -6 l 2
 82.900390625 -6 82.900390625 -3 82.900390625 340 c 2
 82.900390625 352 l 2
 82.900390625 680 109.900390625 701 251.099609375 701 c 2
 331.700195312 701 l 1
 347.299804688 701 l 2
 433.099609375 701 450 700 487.700195312 667 c 1xec
 487.700195312 697 l 1xea
 595.700195312 721 l 2
 596.700195312 721 597.700195312 692 596.700195312 692 c 2xdc
 586.700195312 -7 l 1xda
 574.700195312 -218 573.700195312 -230 426.599609375 -256 c 0
 404.5 -259 379.799804688 -261 355.099609375 -261 c 0
 234.200195312 -261 110.900390625 -229 68.900390625 -220 c 1
 85.900390625 -174 80.900390625 -194 102.900390625 -125 c 1
 102.900390625 -125 193.900390625 -164 310.900390625 -164 c 0
EndSplineSet
Validated: 1
EndChar

StartChar: h
Encoding: 104 104 73
Width: 628
VWidth: 1024
Flags: W
HStem: 600 105<206.919 437.712>
VStem: 91 101<7 583.441 673 927> 446.8 109<152.266 586.667> 459.8 99<1 340.734>
LayerCount: 2
Fore
SplineSet
459.799804688 1 m 1xd0
 446.799804688 492 l 1
 446.799804688 510 l 2
 446.799804688 596 428.599609375 600 331.099609375 600 c 0
 211.5 600 192 586 192 499 c 2
 192 7 l 1
 91 -2 l 1
 98 944 l 1
 192 927 l 1
 192 673 l 1
 228.400390625 698 288.200195312 705 388.299804688 705 c 0
 534.799804688 705 555.799804688 694 555.799804688 492 c 2xe0
 558.799804688 -7 l 1
 459.799804688 1 l 1xd0
EndSplineSet
Validated: 1
EndChar

StartChar: i
Encoding: 105 105 74
Width: 281
VWidth: 1024
Flags: W
HStem: 686 20G<95.5 203.528> 790 119<84.5 204.5>
VStem: 84.5 128<790 909> 91.5 113<4 705>
LayerCount: 2
Fore
SplineSet
91.5 4 m 1xd0
 95.5 705 l 1
 203.5 706 l 1
 204.5 -3 l 1
 91.5 4 l 1xd0
84.5 790 m 5xe0
 84.5 909 l 5xe0
 204.5 909 l 5xd0
 212.5 782 l 5
 84.5 790 l 5xe0
EndSplineSet
EndChar

StartChar: j
Encoding: 106 106 75
Width: 329
VWidth: 1024
Flags: W
HStem: -170 95<46.7998 77.6398> 677 20G<128.8 251.8> 790 119<123.8 242.8>
VStem: 123.8 119<790 909> 128.8 123<522.968 697> 144.8 91<-79.516 391.845>
LayerCount: 2
Fore
SplineSet
46.7998046875 -75 m 1xe4
 94.7998046875 -89 l 1
 140.799804688 -72 144.799804688 -76 144.799804688 -34 c 2
 144.799804688 0 l 1xe4
 128.799804688 697 l 1
 251.799804688 697 l 1xe8
 235.799804688 0 l 1
 235.799804688 -72 l 2
 235.799804688 -155 226.799804688 -146 125.799804688 -184 c 1
 46.7998046875 -170 l 1
 46.7998046875 -75 l 1xe4
123.799804688 790 m 5xf0
 123.799804688 909 l 5
 242.799804688 909 l 5
 242.799804688 790 l 5
 123.799804688 790 l 5xf0
EndSplineSet
EndChar

StartChar: k
Encoding: 107 107 76
Width: 603
VWidth: 1024
Flags: W
HStem: 687 20G<440.509 497.555> 899 20G<108.9 216.345>
VStem: 81.9004 108<-3 257> 108.9 108<603.835 907>
LayerCount: 2
Fore
SplineSet
81.900390625 -3 m 1xe0
 108.900390625 907 l 1
 216.900390625 919 l 1xd0
 202.900390625 415 l 1
 457.98046875 707 l 1
 550.98046875 660 l 1
 354.139648438 437 l 1
 563.98046875 8 l 1
 446.98046875 -20 l 1
 286.540039062 352 l 1
 197.900390625 257 l 1
 189.900390625 -20 l 1
 81.900390625 -3 l 1xe0
EndSplineSet
Validated: 1
EndChar

StartChar: l
Encoding: 108 108 77
Width: 279
VWidth: 1024
Flags: W
HStem: 898 20G<100.797 156.1>
VStem: 87.0996 110<-12 575.245> 101.1 110<323.687 915>
LayerCount: 2
Fore
SplineSet
211.099609375 915 m 1xa0
 211.099609375 902 l 1xa0
 197.099609375 -12 l 1
 87.099609375 -12 l 1
 87.099609375 -7 l 1xc0
 101.099609375 918 l 1
 156.099609375 915 l 1
 211.099609375 915 l 1xa0
EndSplineSet
Validated: 1
EndChar

StartChar: m
Encoding: 109 109 78
Width: 979
VWidth: 1024
Flags: W
HStem: 600 114<218.473 433.056> 600 98<568.13 787.742>
VStem: 84.5 114<172.053 584.695 673 695> 96.5 102<6 534.947> 444.2 109<0 584.625> 796.3 114<6 441.549> 800.3 100<40.451 586.021>
LayerCount: 2
Fore
SplineSet
796.299804688 6 m 1x4c
 800.299804688 492 l 2
 800.299804688 595 785.900390625 600 688.400390625 600 c 0x4a
 571.400390625 600 553.200195312 586 553.200195312 499 c 2
 553.200195312 492 l 1
 547.200195312 -8 l 1
 444.200195312 0 l 1
 444.200195312 492 l 2
 444.200195312 595 428.599609375 600 331.099609375 600 c 0
 216.700195312 600 198.5 586 198.5 499 c 2xaa
 198.5 6 l 1
 96.5 -10 l 1x98
 84.5 717 l 1
 118.5 709 l 1
 198.5 695 l 1
 198.5 673 l 1
 233.599609375 698 266.099609375 714 363.599609375 714 c 0xa8
 461.200195312 714 519.200195312 700 538.200195312 654 c 1
 563.599609375 695 605.200195312 698 724.799804688 698 c 0
 873.299804688 698 900.299804688 694 900.299804688 492 c 1x6a
 910.299804688 -10 l 1
 796.299804688 6 l 1x4c
EndSplineSet
Validated: 1
EndChar

StartChar: n
Encoding: 110 110 79
Width: 658
VWidth: 1024
Flags: W
HStem: 617 97<201.385 469.136>
VStem: 92 108<6 609.446 691 707> 475.6 111.101<2 496.199> 484.7 99<7.80105 596.575>
LayerCount: 2
Fore
SplineSet
475.599609375 2 m 1xe0
 484.700195312 502 l 1
 484.700195312 517 l 2
 484.700195312 612 458.700195312 617 320.900390625 617 c 0
 254.599609375 617 218.200195312 613 200 595 c 1
 197 6 l 1
 91 -7 l 1
 92 728 l 1
 200 707 l 1
 200 691 l 1
 240.299804688 709 301.400390625 714 396.299804688 714 c 0
 560.700195312 714 582.700195312 704 583.700195312 502 c 2xd0
 586.700195312 -11 l 1
 475.599609375 2 l 1xe0
EndSplineSet
Validated: 1
EndChar

StartChar: o
Encoding: 111 111 80
Width: 691
VWidth: 1024
Flags: W
HStem: -15 86<224.65 480.962> 626 85<221.754 477.946>
VStem: 79.2998 106<109.295 585.912> 516.8 106<110.712 587.159>
LayerCount: 2
Fore
SplineSet
79.2998046875 348 m 0
 79.2998046875 709 111.299804688 711 351.700195312 711 c 0
 621.799804688 711 622.799804688 662 622.799804688 348 c 0
 622.799804688 -13 591.799804688 -15 351.700195312 -15 c 0
 80.2998046875 -15 79.2998046875 34 79.2998046875 348 c 0
351.700195312 71 m 0
 494.700195312 71 516.799804688 72 516.799804688 348 c 0
 516.799804688 589 515.5 626 351.700195312 626 c 0
 207.400390625 626 185.299804688 626 185.299804688 348 c 0
 185.299804688 108 186.599609375 71 351.700195312 71 c 0
EndSplineSet
Validated: 1
EndChar

StartChar: p
Encoding: 112 112 81
Width: 721
VWidth: 1024
Flags: W
HStem: -206 21G<89.7002 200.527> -15 94<234.369 508.106> 618 95<242.128 478.015>
VStem: 92.7002 108<-201 25 113 573.356 658 706> 546.5 110<119.026 508.712>
LayerCount: 2
Fore
SplineSet
89.7001953125 -201 m 1
 92.7001953125 733 l 1
 192.700195312 706 l 1
 192.700195312 658 l 1
 229.299804688 701 296.900390625 705 412.599609375 711 c 0
 430.799804688 712 449 713 464.599609375 713 c 0
 611.5 713 635.5 648 651.5 361 c 0
 654.5 309 656.5 264 656.5 225 c 0
 656.5 21 609.5 -15 412.599609375 -15 c 0
 303.400390625 -15 237.099609375 -15 198.700195312 25 c 1
 200.700195312 -206 l 1
 89.7001953125 -201 l 1
359.299804688 79 m 0
 506.200195312 79 546.5 101 546.5 231 c 0
 546.5 254 545.200195312 281 542.599609375 311 c 0
 524.400390625 565 502.299804688 618 387.900390625 618 c 0
 380.099609375 618 372.299804688 617 363.200195312 617 c 0
 222.799804688 609 200.700195312 607 200.700195312 348 c 0
 200.700195312 80 222.799804688 79 359.299804688 79 c 0
EndSplineSet
Validated: 1
EndChar

StartChar: q
Encoding: 113 113 82
Width: 727
VWidth: 1024
Flags: W
HStem: -207 21G<541.1 613.1> -15 103<249.264 482.741> 618 95<253.102 496.379>
VStem: 75.4004 116<192.291 562.424> 541.1 108<-177 45 145.131 567.352 665 697>
LayerCount: 2
Fore
SplineSet
541.099609375 332 m 0
 541.099609375 568 520.299804688 618 396.799804688 618 c 0
 387.700195312 618 378.599609375 617 368.200195312 617 c 0
 243.400390625 610 191.400390625 584 191.400390625 441 c 0
 191.400390625 414 192.700195312 383 196.599609375 348 c 0
 218.700195312 123 242.099609375 88 321.400390625 88 c 0
 511.200195312 88 541.099609375 121 541.099609375 332 c 0
78.400390625 348 m 0
 76.400390625 383 75.400390625 415 75.400390625 444 c 0
 75.400390625 661 126.400390625 700 318.799804688 711 c 0
 340.900390625 712 361.700195312 713 379.900390625 713 c 0
 457.900390625 713 508.599609375 701 541.099609375 665 c 1
 541.099609375 697 l 1
 649.099609375 713 l 1
 649.099609375 -177 l 1
 541.099609375 -207 l 1
 541.099609375 45 l 1
 500.799804688 -3 433.200195312 -15 318.799804688 -15 c 0
 136.400390625 -15 92.400390625 46 78.400390625 348 c 0
EndSplineSet
Validated: 1
EndChar

StartChar: r
Encoding: 114 114 83
Width: 466
VWidth: 1024
Flags: W
HStem: 610 98<243.654 414.7>
VStem: 89.7002 107<-2 570.766 675 705>
LayerCount: 2
Fore
SplineSet
414.700195312 706 m 1
 414.700195312 608 l 1
 403.700195312 609 390.700195312 610 376.700195312 610 c 0
 304.700195312 610 203.700195312 588 196.700195312 525 c 1
 200.700195312 -2 l 1
 91.7001953125 -9 l 1
 89.7001953125 725 l 1
 196.700195312 705 l 1
 196.700195312 675 l 1
 219.700195312 695 322.700195312 708 382.700195312 708 c 0
 395.700195312 708 406.700195312 707 414.700195312 706 c 1
EndSplineSet
Validated: 1
EndChar

StartChar: s
Encoding: 115 115 84
Width: 651
VWidth: 1024
Flags: W
HStem: -7 80<197.013 444.786> 615 91<213.131 467.38>
VStem: 102.6 92<445.609 599.053> 472.8 110<103.135 267.746> 478.8 87<543.01 601.184>
LayerCount: 2
Fore
SplineSet
72.599609375 131 m 1xf0
 72.599609375 132 l 2
 70.599609375 145 69.599609375 160 67.599609375 177 c 1
 179.599609375 187 l 1
 188.599609375 79 187.599609375 73 312.900390625 73 c 0
 433.799804688 73 472.799804688 96 472.799804688 180 c 2
 472.799804688 202 l 2xf0
 472.799804688 265 466.299804688 278 333.700195312 300 c 0
 123.599609375 335 102.599609375 360 102.599609375 507 c 0
 102.599609375 677 129.599609375 706 337.599609375 706 c 2
 370.099609375 706 l 2
 511.799804688 706 552.799804688 703 565.799804688 591 c 1
 565.799804688 590 l 1
 569.799804688 557 569.799804688 543 569.799804688 543 c 1
 478.799804688 526 l 1
 478.799804688 535 l 2xe8
 478.799804688 613 448.099609375 615 354.5 615 c 2
 335 615 l 2
 224.5 615 194.599609375 607 194.599609375 518 c 0
 194.599609375 434 244 419 379.200195312 397 c 0
 573.799804688 363 582.799804688 339 582.799804688 231 c 2
 582.799804688 190 l 2
 582.799804688 20 553.799804688 -7 333.700195312 -7 c 2
 285.599609375 -7 l 2
 124.599609375 -7 90.599609375 -2 72.599609375 131 c 1xf0
EndSplineSet
Validated: 1
EndChar

StartChar: t
Encoding: 116 116 85
Width: 437
VWidth: 1024
Flags: W
HStem: -9 93<254.249 361.353> 611 86<74.3723 146.8 252.8 371.8>
VStem: 146.8 106<84.9214 611 697 878>
LayerCount: 2
Fore
SplineSet
371.799804688 697 m 1
 371.799804688 607 l 1
 252.799804688 611 l 1
 252.799804688 150 l 2
 255.799804688 93 251.799804688 84 264.799804688 84 c 0
 267.799804688 84 271.799804688 85 276.799804688 85 c 2
 370.799804688 94 l 1
 371.799804688 -9 l 1
 226.799804688 -9 l 1
 192.799804688 -9 l 2
 133.799804688 -9 154.799804688 -1 146.799804688 121 c 1
 146.799804688 614 l 1
 59.7998046875 617 l 1
 59.7998046875 697 l 1
 146.799804688 697 l 1
 146.799804688 878 l 1
 252.799804688 887 l 1
 252.799804688 697 l 1
 371.799804688 697 l 1
EndSplineSet
Validated: 1
EndChar

StartChar: u
Encoding: 117 117 86
Width: 640
VWidth: 1024
Flags: W
HStem: -15 105<202.767 439.387> 689 12G<88.0598 196.1 457.1 565.128>
VStem: 87.0996 110<96.6526 685> 457.1 109<-15 25 107.963 693>
LayerCount: 2
Fore
SplineSet
457.099609375 210 m 2
 457.099609375 693 l 1
 565.099609375 709 l 1
 566.099609375 -5 l 1
 566.099609375 -15 l 1
 463.099609375 -38 l 1
 457.099609375 5 l 1
 457.099609375 25 l 1
 425.900390625 -7 410.299804688 -15 312.799804688 -15 c 0
 98.099609375 -15 87.099609375 -5 87.099609375 198 c 2
 88.099609375 701 l 1
 196.099609375 685 l 1
 197.099609375 198 l 1
 197.099609375 150 l 2
 197.099609375 93 207.5 90 318 90 c 0
 438.900390625 90 457.099609375 106 457.099609375 210 c 2
EndSplineSet
Validated: 1
EndChar

StartChar: v
Encoding: 118 118 87
Width: 630
VWidth: 1024
Flags: W
HStem: 677 20G<62.0335 166.9 483.28 573.683>
VStem: 483.28 95<657.865 689>
LayerCount: 2
Fore
SplineSet
55.900390625 697 m 1
 166.900390625 681 l 1
 341.139648438 153 l 1
 483.280273438 689 l 1
 578.280273438 697 l 1
 413.940429688 -18 l 1
 269.639648438 0 l 1
 55.900390625 697 l 1
EndSplineSet
Validated: 1
EndChar

StartChar: w
Encoding: 119 119 88
Width: 941
VWidth: 1024
Flags: W
HStem: 0 21G<708.84 714.046> 688 20G<59.7998 164.972 410.04 524.418 798.72 878.932>
LayerCount: 2
Fore
SplineSet
600 0 m 2
 469.83984375 508 l 1
 352.83984375 -12 l 1
 209.799804688 0 l 1
 59.7998046875 692 l 1
 160.799804688 708 l 1
 282.639648438 124 l 1
 410.040039062 697 l 1
 519.240234375 700 l 1
 667.83984375 126 l 1
 803.280273438 720 l 1
 890.280273438 697 l 1
 708.83984375 0 l 2
 708.839843727 0.0905937370186 696.857638858 0.120791649358 680.844328673 0.120791649358 c 0
 648.817708303 0.120791649358 600.666666667 -2.77555756156e-17 600 0 c 2
EndSplineSet
Validated: 1
EndChar

StartChar: x
Encoding: 120 120 89
Width: 692
VWidth: 1024
Flags: W
HStem: 699 4G<88.2002 227.656 530.23 594.237>
LayerCount: 2
Fore
SplineSet
543.98046875 723 m 1
 641.98046875 684 l 1
 443.83984375 381 l 1
 639.98046875 10 l 1
 539.98046875 -23 l 1
 367.139648438 284 l 1
 367.139648438 284 174.200195312 -2 173.200195312 -4 c 2
 57.2001953125 14 l 1
 293.040039062 360 l 1
 88.2001953125 699 l 1
 215.040039062 699 l 1
 364.540039062 462 l 1
 543.98046875 723 l 1
EndSplineSet
Validated: 1
EndChar

StartChar: y
Encoding: 121 121 90
Width: 632
VWidth: 1024
Flags: W
HStem: 698 20G<91.4859 181.694 450.958 535.855>
LayerCount: 2
Fore
SplineSet
57.2001953125 690 m 1
 177.200195312 718 l 1
 302.139648438 162 l 1
 456.48046875 721 l 1
 583.48046875 689 l 1
 287.83984375 -252 l 1
 157.200195312 -234 l 1
 250.139648438 7 l 1
 57.2001953125 690 l 1
EndSplineSet
Validated: 1
EndChar

StartChar: z
Encoding: 122 122 91
Width: 530
VWidth: 1024
Flags: W
HStem: 0 100<201.35 471.2> 0 90<171.2 441.05> 597 100<99.2002 319.078> 606 91<99.3224 319.2>
VStem: 70.2002 401<0 70>
LayerCount: 2
Fore
SplineSet
99.2001953125 697 m 1x28
 455.200195312 697 l 1
 455.200195312 627 l 1
 171.200195312 90 l 1x58
 471.200195312 100 l 1
 471.200195312 0 l 1x88
 70.2001953125 0 l 1
 70.2001953125 70 l 1
 319.200195312 606 l 1x58
 99.2001953125 597 l 1
 99.2001953125 697 l 1x28
EndSplineSet
Validated: 1
EndChar

StartChar: braceleft
Encoding: 123 123 92
Width: 383
VWidth: 1024
Flags: W
HStem: -121 103<247.8 320.459> 435 52<59.7998 116.595> 925 110<256.8 313.8>
VStem: 125.8 196<925 1020.55> 133.8 99<499.115 920.099>
LayerCount: 2
Fore
SplineSet
321.799804688 1035 m 1xf0
 313.799804688 925 l 1
 256.799804688 921 l 1
 234.799804688 913 229.799804688 892 229.799804688 850 c 0
 229.799804688 818 232.799804688 776 232.799804688 718 c 0
 232.799804688 582 234.799804688 572 236.799804688 563 c 0
 230.799804688 536 245.799804688 468 191.799804688 451 c 1
 237.799804688 436 240.799804688 422 240.799804688 372 c 2
 240.799804688 340 l 1
 238.799804688 68 l 1
 242.799804688 26 233.799804688 -14 274.799804688 -17 c 2
 337.799804688 -18 l 1
 318.799804688 -121 l 1
 247.799804688 -115 l 2
 204.799804688 -112 139.799804688 -86 139.799804688 32 c 2
 135.799804688 314 l 2
 135.799804688 375 124.799804688 435 69.7998046875 435 c 2
 59.7998046875 435 l 1
 59.7998046875 487 l 1
 69.7998046875 487 l 2
 119.799804688 487 133.799804688 537 133.799804688 554 c 2
 133.799804688 578 l 2xe8
 133.799804688 623 132.799804688 716 127.799804688 798 c 0
 127.799804688 853 125.799804688 895 125.799804688 928 c 0
 125.799804688 1018 139.799804688 1035 247.799804688 1035 c 2
 321.799804688 1035 l 1xf0
EndSplineSet
Validated: 1
EndChar

StartChar: bar
Encoding: 124 124 93
Width: 247
VWidth: 1024
Flags: W
VStem: 67.5996 119<-234 530.483> 81.5996 110<174.517 977>
LayerCount: 2
Fore
SplineSet
81.599609375 977 m 1x40
 191.599609375 991 l 5x40
 186.599609375 -234 l 1
 67.599609375 -272 l 1x80
 81.599609375 977 l 1x40
EndSplineSet
Validated: 1
EndChar

StartChar: braceright
Encoding: 125 125 94
Width: 434
VWidth: 1024
Flags: W
HStem: -97 91<64.4004 140.4 140.403 190.572> 428 66<302.448 386.4> 919 90<86.7285 162.436>
VStem: 174.4 99<696.2 911.671> 179.4 115<498.037 661.8> 196.4 86<0.460541 159.816>
LayerCount: 2
Fore
SplineSet
62.400390625 1009 m 1xf0
 151.400390625 1009 l 2
 275.400390625 1009 271.400390625 905 273.400390625 799 c 1xf0
 294.400390625 559 l 1xe8
 294.400390625 494 304.400390625 494 374.400390625 494 c 2
 386.400390625 494 l 1
 386.400390625 428 l 1
 374.400390625 428 l 2
 311.400390625 428 293.400390625 401 285.400390625 353 c 1
 282.400390625 52 l 2
 282.400390625 -75 216.400390625 -87 151.400390625 -97 c 1
 62.400390625 -97 l 1
 64.400390625 -6 l 1
 140.400390625 -5 l 1
 140.400390625 -5 143.400390625 -6 148.400390625 -6 c 0
 164.400390625 -6 196.400390625 1 196.400390625 53 c 1xe4
 172.400390625 338 l 2
 171.400390625 348 171.400390625 358 171.400390625 366 c 0
 171.400390625 424 190.400390625 436 248.400390625 452 c 1
 182.400390625 471 179.400390625 498 179.400390625 580 c 2xe8
 174.400390625 786 l 2
 174.400390625 856 171.400390625 919 123.400390625 919 c 1
 70.400390625 906 l 1
 62.400390625 1009 l 1xf0
EndSplineSet
Validated: 1
EndChar

StartChar: asciitilde
Encoding: 126 126 95
Width: 676
VWidth: 1024
Flags: W
HStem: 336 76<395.986 514.116> 431 80<177.988 306.86>
VStem: 85.7998 87<365 425.894> 521.2 91<416.875 492>
LayerCount: 2
Fore
SplineSet
172.799804688 365 m 1
 85.7998046875 351 l 1
 85.7998046875 489 100.799804688 511 224.799804688 511 c 0
 422.400390625 511 344.400390625 412 477 412 c 0
 510.799804688 412 521.200195312 429 521.200195312 492 c 1
 612.200195312 496 l 1
 612.200195312 358 594.200195312 336 470.5 336 c 0
 272.900390625 336 360 431 228.700195312 431 c 0
 194.900390625 431 172.799804688 428 172.799804688 365 c 1
EndSplineSet
Validated: 1
EndChar

StartChar: exclamdown
Encoding: 161 161 96
Width: 285
VWidth: 1024
Flags: W
HStem: 646 123<96 215>
VStem: 92 123<-168 303.206 650 769>
LayerCount: 2
Fore
SplineSet
211 -180 m 1
 91 -168 l 1
 91 210 l 1
 111 553 l 1
 194 557 l 1
 219 224 l 1
 211 -180 l 1
92 646 m 1
 96 769 l 1
 215 769 l 1
 215 650 l 1
 92 646 l 1
EndSplineSet
Validated: 1
EndChar

StartChar: cent
Encoding: 162 162 97
Width: 679
VWidth: 1024
Flags: W
HStem: -15 97<236.494 322.6> 624 92<221.588 303.1 389.1 471.14>
VStem: 81.9004 99<144.24 578.006> 303.1 86<379.015 620.999 716 772> 322.6 86.6006<-75 -41.6754> 323 70.5996<82 326.985>
LayerCount: 2
Fore
SplineSet
323 82 m 1xe4
 303.099609375 624 l 1xf0
 205.599609375 621 180.900390625 586 180.900390625 348 c 0
 180.900390625 115 225 85 323 82 c 1xe4
496.010614595 500.748230934 m 1
 488.11324751 567.401577091 489.767578125 621 401.099609375 621 c 0
 397.099609375 621 389.099609375 620 389.099609375 620 c 2xf0
 393.599609375 82 l 1
 483.299804688 86 527.5 94 534 172 c 1
 628 134 l 1
 596 22 581 1 393.599609375 -15 c 1xe4
 409.200195312 -78 l 1
 322.599609375 -75 l 1
 322.599609375 -15 l 1xe8
 111.900390625 -13 81.900390625 9 81.900390625 348 c 0
 81.900390625 687 96.900390625 714 303.099609375 716 c 1
 305.099609375 776 l 1
 389.099609375 772 l 1
 389.099609375 711 l 1
 577.841525389 711 588.155274356 580.888089948 588.155274356 552.448374885 c 0
 588.155274356 548.958845728 588 547 588 547 c 1
 588 547 510.261125277 506.820356885 496.010614595 500.748230934 c 1
EndSplineSet
Validated: 1
EndChar

StartChar: sterling
Encoding: 163 163 98
Width: 665
VWidth: 1024
Flags: W
HStem: -11 94<264.6 582.84> 427 98.5<76.6247 159 315.6 529.801> 868 100.037<221.193 497.899>
VStem: 87.5996 111<623.465 846.158> 201.335 119.324<182.207 427>
LayerCount: 2
Fore
SplineSet
159 521 m 1
 122 596 88.599609375 642 87.599609375 750 c 1
 110.230058885 955.234766246 177.314752018 968.037464207 264.048099368 968.037464207 c 0
 276.411565846 968.037464207 289.174278812 967.777322613 302.264390713 967.777322613 c 0
 315.020961744 967.777322613 328.088459782 968.024376096 341.400390625 969 c 0
 347.900390625 969 355.720703125 970.403320312 362.200195312 970 c 0
 521.83984375 959 618.83984375 884 618.83984375 881 c 2
 618.83984375 881 614.83984375 876 540.83984375 815 c 1
 513.83984375 833 478.83984375 868 346.599609375 868 c 2
 329.700195312 868 l 2
 242.599609375 866 198.599609375 863 198.599609375 751 c 2
 198.599609375 740 l 2
 198.599609375 635 238.599609375 614 281.599609375 523 c 1
 298.099609375 525 360.159667969 525.5 418.094726562 525.5 c 0
 476.029785156 525.5 529.83984375 525 529.83984375 525 c 1
 552.83984375 427 l 1
 315.599609375 427 l 1
 318.347833373 409.594581344 320.659250966 392.186704115 320.659250966 372.476835247 c 0
 320.659250966 370.671133827 320.639850917 368.846111471 320.599609375 367 c 0
 317.599609375 188 293.599609375 155 264.599609375 83 c 1
 582.83984375 87 l 1
 604.83984375 -11 l 1
 100.599609375 -11 l 1
 100.599609375 -11 117.599609375 31 129.599609375 59 c 1
 127.599609375 59 l 1
 171.599609375 171 173.599609375 134 200.599609375 373 c 0
 201.108376238 377.50366004 201.33520713 381.917553914 201.33520713 386.23728367 c 0
 201.33520713 400.979918667 198.693167848 414.62576611 195.599609375 427 c 1
 67.599609375 427 l 1
 76.599609375 520 l 1
 76.599609375 520 111 520 159 521 c 1
EndSplineSet
Validated: 1
EndChar

StartChar: currency
Encoding: 164 164 99
Width: 911
VWidth: 1024
Flags: W
HStem: -15 109<392.977 728.904> 361 72<252.3 442.406> 377 49<395.702 585.564> 493 62<84.2998 125.3 252.3 450.555> 508 47<384.654 582.909> 848 87<379.071 728.839>
VStem: 125.3 127<433 493> 127.3 107<557 700.303>
LayerCount: 2
Fore
SplineSet
66.2998046875 372 m 1xc6
 71.2998046875 428 l 1
 125.299804688 433 l 1
 125.299804688 463 l 1
 125.299804688 493 l 1
 75.2998046875 493 l 1
 84.2998046875 555 l 1xd6
 127.299804688 557 l 1
 136.299804688 855 249.299804688 931 529.799804688 935 c 0
 539.09375 935 548.387695312 935 557.682617188 935 c 0
 853.98046875 935 851.98046875 844 862.98046875 843 c 1
 826.98046875 826 786.98046875 770 786.98046875 770 c 1
 764.98046875 802 735.98046875 848 557.682617188 848 c 0
 541.749023438 848 524.48828125 848 507.227539062 847 c 0
 347.897460938 841 241.299804688 776 234.299804688 556 c 1
 597.514648438 555 l 1
 582.909179688 508 l 1x8d
 252.299804688 493 l 1
 252.299804688 483 246.299804688 473 246.299804688 463 c 0
 246.299804688 453 252.299804688 443 252.299804688 433 c 1xd6
 585.564453125 426 l 1
 606.80859375 377 l 1xa6
 231.299804688 361 l 1
 237.139648438 221 330.740234375 94 538.740234375 94 c 0
 738.98046875 94 734.98046875 130 742.98046875 139 c 1
 835.98046875 102 l 1
 824.98046875 98 820.98046875 -15 533.540039062 -15 c 0
 195.299804688 -15 162.299804688 118 123.299804688 352 c 1
 66.2998046875 372 l 1xc6
EndSplineSet
Validated: 1
EndChar

StartChar: yen
Encoding: 165 165 100
Width: 766
VWidth: 1024
Flags: W
HStem: 165 74<173.448 332.04 449.04 601.98> 282 78<294.325 332.04 449.04 606.98>
VStem: 332.04 117<3.0547 165 239 282 364 440>
LayerCount: 2
Fore
SplineSet
597.98046875 951 m 1
 719.98046875 919 l 1
 450.33984375 439 l 1
 448.040039062 440 l 1
 449.040039062 364 l 1
 606.98046875 368 l 1
 606.98046875 282 l 1
 449.040039062 282 l 1
 449.040039062 239 l 1
 601.98046875 242 l 1
 610.98046875 164 l 1
 610.98046875 164 545.240234375 165 449.040039062 165 c 1
 450.33984375 -5 l 1
 330.740234375 3 l 1
 330.740234375 3 330.740234375 78 332.040039062 167 c 1
 238.440429688 167 173.400390625 168 173.400390625 168 c 1
 173.400390625 234 l 1
 332.040039062 237 l 1
 332.040039062 282 l 1
 173.400390625 282 l 1
 177.400390625 356 l 1
 333.040039062 360 l 1
 333.040039062 443 l 1
 330.740234375 442 l 1
 62.400390625 921 l 1
 180.400390625 944 l 1
 388.040039062 559 l 1
 597.98046875 951 l 1
EndSplineSet
Validated: 1
EndChar

StartChar: brokenbar
Encoding: 166 166 101
Width: 247
VWidth: 1024
Flags: W
VStem: 99 74<10.115 458 518 842.168>
LayerCount: 2
Fore
SplineSet
103 458 m 5
 177 465 l 5
 173 -73 l 5
 93 -80 l 5
 103 458 l 5
91 1042 m 5
 169 1034 l 5
 173 518 l 5
 99 510 l 5
 91 1042 l 5
EndSplineSet
Validated: 1
EndChar

StartChar: section
Encoding: 167 167 102
Width: 755
VWidth: 1024
Flags: W
HStem: 1 103<208.739 557.245> 290 92.0996<315.663 451.16> 527.9 82.0996<306.651 451.783> 831 110<227.872 581.377>
VStem: 78 112<551.435 795.622> 577.74 118<121.347 353.225>
LayerCount: 2
Fore
SplineSet
390.799804688 382.099609375 m 1
 450.469726562 395.599609375 473.870117188 425.299804688 473.870117188 454.099609375 c 0
 473.870117188 491 436.4296875 527 390.799804688 527.900390625 c 0
 389.629882812 527.900390625 387.290039062 527.900390625 386.120117188 527.900390625 c 0
 312.41015625 527.900390625 289.009765625 491 289.009765625 459.5 c 0
 289.009765625 441.5 297.200195312 423.5 306.560546875 418.099609375 c 1
 324.110351562 396.5 354.530273438 382.099609375 390.799804688 382.099609375 c 1
110 163 m 1
 259.240234375 113 296.940429688 107 456.83984375 104 c 1
 571.240234375 106 577.740234375 126 577.740234375 251 c 0
 577.740234375 308 575.139648438 338 543.940429688 358 c 1
 507.540039062 317 449.040039062 290 381.440429688 290 c 0
 277.440429688 290 201 355 195 437 c 1
 85 472 78 519 78 690 c 0
 78 907 111 941 348.940429688 941 c 2
 390.540039062 941 l 2
 447.740234375 941 530.940429688 937 670.740234375 897 c 1
 619.740234375 792 l 1
 533.540039062 817 507.540039062 831 348.940429688 831 c 0
 208 831 190 805 190 641 c 0
 190 591 193 565 224 545 c 1
 257.940429688 585 316.440429688 610 381.440429688 610 c 0
 480.240234375 610 563.440429688 551 577.740234375 473 c 1
 688.740234375 444 695.740234375 411 695.740234375 261 c 0
 695.740234375 40 682.740234375 6 410.040039062 1 c 1
 154 4 86 58 86 58 c 1
 110 163 l 1
EndSplineSet
EndChar

StartChar: dieresis
Encoding: 168 168 103
Width: 480
VWidth: 1024
Flags: W
HStem: 928 136<135.851 227.3 263.3 399.3> 930 146<105.3 196.749>
VStem: 105.3 128<930 1064> 263.3 136<928 1064>
LayerCount: 2
Fore
SplineSet
263.299804688 1064 m 5xb0
 399.299804688 1064 l 5
 399.299804688 928 l 5
 263.299804688 928 l 5
 263.299804688 1064 l 5xb0
105.299804688 1076 m 5x70
 227.299804688 1064 l 5xb0
 233.299804688 930 l 5
 105.299804688 930 l 5
 105.299804688 1076 l 5x70
EndSplineSet
Validated: 1
EndChar

StartChar: copyright
Encoding: 169 169 104
Width: 1021
VWidth: 1024
Flags: HMW
LayerCount: 2
Fore
SplineSet
624.700195312 244 m 1
 708.200195312 229 l 1
 698.900390625 112 676.900390625 114 518.099609375 114 c 0
 352.799804688 114 330.799804688 115 330.799804688 368 c 0
 330.799804688 591 348.799804688 614 470 614 c 0
 484.299804688 614 499.900390625 613 518.099609375 613 c 0
 689.900390625 611 706.900390625 613 706.900390625 508 c 0
 706.900390625 490 705.900390625 479 705.900390625 456 c 1
 629.900390625 466 l 1
 629.900390625 492 l 2
 629.900390625 559 620.799804688 550 518.099609375 551 c 2
 499.900390625 551 l 2
 425.799804688 551 412.799804688 539 412.799804688 368 c 0
 412.799804688 180 427.099609375 179 518.099609375 179 c 0
 603.900390625 179 618.200195312 170 624.700195312 244 c 1
174 369 m 0
 174 190 323 42 516.799804688 42 c 0
 710.799804688 42 838 190 838 369 c 0
 838 548 696.900390625 696 499.900390625 696 c 0
 306.099609375 696 174 549 174 369 c 0
520.700195312 762 m 0
 768 762 916 587 916 369 c 0
 916 151 768 -26 520.700195312 -26 c 0
 274.900390625 -26 110 147 110 365 c 0
 110 583 274.900390625 762 520.700195312 762 c 0
EndSplineSet
EndChar

StartChar: ordfeminine
Encoding: 170 170 105
Width: 705
VWidth: 1024
Flags: W
HStem: 636.75 42.2998<288.2 435.178> 793.8 40.5<298.695 450.351> 923.4 42.2998<296.428 437.27>
VStem: 244.407 42.75<681.682 786.99 897.637 916.852> 450.957 45.1357<696.521 785.7 830.25 912.253>
LayerCount: 2
Fore
SplineSet
450.95703125 785.700195312 m 5
 450.95703125 785.700195312 398.307617188 790.650390625 359.698242188 792.900390625 c 4
 350.337890625 793.349609375 342.732421875 793.799804688 335.712890625 793.799804688 c 4
 298.857421875 793.799804688 292.422851562 782.099609375 287.7421875 720.450195312 c 4
 287.7421875 717.299804688 287.157226562 714.150390625 287.157226562 711 c 4
 287.157226562 685.799804688 298.857421875 679.049804688 323.426757812 679.049804688 c 4
 336.297851562 679.049804688 350.337890625 680.400390625 368.47265625 682.200195312 c 4
 412.34765625 686.700195312 445.692382812 696.599609375 451.54296875 720.900390625 c 5
 450.95703125 785.700195312 l 5
248.45703125 900 m 5
 256.107421875 942.75 266.45703125 965.700195312 341.5625 965.700195312 c 4
 350.337890625 965.700195312 359.698242188 965.25 369.642578125 964.799804688 c 4
 474.04296875 958.950195312 483.4921875 958.950195312 491.142578125 861.75 c 4
 495.192382812 811.799804688 496.092773438 753.299804688 496.092773438 708.75 c 4
 496.092773438 666.450195312 495.192382812 636.299804688 495.192382812 636.299804688 c 5
 465.942382812 639.900390625 462.79296875 639.450195312 458.7421875 641.25 c 4
 455.142578125 643.049804688 456.942382812 648.450195312 454.692382812 664.200195312 c 5
 438.672851562 643.049804688 404.7421875 643.950195312 333.373046875 637.650390625 c 4
 324.012695312 636.75 314.65234375 636.75 306.462890625 636.75 c 4
 263.7578125 636.75 244.407226562 652.5 244.407226562 717.75 c 4
 244.407226562 825.75 258.807617188 832.5 331.032226562 834.299804688 c 5
 419.952148438 832.049804688 450.373046875 830.25 450.373046875 830.25 c 5
 443.352539062 901.349609375 454.2421875 921.150390625 369.642578125 922.049804688 c 4
 356.772460938 922.950195312 347.412109375 923.400390625 339.22265625 923.400390625 c 4
 308.217773438 923.400390625 300.02734375 915.75 290.66796875 887.849609375 c 5
 248.45703125 900 l 5
EndSplineSet
EndChar

StartChar: guillemotleft
Encoding: 171 171 106
Width: 591
VWidth: 1024
Flags: W
LayerCount: 2
Fore
SplineSet
230.639648438 648 m 1
 338.540039062 630 l 1
 167.799804688 348 l 1
 351.540039062 87 l 1
 256.639648438 63 l 1
 72.7998046875 348 l 1
 230.639648438 648 l 1
451.98046875 656 m 1
 537.98046875 630 l 1
 373.639648438 348 l 1
 519.98046875 91 l 1
 441.98046875 67 l 1
 270.940429688 348 l 1
 451.98046875 656 l 1
EndSplineSet
Validated: 1
EndChar

StartChar: logicalnot
Encoding: 172 172 107
Width: 645
VWidth: 1024
Flags: W
HStem: 251 121<94.9004 205.078>
VStem: 451.64 116<139 278>
LayerCount: 2
Fore
SplineSet
567.639648438 127 m 1
 451.639648438 139 l 1
 451.639648438 278 l 1
 81.900390625 251 l 1
 94.900390625 372 l 1
 461.639648438 376 l 1
 577.639648438 380 l 1
 573.639648438 278 l 1
 567.639648438 127 l 1
EndSplineSet
Validated: 1
EndChar

StartChar: registered
Encoding: 174 174 109
Width: 1069
VWidth: 1024
Flags: MW
LayerCount: 2
Fore
SplineSet
524.900390625 760 m 0
 790.984375 760 947 581 947 363 c 0
 927.200195312 145 795.299804688 -28 524.900390625 -28 c 0
 274.299804688 -28 123 149 123 367 c 4
 123 585 274.299804688 760 524.900390625 760 c 0
431.299804688 369 m 1
 534 369 l 2
 625 369 630.200195312 374 630.200195312 463 c 0
 630.200195312 549 626.299804688 553 567.799804688 553 c 0
 506.700195312 553 475.5 550 431.299804688 548 c 1
 431.299804688 369 l 1
734.200195312 168 m 1
 734.200195312 167 l 1
 735.5 166 l 1
 636.700195312 163 l 1
 532.700195312 325 l 1
 530.099609375 325 l 1
 431.299804688 325 l 1
 431.299804688 162 l 1
 398.299804688 164 l 1
 365.299804688 167 l 1
 365.299804688 169 l 1
 365.299804688 589 l 1
 365.299804688 591 l 1
 382.299804688 591 l 1
 398.299804688 591 l 1
 431.299804688 591 l 1
 531.400390625 591 l 2
 689.200195312 591 696.200195312 585 696.200195312 463 c 0
 696.200195312 354 691.200195312 331 606.799804688 326 c 1
 734.200195312 168 l 1
197 363 m 0
 197 184 325 40 523.599609375 40 c 0
 740.700195312 40 853.200195312 192 873 371 c 0
 873 550 705.5234375 694 506.700195312 694 c 0
 308.099609375 694 197 543 197 363 c 0
EndSplineSet
EndChar

StartChar: macron
Encoding: 175 175 110
Width: 651
VWidth: 1024
Flags: W
HStem: 998 128<413.248 570.48> 1024 102<116 273.233>
LayerCount: 2
Fore
SplineSet
104 1126 m 1x40
 570.48046875 1126 l 1
 570.48046875 998 l 1x80
 116 1024 l 1
 104 1126 l 1x40
EndSplineSet
Validated: 1
EndChar

StartChar: degree
Encoding: 176 176 111
Width: 397
VWidth: 1024
Flags: MW
LayerCount: 2
Fore
SplineSet
81.900390625 808 m 5
 81.900390625 822 l 6
 81.900390625 882 107.900390625 965 206.900390625 965 c 4
 328.900390625 965 323.900390625 878 329.900390625 808 c 4
 330.900390625 801 330.900390625 794 330.900390625 787 c 4
 330.900390625 722 303.900390625 651 206.900390625 651 c 4
 83.900390625 651 85.900390625 748 81.900390625 808 c 5
202.900390625 708 m 4
 260.900390625 708 269.900390625 726 271.900390625 800 c 6
 271.900390625 806 l 6
 271.900390625 869 245.900390625 905 215.900390625 905 c 4
 212.900390625 905 209.900390625 905 206.900390625 904 c 4
 174.900390625 897 135.900390625 879 135.900390625 818 c 4
 135.900390625 812 135.900390625 806 136.900390625 800 c 4
 144.900390625 724 144.900390625 708 202.900390625 708 c 4
EndSplineSet
EndChar

StartChar: plusminus
Encoding: 177 177 112
Width: 794
VWidth: 1024
Flags: W
HStem: 19 81<436.836 568.08> 25 51<217.9 349.145> 382 75<240.847 343.74 420.839 679.045> 391 58<68.9004 343.74>
VStem: 343.74 77.0986<459 695> 346.34 71<234.957 379>
LayerCount: 2
Fore
SplineSet
217.900390625 25 m 1x40
 217.900390625 76 l 1x40
 568.080078125 100 l 1
 568.080078125 19 l 1x80
 217.900390625 25 l 1x40
346.33984375 382 m 1x24
 68.900390625 391 l 1
 68.900390625 449 l 1x14
 343.740234375 457 l 1
 335.940429688 695 l 1
 429.5859375 695 l 1
 420.838867188 459 l 1x28
 737.379882812 463 l 1
 737.379882812 371 l 1
 417.33984375 379 l 1
 432.139648438 142 l 1
 352.83984375 142 l 1
 346.33984375 382 l 1x24
EndSplineSet
Validated: 1
EndChar

StartChar: Superscripttwo
Encoding: 178 178 113
Width: 352
VWidth: 1024
Flags: MW
LayerCount: 2
Fore
SplineSet
80.599609375 608 m 5
 80.599609375 634 l 6
 80.599609375 727 84.599609375 712 147.599609375 754 c 4
 220.599609375 803 231.599609375 817 231.599609375 858 c 4
 231.599609375 920 225.599609375 930 183.599609375 930 c 4
 141.599609375 930 134.599609375 924 134.599609375 885 c 4
 134.599609375 863 133.599609375 856 131.599609375 856 c 6
 129.599609375 858 l 5
 81.599609375 879 l 5
 81.599609375 885 l 6
 81.599609375 956 95.599609375 967 182.599609375 967 c 4
 269.599609375 967 283.599609375 952 283.599609375 853 c 4
 282.599609375 801 273.599609375 786 212.599609375 745 c 4
 149.599609375 702 139.599609375 709 138.599609375 651 c 5
 272.599609375 649 l 5
 289.599609375 608 l 5
 138.599609375 608 l 5
 80.599609375 608 l 5
EndSplineSet
EndChar

StartChar: Superscriptthree
Encoding: 179 179 114
Width: 371
VWidth: 1024
Flags: MW
LayerCount: 2
Fore
SplineSet
78 716 m 5
 132 713 l 5
 136 668 144 661 192 661 c 4
 241 661 249 670 249 725 c 4
 249 782 240 791 181 791 c 6
 154 791 l 5
 154 812 l 5
 153 829 l 5
 184 829 l 6
 229 829 237 837 243 888 c 4
 244 898 245 905 245 912 c 4
 245 941 231 946 183 946 c 4
 141 946 134 942 131 916 c 5
 78 918 l 5
 86 976 100 985 185 985 c 4
 270 985 296 976 296 926 c 4
 296 916 294 904 292 891 c 4
 285 837 277 825 233 814 c 5
 295 801 305 787 305 724 c 4
 305 633 290 619 192 619 c 4
 100 619 85 632 78 716 c 5
EndSplineSet
EndChar

StartChar: acute
Encoding: 180 180 115
Width: 294
VWidth: 1024
Flags: W
HStem: 695 228
VStem: 80.5996 154
LayerCount: 2
Fore
SplineSet
127.599609375 923 m 1
 234.599609375 872 l 1
 151.599609375 695 l 1
 80.599609375 726 l 1
 127.599609375 923 l 1
EndSplineSet
Validated: 1
EndChar

StartChar: mu
Encoding: 181 181 116
Width: 638
VWidth: 1024
Flags: W
HStem: -15 103<214.506 431.142> 689 12G<89.9375 198.7 460 568>
VStem: 89.7002 109<-57.0332 14 103.041 685> 100.7 98<-188 14 103.041 532.033> 460 108<-15 27 117.188 693>
LayerCount: 2
Fore
SplineSet
460 210 m 2xe8
 460 693 l 1
 568 709 l 1
 568 -15 l 1
 466 -38 l 1
 466 27 l 1
 436.599609375 -5 413.200195312 -15 315.700195312 -15 c 0
 235.099609375 -15 209.099609375 1 192.700195312 14 c 1
 199 -188 l 5
 100.700195312 -226 l 1xd8
 89.7001953125 701 l 1
 198.700195312 685 l 1
 198.700195312 198 l 2
 198.700195312 95 228.599609375 88 318.299804688 88 c 0
 413.200195312 88 460 106 460 210 c 2xe8
EndSplineSet
EndChar

StartChar: paragraph
Encoding: 182 182 117
Width: 689
VWidth: 1024
Flags: W
HStem: 854 73<434.2 508.199 590.6 617.6>
VStem: 70.2002 364<478.243 754.899> 343.2 98<-13 324.812> 352.2 89<-12.8122 325> 509.6 81<-18 855>
LayerCount: 2
Fore
SplineSet
93.2001953125 488 m 0x98
 78.2001953125 524 70.2001953125 565 70.2001953125 608 c 0
 70.2001953125 758 157.200195312 926 281.200195312 926 c 2
 417.200195312 927 l 1
 433.200195312 927 l 1
 617.599609375 929 l 1
 640.599609375 854 l 1
 640.599609375 854 628.599609375 855 614.599609375 855 c 0
 607.599609375 855 598.599609375 855 590.599609375 854 c 5
 592.599609375 659 596.599609375 -22 596.599609375 -22 c 5
 506.91796875 -18 l 1
 509.599609375 866 l 1
 479.700195312 863 451.099609375 860 434.200195312 859 c 1xc8
 441.200195312 -16 l 1x98
 343.200195312 -13 l 1xa8
 352.200195312 325 l 1
 319.200195312 327 l 1
 182.200195312 361 123.200195312 418 93.2001953125 488 c 0x98
EndSplineSet
Validated: 1
EndChar

StartChar: periodcentered
Encoding: 183 183 118
Width: 276
VWidth: 1024
Flags: W
HStem: 289 113<98.7002 204.636>
VStem: 98.7002 110<289.063 402>
LayerCount: 2
Fore
SplineSet
89.7001953125 289 m 1
 98.7001953125 402 l 1
 208.700195312 408 l 1
 204.700195312 280 l 5
 89.7001953125 289 l 1
EndSplineSet
Validated: 1
EndChar

StartChar: cedilla
Encoding: 184 184 119
Width: 671
VWidth: 1024
Flags: W
HStem: -248 48<317.555 394.766> -104 55<365.453 413.984>
VStem: 415.3 57<-193.304 -105.768>
LayerCount: 2
Fore
SplineSet
340.299804688 0 m 0
 340.299804688 -1 344.299804688 0 350.299804688 0 c 0
 362.299804688 0 380.299804688 0 380.299804688 0 c 1
 365.299804688 -51 l 1
 370.299804688 -49 377.299804688 -49 387.299804688 -49 c 0
 465.299804688 -49 472.299804688 -49 472.299804688 -136 c 0
 472.299804688 -221 463.299804688 -248 377.299804688 -248 c 0
 316.299804688 -248 304.299804688 -240 287.299804688 -190 c 1
 332.299804688 -178 l 1
 338.299804688 -195 342.299804688 -200 348.299804688 -200 c 0
 354.299804688 -200 362.299804688 -195 374.299804688 -195 c 0
 409.299804688 -195 415.299804688 -189 415.299804688 -150 c 0
 415.299804688 -110 410.299804688 -104 377.299804688 -104 c 0
 354.299804688 -104 349.299804688 -106 345.299804688 -118 c 2
 344.299804688 -120 l 1
 309.299804688 -100 l 1
 309.299804688 -100 339.299804688 0 340.299804688 0 c 0
EndSplineSet
Validated: 1
EndChar

StartChar: Superscriptone
Encoding: 185 185 120
Width: 270
VWidth: 1024
Flags: W
HStem: 521 320
VStem: 143.5 52<526 787>
LayerCount: 2
Fore
SplineSet
195.5 521 m 1
 143.5 526 l 1
 143.5 528 l 1
 143.5 787 l 1
 71.5 779 l 1
 73.5 811 l 1
 154.5 841 l 1
 195.5 840 l 1
 195.5 523 l 1
 195.5 522 l 1
 195.5 521 l 1
EndSplineSet
Validated: 1
EndChar

StartChar: ordmasculine
Encoding: 186 186 121
Width: 407
VWidth: 1024
Flags: W
HStem: 526 48<79.2998 259.892> 539 35<159.708 340.3> 591 57<155.905 271.162> 845 60<162.882 263.106>
VStem: 90.2998 53<656.114 821.753> 279.3 58<655.404 831.614>
LayerCount: 2
Fore
SplineSet
79.2998046875 574 m 1xbc
 340.299804688 574 l 1
 340.299804688 539 l 1x7c
 79.2998046875 526 l 1
 79.2998046875 574 l 1xbc
211.299804688 648 m 0
 269.299804688 648 277.299804688 666 279.299804688 740 c 2
 279.299804688 746 l 2
 279.299804688 809 253.299804688 845 223.299804688 845 c 0
 220.299804688 845 217.299804688 845 214.299804688 844 c 0
 182.299804688 837 143.299804688 819 143.299804688 758 c 0
 143.299804688 752 143.299804688 746 144.299804688 740 c 0
 152.299804688 664 153.299804688 648 211.299804688 648 c 0
90.2998046875 748 m 1
 90.2998046875 762 l 2
 90.2998046875 822 115.299804688 905 214.299804688 905 c 0
 336.299804688 905 331.299804688 818 337.299804688 748 c 0
 338.299804688 741 337.299804688 734 337.299804688 727 c 0
 337.299804688 662 311.299804688 591 214.299804688 591 c 0
 91.2998046875 591 94.2998046875 688 90.2998046875 748 c 1
EndSplineSet
Validated: 1
EndChar

StartChar: guillemotright
Encoding: 187 187 122
Width: 601
VWidth: 1024
Flags: W
LayerCount: 2
Fore
SplineSet
272.240234375 630 m 1
 402.080078125 614 l 1
 547.080078125 332 l 1
 396.080078125 67 l 1
 280.040039062 51 l 1
 446.080078125 348 l 1
 272.240234375 630 l 1
74.099609375 630 m 1
 192.099609375 626 l 1
 341.139648438 348 l 1
 192.099609375 63 l 1
 74.099609375 67 l 1
 246.240234375 344 l 1
 74.099609375 630 l 1
EndSplineSet
Validated: 1
EndChar

StartChar: onequarter
Encoding: 188 188 123
Width: 857
VWidth: 1024
Flags: W
HStem: 150 47<571.9 703.2 761.2 817.2> 470 2<215.3 224.3>
VStem: 185.3 59<476 800> 703.2 58<43 145 194 338>
LayerCount: 2
Fore
SplineSet
221.299804688 4 m 1
 555 943 l 1
 649.900390625 914 l 1
 287.200195312 -22 l 1
 221.299804688 4 l 1
224.299804688 472 m 5
 185.299804688 476 l 5
 185.299804688 478 l 5
 185.299804688 800 l 5
 105.299804688 791 l 5
 107.299804688 830 l 5
 198.299804688 868 l 5
 244.299804688 867 l 5
 244.299804688 472 l 5
 244.299804688 470 l 5
 215.299804688 470 l 5
 215.299804688 472 l 5
 224.299804688 472 l 5
716.200195312 437 m 1
 761.200195312 433 l 1
 761.200195312 422 l 1
 763.200195312 421 l 1
 761.200195312 419 l 1
 761.200195312 193 l 1
 817.200195312 191 l 1
 817.200195312 144 l 1
 761.200195312 145 l 1
 761.200195312 43 l 1
 704.200195312 33 l 1
 703.200195312 147 l 1
 552.400390625 150 l 1
 493.900390625 150 l 1
 493.900390625 191 l 1
 715.200195312 432 l 1
 716.200195312 437 l 1
571.900390625 197 m 1
 703.200195312 194 l 1
 703.200195312 329 l 1
 704.200195312 338 l 1
 571.900390625 197 l 1
EndSplineSet
Validated: 1
EndChar

StartChar: onehalf
Encoding: 189 189 124
Width: 821
VWidth: 1024
Flags: HMW
LayerCount: 2
Fore
SplineSet
159 456 m 0
 153 456 l 1
 152.700195312 800 l 1
 63.7001953125 790 l 1
 66.7001953125 831 l 1
 167.700195312 872 l 1
 217.700195312 871 l 1
 218 453 l 1
 218 453 213.111328125 452.888671875 206.037109375 452.888671875 c 0
 191.888671875 452.888671875 169 453 159 456 c 0
524 293 m 1
 524 293 464 304 464 308 c 0
 464 393 451.900390625 425 579.700195312 425 c 0
 710.599609375 425 727.599609375 407 727.599609375 290 c 0
 726.599609375 228 714.599609375 211 641.95703125 162 c 1
 578.314453125 111 569.671875 119 568.099609375 51 c 1
 740 47 l 1
 758 0 l 1
 568.099609375 0 l 1
 494.099609375 0 l 1
 494 25 l 2
 494 142 497.099609375 121 577.528320312 173 c 1
 650.599609375 231 661.599609375 247 661.599609375 295 c 0
 661.599609375 370 651.200195312 382 582.299804688 382 c 0
 510.799804688 382 527 350 527 350 c 1
 524 293 l 1
213.099609375 -4 m 1
 413.900390625 935 l 1
 488.599609375 906 l 1
 269.099609375 -30 l 1
 213.099609375 -4 l 1
EndSplineSet
Validated: 33
EndChar

StartChar: threequarters
Encoding: 190 190 125
Width: 850
VWidth: 1024
Flags: W
HStem: 2 21G<214.863 273.49> 145 48<532.24 676.54 741.54 802.54> 523 42<127.181 235.614> 692 38<142.6 227.351> 845 38<121.91 233.968>
VStem: 67.5996 54<568.562 616 817 842.335> 237.14 63.7002<735.182 842.598> 241.04 74.0996<567.386 687.826> 676.54 65<35 139 189 336>
LayerCount: 2
Fore
SplineSet
67.599609375 618 m 1xfd80
 121.599609375 616 l 1
 124.599609375 572 132.599609375 565 180.599609375 565 c 0
 231.940429688 565 241.040039062 573 241.040039062 628 c 0xfd80
 241.040039062 684 229.33984375 692 169.599609375 692 c 2
 142.599609375 692 l 1
 142.599609375 713 l 1
 141.599609375 730 l 1
 172.599609375 730 l 2
 217.599609375 730 225.440429688 738 234.540039062 787 c 0
 235.83984375 796 237.139648438 803 237.139648438 810 c 0
 237.139648438 840 219.599609375 845 171.599609375 845 c 0
 129.599609375 845 122.599609375 841 119.599609375 815 c 1
 67.599609375 817 l 1
 74.599609375 874 88.599609375 883 173.599609375 883 c 0
 268.33984375 883 300.83984375 875 300.83984375 826 c 0xfe80
 300.83984375 816 299.540039062 804 296.940429688 791 c 0
 287.83984375 738 277.440429688 726 221.599609375 715 c 1
 300.83984375 702 315.139648438 688 315.139648438 626 c 0
 315.139648438 537 294.33984375 523 180.599609375 523 c 0
 88.599609375 523 74.599609375 536 67.599609375 618 c 1xfd80
199.599609375 28 m 1
 533.540039062 967 l 1
 628.440429688 938 l 1
 265.740234375 2 l 1
 199.599609375 28 l 1
690.540039062 437 m 1
 741.540039062 433 l 1
 741.540039062 422 l 1
 743.540039062 421 l 1
 741.540039062 418 l 1
 741.540039062 187 l 1
 802.540039062 186 l 1
 802.540039062 138 l 1
 741.540039062 139 l 1
 741.540039062 35 l 1
 677.540039062 25 l 1
 677.540039062 141 l 1
 510.139648438 145 l 1
 446.440429688 144 l 1
 446.440429688 186 l 1
 690.540039062 432 l 1
 690.540039062 437 l 1
532.240234375 193 m 1
 676.540039062 189 l 1
 676.540039062 327 l 1
 677.540039062 336 l 1
 532.240234375 193 l 1
EndSplineSet
Validated: 1
EndChar

StartChar: questiondown
Encoding: 191 191 126
Width: 696
VWidth: 1024
Flags: W
HStem: -245 81<259.314 497.294> 588 109<286.356 388> 687 20G<265.705 409>
VStem: 71.5 114<-93.1953 102.35> 283.94 105.3<269.73 489 588 630.777> 285.24 127.423<265.104 488.656> 543.84 105<-110.57 6.62767>
LayerCount: 2
Fore
SplineSet
409 697 m 1xd2
 388 588 l 1xd2
 275 578 l 1
 264 707 l 1xb2
 409 697 l 1xd2
648.83984375 5 m 1
 630.83984375 -207 595.83984375 -245 364.900390625 -245 c 0
 361 -245 358.400390625 -245 354.5 -245 c 0
 168.5 -244 71.5 -211 71.5 1 c 2
 71.5 10 l 1
 71.5 49 l 2
 71.5 140 81.5 141 197.200195312 222 c 0
 260.900390625 257 283.940429688 284 285.240234375 344 c 0
 285.240234375 350 285.240234375 358 285.240234375 365 c 0x96
 285.240234375 396 283.940429688 436 283.940429688 489 c 1
 389.240234375 489 l 1
 389.240234375 467 l 2x9a
 389.240234375 399 408 347 408 311 c 0
 414.106996984 293.896502493 415.861233652 280.386578501 415.861233652 269.203762121 c 0
 415.861233652 254.104952794 412.663287121 243.24842494 412.663287121 233.516954477 c 0x96
 412.663287121 199.044884616 379.237273776 195.254208809 297.299804688 151 c 0
 189.400390625 93 185.5 94 185.5 25 c 2
 185.5 10 l 2
 185.5 -136 272.599609375 -148 354.5 -159 c 0
 376.599609375 -162 398.700195312 -164 415.599609375 -164 c 0
 512.83984375 -164 531.83984375 -110 543.83984375 24 c 1
 648.83984375 5 l 1
EndSplineSet
Validated: 1
EndChar

StartChar: Agrave
Encoding: 192 192 127
Width: 915
VWidth: 1024
Flags: W
HStem: 184 95<281.34 681.74> 193 87<281.34 681.74>
LayerCount: 2
Fore
SplineSet
398.33984375 1007 m 1x00
 268.33984375 1157 l 1
 441.240234375 1130 l 1
 528.33984375 1007 l 1
 398.33984375 1007 l 1x00
59.7998046875 6 m 1
 382.740234375 928 l 1
 553.040039062 927 l 1
 870.780273438 5 l 1
 778.780273438 -26 l 1
 703.83984375 193 l 1x40
 231.940429688 184 l 1x80
 167.799804688 -22 l 1
 59.7998046875 6 l 1
281.33984375 279 m 1x80
 681.740234375 280 l 1x40
 468.540039062 779 l 1
 281.33984375 279 l 1x80
EndSplineSet
Validated: 1
EndChar

StartChar: Aacute
Encoding: 193 193 128
Width: 915
VWidth: 1024
Flags: W
HStem: 184 95<281.34 681.74> 193 87<281.34 681.74>
LayerCount: 2
Fore
SplineSet
382.740234375 991 m 1x00
 481.540039062 1135 l 1
 657.040039062 1157 l 1
 528.33984375 1007 l 1
 382.740234375 991 l 1x00
59.7998046875 6 m 1
 382.740234375 928 l 1
 553.040039062 927 l 1
 870.780273438 5 l 1
 778.780273438 -26 l 1
 703.83984375 193 l 1x40
 231.940429688 184 l 1x80
 167.799804688 -22 l 1
 59.7998046875 6 l 1
281.33984375 279 m 1x80
 681.740234375 280 l 1x40
 468.540039062 779 l 1
 281.33984375 279 l 1x80
EndSplineSet
Validated: 1
EndChar

StartChar: Acircumflex
Encoding: 194 194 129
Width: 915
VWidth: 1024
Flags: W
HStem: 184 95<281.34 681.74> 193 87<281.34 681.74>
LayerCount: 2
Fore
SplineSet
463.33984375 1071 m 1x00
 373.639648438 989 l 1
 238.440429688 1007 l 1
 411.33984375 1139 l 1
 534.83984375 1157 l 1
 686.940429688 1007 l 1
 556.940429688 1007 l 1
 463.33984375 1071 l 1x00
59.7998046875 6 m 1
 382.740234375 928 l 1
 553.040039062 927 l 1
 870.780273438 5 l 1
 778.780273438 -26 l 1
 703.83984375 193 l 1x40
 231.940429688 184 l 1x80
 167.799804688 -22 l 1
 59.7998046875 6 l 1
281.33984375 279 m 1x80
 681.740234375 280 l 1x40
 468.540039062 779 l 1
 281.33984375 279 l 1x80
EndSplineSet
Validated: 1
EndChar

StartChar: Atilde
Encoding: 195 195 130
Width: 915
VWidth: 1024
Flags: W
HStem: 184 95<281.34 681.74> 193 87<281.34 681.74> 990 88<483.257 588.505> 1081 76<358.242 447.251>
VStem: 250.14 105.301<1007 1080.67> 594.64 106.601<1082.24 1138>
LayerCount: 2
Fore
SplineSet
355.440429688 1007 m 1x3c
 250.139648438 1007 l 1
 250.139648438 1145 267.040039062 1157 373.639648438 1157 c 0
 516.639648438 1157 445.139648438 1078 542.639648438 1078 c 0
 567.33984375 1078 594.639648438 1081 594.639648438 1144 c 1
 701.240234375 1138 l 1
 701.240234375 1000 685.639648438 990 577.740234375 990 c 0
 434.740234375 990 480.240234375 1081 382.740234375 1081 c 0
 359.33984375 1081 355.440429688 1070 355.440429688 1007 c 1x3c
59.7998046875 6 m 1
 382.740234375 928 l 1
 553.040039062 927 l 1
 870.780273438 5 l 1
 778.780273438 -26 l 1
 703.83984375 193 l 1x7c
 231.940429688 184 l 1xbc
 167.799804688 -22 l 1
 59.7998046875 6 l 1
281.33984375 279 m 1xbc
 681.740234375 280 l 1x7c
 468.540039062 779 l 1
 281.33984375 279 l 1xbc
EndSplineSet
Validated: 1
EndChar

StartChar: Adieresis
Encoding: 196 196 131
Width: 915
VWidth: 1024
Flags: W
HStem: 184 95<281.34 681.74> 193 87<281.34 681.74> 1007 117<309.94 436.04>
VStem: 504.94 139.1<1015 1126>
LayerCount: 2
Fore
SplineSet
504.940429688 1015 m 1x30
 504.940429688 1134 l 1
 644.040039062 1126 l 1
 644.040039062 1007 l 1
 504.940429688 1015 l 1x30
281.33984375 1007 m 1
 309.940429688 1124 l 1
 436.040039062 1126 l 1
 436.040039062 1007 l 1
 281.33984375 1007 l 1
59.7998046875 6 m 1
 382.740234375 928 l 1
 553.040039062 927 l 1
 870.780273438 5 l 1
 778.780273438 -26 l 1
 703.83984375 193 l 1x70
 231.940429688 184 l 1xb0
 167.799804688 -22 l 1
 59.7998046875 6 l 1
281.33984375 279 m 1xb0
 681.740234375 280 l 1x70
 468.540039062 779 l 1
 281.33984375 279 l 1xb0
EndSplineSet
Validated: 1
EndChar

StartChar: Aring
Encoding: 197 197 132
Width: 915
VWidth: 1024
Flags: W
HStem: 184 95<281.34 681.74> 193 87<281.34 681.74> 1014 43<419.414 505.495> 1130 44<421.317 507.218>
VStem: 356.74 62.3994<1057.61 1128.56> 507.54 63.7002<1057.42 1129.73>
LayerCount: 2
Fore
SplineSet
281.33984375 279 m 1xbc
 681.740234375 280 l 1x7c
 468.540039062 779 l 1
 281.33984375 279 l 1xbc
59.7998046875 6 m 1
 382.740234375 928 l 1
 553.040039062 927 l 1
 870.780273438 5 l 1
 778.780273438 -26 l 1
 703.83984375 193 l 1x7c
 231.940429688 184 l 1xbc
 167.799804688 -22 l 1
 59.7998046875 6 l 1
356.740234375 1086 m 0
 356.740234375 1165 367.139648438 1174 471.139648438 1174 c 0
 568.639648438 1174 571.240234375 1166 571.240234375 1097 c 2
 571.240234375 1059 l 2
 571.240234375 1019 568.639648438 1014 527.040039062 1014 c 2
 412.639648438 1014 l 2
 359.33984375 1014 356.740234375 1023 356.740234375 1086 c 0
460.740234375 1057 m 0
 501.040039062 1057 506.240234375 1059 506.240234375 1094 c 0
 506.240234375 1105 507.540039062 1112 507.540039062 1118 c 0
 507.540039062 1130 502.33984375 1130 476.33984375 1130 c 0
 436.040039062 1130 419.139648438 1128 419.139648438 1094 c 0
 419.139648438 1059 419.139648438 1057 460.740234375 1057 c 0
EndSplineSet
Validated: 1
EndChar

StartChar: AE
Encoding: 198 198 133
Width: 1346
VWidth: 1024
Flags: W
HStem: -26 113<836.84 1282.18> 193 87<499.594 703.84> 350 99<836.84 1252.18> 823 96<836.84 1272.18>
VStem: 703.84 133<280 357 441 823> 717.84 119<-26 -25 79 193>
LayerCount: 2
Fore
SplineSet
363.240234375 295 m 1xf8
 703.83984375 280 l 1
 711.83984375 823 l 1
 363.240234375 295 l 1xf8
58.5 8 m 1
 589.440429688 918 l 1
 716.83984375 919 l 1
 835.83984375 919 l 1
 1272.1796875 919 l 1
 1272.1796875 816 l 1
 1103.33984375 816 1026.63964844 822 836.83984375 823 c 1
 836.83984375 441 l 1
 1247.1796875 449 l 1
 1252.1796875 449 l 1
 1252.1796875 399 l 1
 1252.1796875 350 l 1
 1247.1796875 350 l 1
 836.83984375 357 l 1xf8
 836.83984375 79 l 1
 1047.44042969 79 1118.94042969 87 1282.1796875 87 c 1
 1282.1796875 88 1282.1796875 88 1284.1796875 87 c 0
 1287.1796875 88 1287.1796875 88 1287.1796875 87 c 2
 1287.1796875 31 l 1
 1287.1796875 -26 l 1
 1117.63964844 -26 1050.04003906 -25 834.83984375 -25 c 1
 834.83984375 -26 l 1
 717.83984375 -26 l 1
 717.83984375 193 l 1xf4
 618.040039062 190 300.83984375 178 300.83984375 178 c 1
 164.5 -22 l 1
 58.5 8 l 1
EndSplineSet
Validated: 1
EndChar

StartChar: Ccedilla
Encoding: 199 199 134
Width: 771
VWidth: 1024
Flags: W
HStem: -248 53<429.268 520.432> -104 55<465.649 520.216> -15 5<336.318 423.562> -9 102<403.335 700.309> 840 101<328.572 701.423>
VStem: 76.7002 127<240.291 694.625> 521.6 61<-193.855 -104.98>
LayerCount: 2
Fore
SplineSet
427.299804688 -14 m 1
 361 -12 336.299804688 -11 336.299804688 -10 c 2
 358.400390625 -10 l 2
 414.299804688 -10 549.599609375 -12 549.599609375 -14 c 0
 549.599609375 -15 531.599609375 -15 480.599609375 -15 c 2
 479.299804688 -15 l 1
 465 -51 l 1
 471.5 -50 480.599609375 -49 493.599609375 -49 c 0
 570.599609375 -49 582.599609375 -63 582.599609375 -150 c 0
 582.599609375 -235 569.599609375 -248 480.599609375 -248 c 0
 401.299804688 -248 385.700195312 -240 363.599609375 -190 c 1
 422.099609375 -155 l 1
 437.700195312 -190 445.5 -195 476.700195312 -195 c 0
 515.599609375 -195 521.599609375 -189 521.599609375 -150 c 0
 521.599609375 -110 516.599609375 -104 480.599609375 -104 c 0
 450.700195312 -104 442.900390625 -106 439 -118 c 2
 437.700195312 -120 l 1
 392.200195312 -100 l 1
 427.299804688 -14 l 1
697.599609375 97 m 2
 717.599609375 -1 l 2
 716.599609375 -8 687.599609375 -9 503.599609375 -9 c 0
 134.700195312 -9 76.7001953125 86 76.7001953125 411 c 2
 76.7001953125 465 l 1
 82.7001953125 833 130.700195312 941 485.799804688 941 c 2
 503.599609375 941 l 2
 689.599609375 938 718.599609375 938 718.599609375 937 c 2
 696.599609375 840 l 2
 696.599609375 839 690.599609375 838 662.599609375 838 c 0
 635.599609375 838 587.599609375 839 503.599609375 840 c 2
 493.599609375 840 l 2
 250.5 840 210.200195312 754 203.700195312 465 c 1
 203.700195312 414 l 2
 203.700195312 166 296 143 503.599609375 93 c 1
 670.599609375 93 696.599609375 94 697.599609375 97 c 2
EndSplineSet
Validated: 1
EndChar

StartChar: Egrave
Encoding: 200 200 135
Width: 718
VWidth: 1024
Flags: W
HStem: 4 105<212.6 662.94> 853 96<212.6 647.94>
VStem: 93.5996 119<109 380 471 853>
LayerCount: 2
Fore
SplineSet
210.599609375 4 m 1
 208.599609375 4 l 1
 93.599609375 4 l 1
 93.599609375 949 l 1
 647.940429688 949 l 1
 647.940429688 846 l 1
 479.099609375 846 402.400390625 852 212.599609375 853 c 1
 212.599609375 471 l 1
 627.940429688 496 l 1
 627.940429688 466 624.940429688 427 624.940429688 397 c 1
 212.599609375 380 l 1
 212.599609375 109 l 1
 423.200195312 109 501.200195312 117 662.940429688 117 c 1
 662.940429688 4 l 1
 210.599609375 4 l 1
337.400390625 1007 m 1
 209.599609375 1157 l 1
 394.599609375 1157 l 1
 467.400390625 1007 l 1
 337.400390625 1007 l 1
EndSplineSet
Validated: 1
EndChar

StartChar: Eacute
Encoding: 201 201 136
Width: 719
VWidth: 1024
Flags: W
HStem: 0 103<212.6 657.94> 369 97<212.6 627.94> 833 94<212.6 647.94> 1007 148<397.2 475.2>
VStem: 93.5996 119<103 376 458 833>
LayerCount: 2
Fore
SplineSet
353 1007 m 1
 397.200195312 1155 l 1
 587.940429688 1157 l 1
 475.200195312 1011 l 1
 353 1007 l 1
93.599609375 0 m 1
 93.599609375 927 l 1
 211.599609375 927 l 1
 212.599609375 927 l 1
 647.940429688 927 l 1
 647.940429688 826 l 1
 479.099609375 826 402.400390625 832 212.599609375 833 c 1
 212.599609375 458 l 1
 623.940429688 466 l 1
 627.940429688 466 l 1
 627.940429688 417 l 1
 627.940429688 369 l 1
 623.940429688 369 l 1
 212.599609375 376 l 1
 212.599609375 103 l 1
 419.299804688 103 496 111 657.940429688 111 c 1
 657.940429688 112 657.940429688 112 659.940429688 111 c 0
 662.940429688 112 662.940429688 112 662.940429688 111 c 2
 662.940429688 56 l 1
 662.940429688 0 l 1
 210.599609375 0 l 1
 93.599609375 0 l 1
EndSplineSet
Validated: 1
EndChar

StartChar: Ecircumflex
Encoding: 202 202 137
Width: 719
VWidth: 1024
Flags: W
HStem: 0 103<212.6 657.94> 369 97<212.6 627.94> 833 94<212.6 647.94>
VStem: 93.5996 119<103 376 458 833>
LayerCount: 2
Fore
SplineSet
418 1071 m 1
 311.400390625 1001 l 1
 198.599609375 1027 l 1
 356.900390625 1147 l 1
 453.099609375 1149 l 1
 610.940429688 1007 l 1
 510.940429688 1007 l 1
 418 1071 l 1
93.599609375 0 m 1
 93.599609375 927 l 1
 211.599609375 927 l 1
 212.599609375 927 l 1
 647.940429688 927 l 1
 647.940429688 826 l 1
 479.099609375 826 402.400390625 832 212.599609375 833 c 1
 212.599609375 458 l 1
 623.940429688 466 l 1
 627.940429688 466 l 1
 627.940429688 417 l 1
 627.940429688 369 l 1
 623.940429688 369 l 1
 212.599609375 376 l 1
 212.599609375 103 l 1
 423.200195312 103 494.700195312 111 657.940429688 111 c 1
 657.940429688 112 657.940429688 112 659.940429688 111 c 0
 662.940429688 112 662.940429688 112 662.940429688 111 c 2
 662.940429688 56 l 1
 662.940429688 0 l 1
 210.599609375 0 l 1
 93.599609375 0 l 1
EndSplineSet
Validated: 1
EndChar

StartChar: Edieresis
Encoding: 203 203 138
Width: 719
VWidth: 1024
Flags: W
HStem: 0 103<212.6 657.94> 369 97<212.6 627.94> 833 94<212.6 647.94> 1007 101<251.6 321.761> 1021 105<455.7 534.882>
VStem: 93.5996 119<103 376 458 833> 251.6 140.4<1049.76 1108> 445.3 133.641<1035.19 1126> 455.7 123.24<1021 1111.81>
LayerCount: 2
Fore
SplineSet
455.700195312 1021 m 1xee80
 445.299804688 1126 l 1
 578.940429688 1126 l 1xef
 578.940429688 1007 l 1xf680
 455.700195312 1021 l 1xee80
236 1007 m 1xf6
 251.599609375 1108 l 1xf6
 392 1126 l 1xee
 392 1007 l 1
 236 1007 l 1xf6
93.599609375 0 m 1
 93.599609375 927 l 1
 211.599609375 927 l 1
 212.599609375 927 l 1
 647.940429688 927 l 1
 647.940429688 826 l 1
 479.099609375 826 402.400390625 832 212.599609375 833 c 1
 212.599609375 458 l 1
 623.940429688 466 l 1
 627.940429688 466 l 1
 627.940429688 417 l 1
 627.940429688 369 l 1
 623.940429688 369 l 1
 212.599609375 376 l 1
 212.599609375 103 l 1
 423.200195312 103 494.700195312 111 657.940429688 111 c 1
 657.940429688 112 657.940429688 112 659.940429688 111 c 0
 662.940429688 112 662.940429688 112 662.940429688 111 c 2
 662.940429688 56 l 1
 662.940429688 0 l 1
 210.599609375 0 l 1
 93.599609375 0 l 1
EndSplineSet
Validated: 1
EndChar

StartChar: Igrave
Encoding: 204 204 139
Width: 310
VWidth: 1024
Flags: W
HStem: 1 21G<170.8 229.8> 910 20G<99.7998 217.8>
VStem: 99.7998 118<235.882 924> 111.8 118<4 689.869>
LayerCount: 2
Fore
SplineSet
120.799804688 1007 m 1xc0
 46.7998046875 1137 l 1
 163.799804688 1157 l 1
 220.799804688 1007 l 1
 120.799804688 1007 l 1xc0
170.799804688 3 m 1
 111.799804688 4 l 1xd0
 99.7998046875 919 l 1
 99.7998046875 924 l 1
 99.7998046875 930 l 1
 217.799804688 924 l 1xe0
 229.799804688 6 l 1
 229.799804688 1 l 1xd0
 170.799804688 1 l 1
 170.799804688 3 l 1
EndSplineSet
Validated: 1
EndChar

StartChar: Iacute
Encoding: 205 205 140
Width: 295
VWidth: 1024
Flags: W
HStem: 1 21G<155.9 214.9> 910 20G<84.9004 202.9>
VStem: 84.9004 118<235.882 924> 96.9004 118<4 689.869>
LayerCount: 2
Fore
SplineSet
81.900390625 1007 m 1xc0
 137.900390625 1157 l 1
 264.900390625 1119 l 1
 181.900390625 1007 l 1
 81.900390625 1007 l 1xc0
155.900390625 3 m 1
 96.900390625 4 l 1xd0
 84.900390625 919 l 1
 84.900390625 924 l 1
 84.900390625 930 l 1
 202.900390625 924 l 1xe0
 214.900390625 6 l 1
 214.900390625 1 l 1xd0
 155.900390625 1 l 1
 155.900390625 3 l 1
EndSplineSet
Validated: 1
EndChar

StartChar: Icircumflex
Encoding: 206 206 141
Width: 423
VWidth: 1024
Flags: W
HStem: 1 21G<213.8 272.8> 910 20G<142.8 260.8>
VStem: 142.8 118<235.882 924> 154.8 118<4 689.869>
LayerCount: 2
Fore
SplineSet
213.799804688 1071 m 1xc0
 140.799804688 1007 l 1
 46.7998046875 993 l 1
 165.799804688 1143 l 1
 246.799804688 1159 l 1
 385.799804688 1007 l 1
 281.799804688 1009 l 1
 213.799804688 1071 l 1xc0
213.799804688 3 m 1
 154.799804688 4 l 1xd0
 142.799804688 919 l 1
 142.799804688 924 l 1
 142.799804688 930 l 1
 260.799804688 924 l 1xe0
 272.799804688 6 l 1
 272.799804688 1 l 1xd0
 213.799804688 1 l 1
 213.799804688 3 l 1
EndSplineSet
Validated: 1
EndChar

StartChar: Idieresis
Encoding: 207 207 142
Width: 365
VWidth: 1024
Flags: W
HStem: 1 21G<188.1 247.1> 910 20G<117.1 235.1> 1007 119<64.0996 167.1 218.26 327.1> 1007 111<64.0996 154.16 208.1 311.899>
VStem: 48.0996 119<1007 1069.4> 64.0996 103<1055.6 1118> 117.1 118<235.882 924> 129.1 118<4 689.869> 208.1 119<1007 1116>
LayerCount: 2
Fore
SplineSet
208.099609375 1007 m 1xd080
 206.099609375 1116 l 1
 327.099609375 1126 l 1
 327.099609375 1007 l 1xe080
 208.099609375 1007 l 1xd080
48.099609375 1007 m 1xd8
 64.099609375 1118 l 1xd4
 167.099609375 1126 l 1xe4
 167.099609375 1007 l 1xe8
 48.099609375 1007 l 1xd8
188.099609375 3 m 1
 129.099609375 4 l 1xc1
 117.099609375 919 l 1
 117.099609375 924 l 1
 117.099609375 930 l 1
 235.099609375 924 l 1xc2
 247.099609375 6 l 1
 247.099609375 1 l 1xc1
 188.099609375 1 l 1
 188.099609375 3 l 1
EndSplineSet
Validated: 1
EndChar

StartChar: Eth
Encoding: 208 208 143
Width: 970
VWidth: 1024
Flags: W
HStem: 0 96<271 694.154> 384 104<65 156> 384 93<266 437.4> 830 97<259 689.169>
VStem: 154 117<97 384 483 807.463> 772.8 127<189.115 748.612>
LayerCount: 2
Fore
SplineSet
213 0 m 1xdc
 154 0 l 1
 154 5 l 1
 156 384 l 1
 65 384 l 1
 65 488 l 1
 157 483 l 1
 159 927 l 1
 208 927 l 1
 257 927 l 1
 424.400390625 927 l 2
 847.799804688 927 899.799804688 908 899.799804688 589 c 0
 899.799804688 551 898.799804688 510 897.799804688 463 c 0
 888.799804688 10 880.799804688 0 463.400390625 0 c 2
 273.599609375 0 l 1
 269 0 l 1
 213 0 l 1xdc
271 97 m 1
 346.400390625 97 375 96 451.700195312 96 c 0
 754.599609375 96 761.099609375 104 770.200195312 463 c 0
 771.5 504 772.799804688 540 772.799804688 573 c 0
 772.799804688 816 724.700195312 830 430.900390625 830 c 2
 259 830 l 1
 259 830 262 662 265 477 c 1
 437.400390625 470 l 1
 437.400390625 384 l 1
 266 384 l 1xbc
 268 275 270 170 271 97 c 1
EndSplineSet
Validated: 1
EndChar

StartChar: Ntilde
Encoding: 209 209 144
Width: 874
VWidth: 1024
Flags: W
HStem: 0 21G<93.5996 222.1> 914 21G<94.5781 144.6 686.394 797> 992 72<471.988 564.092> 1081 86<281.131 410.052>
VStem: 93.5996 128.5<0 317.288> 94.5996 108<369.712 682> 181.6 89.9004<1021 1072.89> 574.4 74.0996<1069.65 1134> 694 107<130 925>
LayerCount: 2
Fore
SplineSet
271.5 1021 m 1xf380
 181.599609375 1017 l 1
 181.599609375 1155 236.400390625 1167 344.299804688 1167 c 0
 487.299804688 1167 434 1064 531.5 1064 c 0
 554.900390625 1064 574.400390625 1087 574.400390625 1150 c 1
 648.5 1134 l 1
 648.5 996 629 992 522.400390625 992 c 0
 379.400390625 992 449.599609375 1081 353.400390625 1081 c 2
 344.299804688 1081 l 2
 315.700195312 1081 271.5 1078 271.5 1021 c 1xf380
686.200195312 934 m 1
 797 925 l 1
 801 -1 l 1
 764 0 l 1
 616 -7 l 1
 202.599609375 682 l 5xf580
 222.099609375 5 l 1
 222.099609375 0 l 1
 155.599609375 0 l 1
 93.599609375 0 l 1
 93.599609375 5 l 1xf980
 94.599609375 935 l 1xf580
 144.599609375 922 l 1
 232.5 914 l 1
 694 130 l 1
 686.200195312 934 l 1
EndSplineSet
Validated: 1
EndChar

StartChar: Ograve
Encoding: 210 210 145
Width: 916
VWidth: 1024
Flags: W
HStem: -15 102<298.525 644.196> 840 101<302.658 601.902> 1007 123<460.71 539.1>
VStem: 76.7002 127<192.122 720.346> 722.4 127<167.247 652.688>
LayerCount: 2
Fore
SplineSet
432.5 1007 m 1
 303.799804688 1157 l 1
 539.099609375 1130 l 1
 563.799804688 1007 l 1
 432.5 1007 l 1
459.799804688 87 m 2
 479.299804688 87 l 2
 669.099609375 87 722.400390625 127 722.400390625 334 c 0
 722.400390625 372 719.799804688 414 717.200195312 463 c 0
 697.700195312 773 652.200195312 840 459.799804688 840 c 0
 249.200195312 840 203.700195312 773 203.700195312 463 c 0
 203.700195312 141 238.799804688 90 459.799804688 87 c 2
76.7001953125 463 m 0
 76.7001953125 856 134.700195312 941 459.799804688 941 c 0
 768.400390625 941 826.400390625 856 845.400390625 463 c 0
 847.400390625 410 849.400390625 363 849.400390625 321 c 0
 849.400390625 40 787.400390625 -15 498.799804688 -15 c 2
 459.799804688 -15 l 1
 120.700195312 -9 76.7001953125 56 76.7001953125 463 c 0
EndSplineSet
Validated: 1
EndChar

StartChar: Oacute
Encoding: 211 211 146
Width: 916
VWidth: 1024
Flags: W
HStem: -15 102<298.525 644.196> 840 101<302.658 601.902>
VStem: 76.7002 127<192.122 720.346> 722.4 127<167.247 652.688>
LayerCount: 2
Fore
SplineSet
355.799804688 1007 m 1
 428.599609375 1157 l 1
 598.900390625 1133 l 1
 485.799804688 1007 l 1
 355.799804688 1007 l 1
459.799804688 87 m 2
 479.299804688 87 l 2
 669.099609375 87 722.400390625 127 722.400390625 334 c 0
 722.400390625 372 719.799804688 414 717.200195312 463 c 0
 697.700195312 773 652.200195312 840 459.799804688 840 c 0
 249.200195312 840 203.700195312 773 203.700195312 463 c 0
 203.700195312 141 238.799804688 90 459.799804688 87 c 2
76.7001953125 463 m 0
 76.7001953125 856 134.700195312 941 459.799804688 941 c 0
 768.400390625 941 826.400390625 856 845.400390625 463 c 0
 847.400390625 410 849.400390625 363 849.400390625 321 c 0
 849.400390625 40 787.400390625 -15 498.799804688 -15 c 2
 459.799804688 -15 l 1
 120.700195312 -9 76.7001953125 56 76.7001953125 463 c 0
EndSplineSet
Validated: 1
EndChar

StartChar: Ocircumflex
Encoding: 212 212 147
Width: 916
VWidth: 1024
Flags: W
HStem: -15 102<298.525 644.196> 840 101<302.658 601.902>
VStem: 76.7002 127<192.122 720.346> 722.4 127<167.247 652.688>
LayerCount: 2
Fore
SplineSet
431.200195312 1071 m 1
 359.700195312 1007 l 1
 229.700195312 1007 l 1
 381.799804688 1157 l 1
 526.099609375 1157 l 1
 678.200195312 1007 l 1
 548.200195312 1007 l 1
 431.200195312 1071 l 1
459.799804688 87 m 2
 479.299804688 87 l 2
 669.099609375 87 722.400390625 127 722.400390625 334 c 0
 722.400390625 372 719.799804688 414 717.200195312 463 c 0
 697.700195312 773 652.200195312 840 459.799804688 840 c 0
 249.200195312 840 203.700195312 773 203.700195312 463 c 0
 203.700195312 141 238.799804688 90 459.799804688 87 c 2
76.7001953125 463 m 0
 76.7001953125 856 134.700195312 941 459.799804688 941 c 0
 768.400390625 941 826.400390625 856 845.400390625 463 c 0
 847.400390625 410 849.400390625 363 849.400390625 321 c 0
 849.400390625 40 787.400390625 -15 498.799804688 -15 c 2
 459.799804688 -15 l 1
 120.700195312 -9 76.7001953125 56 76.7001953125 463 c 0
EndSplineSet
Validated: 1
EndChar

StartChar: Otilde
Encoding: 213 213 148
Width: 916
VWidth: 1024
Flags: W
HStem: -15 102<298.525 644.196> 840 101<302.658 601.902> 992 86<437.546 530.513> 1081 80<264.15 403.42>
VStem: 76.7002 127<192.122 720.346> 212.8 105.3<1007 1080.8> 533.9 105.3<1081.48 1152> 722.4 127<167.247 652.688>
LayerCount: 2
Fore
SplineSet
318.099609375 1007 m 1
 212.799804688 1007 l 1
 212.799804688 1070 l 2
 212.799804688 1150 220.599609375 1161 307.700195312 1161 c 0
 450.700195312 1161 409.099609375 1078 505.299804688 1078 c 0
 530 1078 533.900390625 1089 533.900390625 1152 c 1
 639.200195312 1152 l 1
 639.200195312 1014 622.299804688 992 514.400390625 992 c 0
 371.400390625 992 442.900390625 1081 345.400390625 1081 c 0
 322 1081 318.099609375 1070 318.099609375 1007 c 1
459.799804688 87 m 2
 479.299804688 87 l 2
 669.099609375 87 722.400390625 127 722.400390625 334 c 0
 722.400390625 372 719.799804688 414 717.200195312 463 c 0
 697.700195312 773 652.200195312 840 459.799804688 840 c 0
 249.200195312 840 203.700195312 773 203.700195312 463 c 0
 203.700195312 141 238.799804688 90 459.799804688 87 c 2
76.7001953125 463 m 0
 76.7001953125 856 134.700195312 941 459.799804688 941 c 0
 768.400390625 941 826.400390625 856 845.400390625 463 c 0
 847.400390625 410 849.400390625 363 849.400390625 321 c 0
 849.400390625 40 787.400390625 -15 498.799804688 -15 c 2
 459.799804688 -15 l 1
 120.700195312 -9 76.7001953125 56 76.7001953125 463 c 0
EndSplineSet
Validated: 1
EndChar

StartChar: Odieresis
Encoding: 214 214 149
Width: 916
VWidth: 1024
Flags: W
HStem: -15 102<298.525 644.196> 840 101<302.658 601.902> 1007 119<296 437.7 504 645.7>
VStem: 76.7002 127<192.122 720.346> 283 154.7<1007 1092.11> 296 141.7<1044.89 1126> 491 154.7<1046.43 1126> 504 141.7<1011 1090.57> 722.4 127<167.247 652.688>
LayerCount: 2
Fore
SplineSet
504 1011 m 1xf180
 491 1126 l 1
 645.700195312 1126 l 1xf280
 645.700195312 1007 l 1
 504 1011 l 1xf180
283 1007 m 1xf880
 296 1130 l 1
 437.700195312 1126 l 1xf480
 437.700195312 1007 l 1
 283 1007 l 1xf880
459.799804688 87 m 2
 479.299804688 87 l 2
 669.099609375 87 722.400390625 127 722.400390625 334 c 0
 722.400390625 372 719.799804688 414 717.200195312 463 c 0
 697.700195312 773 652.200195312 840 459.799804688 840 c 0
 249.200195312 840 203.700195312 773 203.700195312 463 c 0
 203.700195312 141 238.799804688 90 459.799804688 87 c 2
76.7001953125 463 m 0
 76.7001953125 856 134.700195312 941 459.799804688 941 c 0
 768.400390625 941 826.400390625 856 845.400390625 463 c 0
 847.400390625 410 849.400390625 363 849.400390625 321 c 0
 849.400390625 40 787.400390625 -15 498.799804688 -15 c 2
 459.799804688 -15 l 1
 120.700195312 -9 76.7001953125 56 76.7001953125 463 c 0
EndSplineSet
Validated: 1
EndChar

StartChar: multiply
Encoding: 215 215 150
Width: 694
VWidth: 1024
Flags: W
HStem: 681 20G<496.611 566.233>
LayerCount: 2
Fore
SplineSet
513.879882812 701 m 1
 602.879882812 667 l 1
 434.740234375 425 l 1
 645.879882812 137 l 1
 530.879882812 93 l 1
 351.540039062 324 l 1
 351.540039062 324 184.900390625 114 183.900390625 113 c 2
 55.900390625 133 l 1
 268.33984375 421 l 1
 85.900390625 677 l 1
 209.900390625 677 l 1
 354.139648438 516 l 1
 513.879882812 701 l 1
EndSplineSet
Validated: 1
EndChar

StartChar: Oslash
Encoding: 216 216 151
Width: 988
VWidth: 1024
Flags: W
HStem: -15 102<306.412 691.179> 840 101<322.704 681.099>
VStem: 78 127<206.517 713.197> 793.9 127<201.728 716.119>
LayerCount: 2
Fore
SplineSet
500.099609375 87 m 0
 753.599609375 87 793.900390625 138 793.900390625 463 c 0
 793.900390625 579 786.099609375 661 765.299804688 718 c 1
 264.799804688 144 l 1
 307.700195312 98 380.5 87 500.099609375 87 c 0
78 463 m 0
 78 856 141 941 500.099609375 941 c 0
 650.900390625 941 754.900390625 927 817.900390625 886 c 1
 854.900390625 941 l 1
 920.900390625 941 l 1
 856.900390625 845 l 1
 905.900390625 774 920.900390625 656 920.900390625 463 c 0
 920.900390625 50 872.900390625 -15 500.099609375 -15 c 0
 342.799804688 -15 237.5 -5 176 33 c 1
 144 -15 l 1
 78 -15 l 1
 137 73 l 1
 90 142 78 261 78 463 c 0
231 204 m 1
 730.200195312 777 l 1
 686 825 614.5 840 500.099609375 840 c 0
 257 840 205 773 205 463 c 0
 205 343 210.200195312 260 231 204 c 1
EndSplineSet
Validated: 1
EndChar

StartChar: Ugrave
Encoding: 217 217 152
Width: 824
VWidth: 1024
Flags: W
HStem: -15 116<249.851 573.023> 909 20G<88.0647 204.1 617.2 753.529>
VStem: 87.0996 118<150.375 908> 617.2 134.399<453.926 921> 627.6 124<170.547 848.074>
LayerCount: 2
Fore
SplineSet
327.299804688 992 m 1xe0
 200.099609375 1142 l 1
 384.5 1142 l 1
 457.299804688 992 l 1
 327.299804688 992 l 1xe0
204.099609375 910 m 2
 205.099609375 908 204.099609375 908 204.099609375 908 c 1
 205.099609375 380 l 2
 205.099609375 115 215.5 101 420.900390625 101 c 0
 601.599609375 101 612 115 627.599609375 381 c 1xe8
 617.200195312 921 l 1xf0
 753.599609375 929 l 1
 751.599609375 359 l 1xe8
 735.599609375 3 721.599609375 -15 420.900390625 -15 c 0
 101.099609375 -15 87.099609375 3 87.099609375 359 c 2
 88.099609375 932 l 1
 204.099609375 913 l 2
 205.099609375 913 204.099609375 910 204.099609375 910 c 2
EndSplineSet
Validated: 1
EndChar

StartChar: Uacute
Encoding: 218 218 153
Width: 826
VWidth: 1024
Flags: W
HStem: -15 116<249.69 583.222>
VStem: 87.0996 119<150.375 927> 628.6 124<150.375 927>
LayerCount: 2
Fore
SplineSet
355.599609375 992 m 1
 428.400390625 1142 l 1
 614.299804688 1142 l 1
 485.599609375 992 l 1
 355.599609375 992 l 1
87.099609375 922 m 1
 87.099609375 927 l 1
 146.099609375 927 l 1
 206.099609375 927 l 1
 206.099609375 924 l 1
 206.099609375 922 l 1
 205.099609375 380 l 2
 205.099609375 115 215.200195312 101 420.599609375 101 c 0
 618.200195312 101 628.599609375 115 628.599609375 381 c 2
 628.599609375 922 l 1
 628.599609375 927 l 1
 690.599609375 927 l 1
 752.599609375 927 l 1
 752.599609375 922 l 1
 752.599609375 359 l 2
 752.599609375 3 738.599609375 -15 420.599609375 -15 c 0
 101.099609375 -15 87.099609375 3 87.099609375 359 c 2
 87.099609375 922 l 1
EndSplineSet
Validated: 1
EndChar

StartChar: Ucircumflex
Encoding: 219 219 154
Width: 824
VWidth: 1024
Flags: W
HStem: -15 116<249.851 573.023> 909 20G<88.0647 204.1 617.2 753.529>
VStem: 87.0996 118<150.375 908> 617.2 134.399<453.926 921> 627.6 124<170.547 848.074>
LayerCount: 2
Fore
SplineSet
392.299804688 1057 m 1xf0
 298.700195312 992 l 1
 177.099609375 992 l 1
 320.799804688 1142 l 1
 463.799804688 1142 l 1
 617.200195312 992 l 1
 485.900390625 992 l 1
 392.299804688 1057 l 1xf0
204.099609375 910 m 2
 205.099609375 908 204.099609375 908 204.099609375 908 c 1
 205.099609375 380 l 2
 205.099609375 115 215.5 101 420.900390625 101 c 0
 601.599609375 101 612 115 627.599609375 381 c 1xe8
 617.200195312 921 l 1xf0
 753.599609375 929 l 1
 751.599609375 359 l 1xe8
 735.599609375 3 721.599609375 -15 420.900390625 -15 c 0
 101.099609375 -15 87.099609375 3 87.099609375 359 c 2
 88.099609375 932 l 1
 204.099609375 913 l 2
 205.099609375 913 204.099609375 910 204.099609375 910 c 2
EndSplineSet
Validated: 1
EndChar

StartChar: Udieresis
Encoding: 220 220 155
Width: 824
VWidth: 1024
Flags: W
HStem: -15 116<249.851 573.023> 909 20G<88.0647 204.1 617.2 753.529> 992 120<211.6 366.3 419.6 574.3>
VStem: 87.0996 118<150.375 908> 211.6 154.7<992 1112> 419.6 154.7<992 1112> 617.2 134.399<453.926 921> 627.6 124<170.547 848.074>
LayerCount: 2
Fore
SplineSet
419.599609375 992 m 1xfc
 419.599609375 1112 l 1
 574.299804688 1112 l 1
 574.299804688 992 l 1
 419.599609375 992 l 1xfc
211.599609375 992 m 1
 211.599609375 1112 l 1
 366.299804688 1112 l 1
 366.299804688 992 l 1
 211.599609375 992 l 1
204.099609375 910 m 2
 205.099609375 908 204.099609375 908 204.099609375 908 c 1
 205.099609375 380 l 2
 205.099609375 115 215.5 101 420.900390625 101 c 0
 601.599609375 101 612 115 627.599609375 381 c 1xfd
 617.200195312 921 l 1xfe
 753.599609375 929 l 1
 751.599609375 359 l 1xfd
 735.599609375 3 721.599609375 -15 420.900390625 -15 c 0
 101.099609375 -15 87.099609375 3 87.099609375 359 c 2
 88.099609375 932 l 1
 204.099609375 913 l 2
 205.099609375 913 204.099609375 910 204.099609375 910 c 2
EndSplineSet
Validated: 1
EndChar

StartChar: Yacute
Encoding: 221 221 156
Width: 752
VWidth: 1024
Flags: W
VStem: 321.64 119<3 440>
LayerCount: 2
Fore
SplineSet
331.639648438 1007 m 1
 396.639648438 1137 l 1
 558.280273438 1157 l 1
 431.639648438 1007 l 1
 331.639648438 1007 l 1
588.280273438 951 m 1
 710.280273438 919 l 1
 440.639648438 439 l 1
 438.639648438 440 l 1
 440.639648438 -3 l 1
 321.639648438 3 l 1
 323.639648438 443 l 1
 321.639648438 442 l 1
 53.2998046875 921 l 1
 171.299804688 944 l 1
 378.639648438 559 l 1
 588.280273438 951 l 1
EndSplineSet
Validated: 1
EndChar

StartChar: Thorn
Encoding: 222 222 157
Width: 736
VWidth: 1024
Flags: W
HStem: 189 93<198.3 498.861> 645 97<198.3 545.345>
VStem: 79.2998 119<604.061 645 742 927> 105.3 93<0 185 282 320.939> 557.1 112<338.516 645.217>
LayerCount: 2
Fore
SplineSet
138.299804688 0 m 1xd8
 105.299804688 -2 l 1
 105.299804688 3 l 1xd8
 79.2998046875 922 l 1
 79.2998046875 927 l 1
 138.299804688 927 l 1
 198.299804688 927 l 1
 198.299804688 924 l 1
 198.299804688 922 l 1
 198.299804688 742 l 1xe8
 373.799804688 742 l 1
 445.299804688 742 l 2
 659.099609375 742 669.099609375 732 669.099609375 489 c 0
 669.099609375 225 667.099609375 189 386.799804688 189 c 1
 198.299804688 185 l 1
 198.299804688 5 l 1
 198.299804688 3 l 1
 198.299804688 0 l 1
 138.299804688 0 l 1xd8
198.299804688 282 m 1
 379 282 l 2
 540.200195312 282 557.099609375 345 557.099609375 517 c 0
 557.099609375 634 550.599609375 653 492.099609375 653 c 0
 463.5 653 425.799804688 649 369.900390625 649 c 2
 198.299804688 645 l 1xe8
 198.299804688 282 l 1
EndSplineSet
Validated: 1
EndChar

StartChar: germandbls
Encoding: 223 223 158
Width: 861
VWidth: 1024
Flags: W
HStem: 0 99<335.8 500.267> 479 112<313.169 436.363> 896 95<313.965 519.758>
VStem: 85.7998 107<92.5073 766.342> 90.7998 124.101<0 337.086> 616.6 110.44<691.908 810.574>
LayerCount: 2
Fore
SplineSet
717.040039062 790 m 0xf4
 724.040039062 776 727.040039062 762 727.040039062 748 c 0
 727.040039062 657 578.900390625 576 506.099609375 543 c 1
 510 544 519.099609375 545 533.400390625 545 c 0
 534.700195312 545 536 545 537.299804688 545 c 0
 624.400390625 545 803.040039062 515 803.040039062 341 c 0
 803.040039062 340 803.040039062 338 803.040039062 337 c 0
 800.040039062 83 468.400390625 0 338.400390625 0 c 0
 335.799804688 0 335.799804688 14 335.799804688 31 c 2
 335.799804688 62 l 2
 335.799804688 82 335.799804688 99 331.900390625 99 c 1
 695.040039062 99 695.040039062 333 696.040039062 333 c 1
 660.040039062 473 541.200195312 479 316.299804688 479 c 1
 303.299804688 511 285.099609375 582 285.099609375 591 c 1
 287.700195312 591 616.599609375 621 616.599609375 750 c 0
 616.599609375 752 616.599609375 753 616.599609375 755 c 0
 612.700195312 811 517.799804688 896 422.900390625 896 c 0
 415.099609375 896 404.700195312 895 396.900390625 894 c 0
 381.299804688 891 363.099609375 887 350.099609375 882 c 0
 299.400390625 864 281.200195312 852 252.599609375 830 c 1
 200.599609375 753 192.799804688 671 192.799804688 566 c 0xf4
 192.799804688 519 194.099609375 468 194.099609375 410 c 0
 194.099609375 283 201.900390625 141 214.900390625 0 c 1
 90.7998046875 0 l 1xec
 89.7998046875 140 85.7998046875 279 85.7998046875 418 c 0
 85.7998046875 426 85.7998046875 435 85.7998046875 444 c 0
 85.7998046875 473 85.7998046875 504 85.7998046875 537 c 0
 85.7998046875 632 87.7998046875 738 109.799804688 818 c 0
 125.799804688 877 251.299804688 991 415.099609375 991 c 0
 524.299804688 991 642.599609375 941 717.040039062 790 c 0xf4
EndSplineSet
Validated: 1
EndChar

StartChar: agrave
Encoding: 224 224 159
Width: 714
VWidth: 1024
Flags: W
HStem: -20 97<176.9 485.578> 316 84<290.249 532.433> 328 98<153.85 511.929> 618 98<223 487.469>
VStem: 81.9004 109<84.836 304.873 524.646 588.456> 527.6 107.2<102.948 317 400 581.8>
LayerCount: 2
Fore
SplineSet
532.799804688 317 m 1xbc
 525 316 515.900390625 316 506.799804688 316 c 0xdc
 467.799804688 316 410.599609375 321 326.099609375 327 c 0
 313.099609375 328 301.400390625 328 289.700195312 328 c 0
 205.200195312 328 190.900390625 296 190.900390625 166 c 2
 190.900390625 150 l 2
 190.900390625 96 194.799804688 77 266.299804688 77 c 0
 287.099609375 77 314.400390625 78 349.5 81 c 0
 471.700195312 91 512 87 527.599609375 141 c 1
 532.799804688 317 l 1xbc
81.900390625 527 m 1
 98.900390625 674 124.900390625 716 250.700195312 716 c 0
 280.599609375 716 315.700195312 714 356 711 c 0
 586.799804688 693 615.799804688 698 632.799804688 482 c 1
 634.799804688 106 l 1
 642.799804688 70 644.799804688 61 644.799804688 60 c 2
 643.799804688 62 l 1
 669.799804688 -15 l 1
 544.799804688 -1 554.799804688 -31 543.799804688 43 c 1
 509.400390625 -4 434 -1 275.400390625 -15 c 0
 233.799804688 -18 201.299804688 -20 176.900390625 -20 c 0
 85.900390625 -20 81.900390625 15 81.900390625 128 c 2
 81.900390625 162 l 2
 81.900390625 373 99.900390625 426 207.799804688 426 c 0xbc
 227.299804688 426 246.799804688 425 270.200195312 423 c 0
 467.799804688 410 525 407 534.799804688 400 c 1
 535.799804688 452 l 1
 521.099609375 610 499 606 356 616 c 0
 335.200195312 618 318.299804688 618 302.700195312 618 c 0
 222.099609375 618 203.900390625 592 188.900390625 499 c 1
 81.900390625 527 l 1
261.099609375 777 m 1
 163.900390625 911 l 1
 318.299804688 927 l 1
 391.099609375 777 l 1
 261.099609375 777 l 1
EndSplineSet
Validated: 1
EndChar

StartChar: aacute
Encoding: 225 225 160
Width: 706
VWidth: 1024
Flags: W
HStem: -17 87<181.428 459.323> 325 97<203.009 534.351> 620 94<207.551 486.018>
VStem: 76.7002 95<82.8497 290.44> 537 99<122.844 307>
LayerCount: 2
Fore
SplineSet
535.700195312 307 m 1
 535.700195312 307 418.700195312 318 332.900390625 323 c 0
 312.099609375 324 295.200195312 325 279.599609375 325 c 0
 197.700195312 325 183.400390625 299 173 162 c 0
 173 155 171.700195312 148 171.700195312 141 c 0
 171.700195312 85 197.700195312 70 252.299804688 70 c 0
 280.900390625 70 312.099609375 73 352.400390625 77 c 0
 449.900390625 87 524 109 537 163 c 1
 535.700195312 307 l 1
85.7001953125 568 m 1
 102.700195312 663 125.700195312 714 292.599609375 714 c 0
 312.099609375 714 332.900390625 713 355 712 c 0
 587 699 608 699 625 483 c 0
 634 372 636 242 636 143 c 0
 636 49 634 -18 634 -18 c 1
 569 -10 562 -11 553 -7 c 0
 545 -3 549 9 544 44 c 1
 508.400390625 -3 433 0 274.400390625 -14 c 0
 253.599609375 -16 232.799804688 -17 214.599609375 -17 c 0
 119.700195312 -17 76.7001953125 18 76.7001953125 163 c 0
 76.7001953125 403 108.700195312 418 269.200195312 422 c 1
 466.799804688 417 534.400390625 413 534.400390625 413 c 1
 518.799804688 571 543 615 355 617 c 0
 326.400390625 619 305.599609375 620 287.400390625 620 c 0
 218.5 620 200.299804688 602 179.5 540 c 1
 85.7001953125 568 l 1
275.700195312 777 m 1
 348.5 927 l 1
 534.400390625 927 l 1
 405.700195312 777 l 1
 275.700195312 777 l 1
EndSplineSet
Validated: 1
EndChar

StartChar: acircumflex
Encoding: 226 226 161
Width: 706
VWidth: 1024
Flags: W
HStem: -17 87<181.428 459.323> 325 97<203.009 534.351> 620 94<207.551 486.018>
VStem: 76.7002 95<82.8497 290.44> 537 99<122.844 307>
LayerCount: 2
Fore
SplineSet
535.700195312 307 m 1
 535.700195312 307 418.700195312 318 332.900390625 323 c 0
 312.099609375 324 295.200195312 325 279.599609375 325 c 0
 197.700195312 325 183.400390625 299 173 162 c 0
 173 155 171.700195312 148 171.700195312 141 c 0
 171.700195312 85 197.700195312 70 252.299804688 70 c 0
 280.900390625 70 312.099609375 73 352.400390625 77 c 0
 449.900390625 87 524 109 537 163 c 1
 535.700195312 307 l 1
85.7001953125 568 m 1
 102.700195312 663 125.700195312 714 292.599609375 714 c 0
 312.099609375 714 332.900390625 713 355 712 c 0
 587 699 608 699 625 483 c 0
 634 372 636 242 636 143 c 0
 636 49 634 -18 634 -18 c 1
 569 -10 562 -11 553 -7 c 0
 545 -3 549 9 544 44 c 1
 508.400390625 -3 433 0 274.400390625 -14 c 0
 253.599609375 -16 232.799804688 -17 214.599609375 -17 c 0
 119.700195312 -17 76.7001953125 18 76.7001953125 163 c 0
 76.7001953125 403 108.700195312 418 269.200195312 422 c 1
 466.799804688 417 534.400390625 413 534.400390625 413 c 1
 518.799804688 571 543 615 355 617 c 0
 326.400390625 619 305.599609375 620 287.400390625 620 c 0
 218.5 620 200.299804688 602 179.5 540 c 1
 85.7001953125 568 l 1
340.700195312 841 m 1
 247.099609375 777 l 1
 129.700195312 777 l 1
 269.200195312 927 l 1
 412.200195312 927 l 1
 558 777 l 1
 434.299804688 777 l 1
 340.700195312 841 l 1
EndSplineSet
Validated: 1
EndChar

StartChar: atilde
Encoding: 227 227 162
Width: 706
VWidth: 1024
Flags: W
HStem: -17 87<181.428 459.323> 325 97<203.009 534.351> 620 94<207.551 486.018> 762 86<382.403 464.984> 851 86<255.258 338.594>
VStem: 76.7002 95<82.8497 290.44> 152.7 99.5996<777 847.523> 468.1 96.9004<851.477 922> 537 99<122.844 307>
LayerCount: 2
Fore
SplineSet
535.700195312 307 m 1xfa80
 535.700195312 307 418.700195312 318 332.900390625 323 c 0
 312.099609375 324 295.200195312 325 279.599609375 325 c 0
 197.700195312 325 183.400390625 299 173 162 c 0
 173 155 171.700195312 148 171.700195312 141 c 0xfc80
 171.700195312 85 197.700195312 70 252.299804688 70 c 0
 280.900390625 70 312.099609375 73 352.400390625 77 c 0
 449.900390625 87 524 109 537 163 c 1
 535.700195312 307 l 1xfa80
85.7001953125 568 m 1
 102.700195312 663 125.700195312 714 292.599609375 714 c 0
 312.099609375 714 332.900390625 713 355 712 c 0
 587 699 608 699 625 483 c 0
 634 372 636 242 636 143 c 0
 636 49 634 -18 634 -18 c 1
 569 -10 562 -11 553 -7 c 0
 545 -3 549 9 544 44 c 1
 508.400390625 -3 433 0 274.400390625 -14 c 0
 253.599609375 -16 232.799804688 -17 214.599609375 -17 c 0
 119.700195312 -17 76.7001953125 18 76.7001953125 163 c 0
 76.7001953125 403 108.700195312 418 269.200195312 422 c 1
 466.799804688 417 534.400390625 413 534.400390625 413 c 1
 518.799804688 571 543 615 355 617 c 0
 326.400390625 619 305.599609375 620 287.400390625 620 c 0
 218.5 620 200.299804688 602 179.5 540 c 1
 85.7001953125 568 l 1
252.299804688 777 m 1xfb
 152.700195312 777 l 1
 152.700195312 915 165.700195312 937 270.5 937 c 0
 414.799804688 937 343.299804688 848 440.799804688 848 c 0
 464.200195312 848 468.099609375 859 468.099609375 922 c 1
 565 922 l 1
 565 784 552 762 449.900390625 762 c 0
 306.900390625 762 377.099609375 851 280.900390625 851 c 0
 256.200195312 851 252.299804688 840 252.299804688 777 c 1xfb
EndSplineSet
Validated: 1
EndChar

StartChar: adieresis
Encoding: 228 228 163
Width: 706
VWidth: 1024
Flags: W
HStem: -17 87<181.428 459.323> 325 97<203.009 534.351> 620 94<207.551 486.018> 777 111<140.7 278.3 409.6 553>
VStem: 76.7002 95<82.8497 290.44> 140.7 137.6<777 888> 409.6 143.4<777 888> 537 99<122.844 307>
LayerCount: 2
Fore
SplineSet
535.700195312 307 m 1xf9
 535.700195312 307 418.700195312 318 332.900390625 323 c 0
 312.099609375 324 295.200195312 325 279.599609375 325 c 0
 197.700195312 325 183.400390625 299 173 162 c 0
 173 155 171.700195312 148 171.700195312 141 c 0
 171.700195312 85 197.700195312 70 252.299804688 70 c 0
 280.900390625 70 312.099609375 73 352.400390625 77 c 0
 449.900390625 87 524 109 537 163 c 1
 535.700195312 307 l 1xf9
85.7001953125 568 m 1
 102.700195312 663 125.700195312 714 292.599609375 714 c 0
 312.099609375 714 332.900390625 713 355 712 c 0
 587 699 608 699 625 483 c 0
 634 372 636 242 636 143 c 0xf9
 636 49 634 -18 634 -18 c 1
 569 -10 562 -11 553 -7 c 0xf2
 545 -3 549 9 544 44 c 1
 508.400390625 -3 433 0 274.400390625 -14 c 0
 253.599609375 -16 232.799804688 -17 214.599609375 -17 c 0
 119.700195312 -17 76.7001953125 18 76.7001953125 163 c 0
 76.7001953125 403 108.700195312 418 269.200195312 422 c 1
 466.799804688 417 534.400390625 413 534.400390625 413 c 1
 518.799804688 571 543 615 355 617 c 0
 326.400390625 619 305.599609375 620 287.400390625 620 c 0
 218.5 620 200.299804688 602 179.5 540 c 1
 85.7001953125 568 l 1
140.700195312 769 m 1xf4
 134.700195312 896 l 1
 286.099609375 888 l 1
 278.299804688 777 l 1
 140.700195312 769 l 1xf4
401.799804688 777 m 1
 409.599609375 888 l 1
 553 896 l 1xf2
 559 769 l 1
 401.799804688 777 l 1
EndSplineSet
Validated: 1
EndChar

StartChar: aring
Encoding: 229 229 164
Width: 706
VWidth: 1024
Flags: W
HStem: -17 87<181.428 459.323> 325 97<203.009 534.351> 620 94<207.551 486.018> 777 50<299.289 382.111> 901 50<298.303 383.097>
VStem: 76.7002 95<82.8497 290.44> 226.3 71.5<827.514 899.718> 383.6 71.5<827.514 899.718> 537 99<122.844 307>
LayerCount: 2
Fore
SplineSet
535.700195312 307 m 1
 535.700195312 307 418.700195312 318 332.900390625 323 c 0
 312.099609375 324 295.200195312 325 279.599609375 325 c 0
 197.700195312 325 183.400390625 299 173 162 c 0
 173 155 171.700195312 148 171.700195312 141 c 0
 171.700195312 85 197.700195312 70 252.299804688 70 c 0
 280.900390625 70 312.099609375 73 352.400390625 77 c 0
 449.900390625 87 524 109 537 163 c 1
 535.700195312 307 l 1
85.7001953125 568 m 1
 102.700195312 663 125.700195312 714 292.599609375 714 c 0
 312.099609375 714 332.900390625 713 355 712 c 0
 587 699 608 699 625 483 c 0
 634 372 636 242 636 143 c 0
 636 49 634 -18 634 -18 c 1
 569 -10 562 -11 553 -7 c 0
 545 -3 549 9 544 44 c 1
 508.400390625 -3 433 0 274.400390625 -14 c 0
 253.599609375 -16 232.799804688 -17 214.599609375 -17 c 0
 119.700195312 -17 76.7001953125 18 76.7001953125 163 c 0
 76.7001953125 403 108.700195312 418 269.200195312 422 c 1
 466.799804688 417 534.400390625 413 534.400390625 413 c 1
 518.799804688 571 543 615 355 617 c 0
 326.400390625 619 305.599609375 620 287.400390625 620 c 0
 218.5 620 200.299804688 602 179.5 540 c 1
 85.7001953125 568 l 1
226.299804688 864 m 0
 226.299804688 943 236.700195312 951 340.700195312 951 c 0
 444.700195312 951 455.099609375 943 455.099609375 864 c 0
 455.099609375 781 449.900390625 777 340.700195312 777 c 0
 231.5 777 226.299804688 781 226.299804688 864 c 0
340.700195312 827 m 0
 381 827 383.599609375 829 383.599609375 864 c 0
 383.599609375 898 379.700195312 901 340.700195312 901 c 0
 301.700195312 901 297.799804688 898 297.799804688 864 c 0
 297.799804688 829 300.400390625 827 340.700195312 827 c 0
EndSplineSet
Validated: 1
EndChar

StartChar: ae
Encoding: 230 230 165
Width: 1154
VWidth: 1024
Flags: W
HStem: -24 94<184.028 463.074> -20 83<691.302 948.461> 297 98<649.6 866.508> 311 77<866.749 975.9> 325 90<205.609 536.95> 616 93<210.151 487.705 678.681 933.739>
VStem: 79.2998 95<80.6278 290.426> 539.6 110<122.844 297> 977.2 94<388 574.25>
LayerCount: 2
Fore
SplineSet
975.900390625 388 m 1x1780
 975.900390625 405 977.200195312 421 977.200195312 435 c 0
 977.200195312 585 948.599609375 616 804.299804688 616 c 2
 784.799804688 616 l 2
 676.900390625 613 649.599609375 611 649.599609375 410 c 2
 649.599609375 395 l 1x2780
 975.900390625 388 l 1x1780
538.299804688 307 m 1
 538.299804688 307 421.299804688 318 335.5 323 c 0
 314.700195312 324 297.799804688 325 282.200195312 325 c 0
 200.299804688 325 186 299 175.599609375 162 c 0
 175.599609375 155 174.299804688 148 174.299804688 141 c 0
 174.299804688 85 200.299804688 70 254.900390625 70 c 0x8f80
 283.5 70 314.700195312 73 355 77 c 0
 452.5 87 526.599609375 109 539.599609375 163 c 1
 538.299804688 307 l 1
998 170 m 1
 1099 144 l 1
 1053 4 1021 -20 835.5 -20 c 2
 822.5 -20 l 2x6780
 678.200195312 -19 613.599609375 -17 581.599609375 46 c 1
 577.599609375 36 575.599609375 33 574.599609375 39 c 1
 545.599609375 -8 434.299804688 -8 275.700195312 -22 c 0
 254.900390625 -24 235.400390625 -24 217.200195312 -24 c 0
 122.299804688 -24 79.2998046875 11 79.2998046875 156 c 0
 79.2998046875 396 111.299804688 411 271.799804688 415 c 1x8f80
 469.400390625 410 537 406 537 406 c 1
 521.400390625 564 545.599609375 608 357.599609375 610 c 0
 329 612 308.200195312 613 290 613 c 0
 221.099609375 613 202.900390625 596 182.099609375 534 c 1
 88.2998046875 561 l 1
 105.299804688 656 128.299804688 707 295.200195312 707 c 0
 314.700195312 707 335.5 706 357.599609375 705 c 0
 490.200195312 698 554.599609375 695 584.599609375 660 c 1
 618.599609375 704 688.599609375 706 822.5 708 c 0
 845.900390625 708 866.700195312 709 886.200195312 709 c 0
 1045.20019531 709 1071.20019531 683 1071.20019531 519 c 0
 1071.20019531 467 1069.20019531 400 1066.20019531 315 c 1
 987.200195312 311 l 1x1780
 649.599609375 297 l 1
 656.099609375 66 682.099609375 64 822.5 63 c 2
 832.900390625 63 l 2x6780
 936.900390625 63 960.299804688 80 998 170 c 1
EndSplineSet
Validated: 1
EndChar

StartChar: ccedilla
Encoding: 231 231 166
Width: 705
VWidth: 1024
Flags: W
HStem: -248 53<317.268 415.709> -104 55<353.199 416.429> -15 96<230.33 315.3 367.3 497.345> 621 90<233.324 505.415>
VStem: 78 119<119.743 583.562> 418 80.5996<-193.521 -105.252> 525.9 111<107.018 165.478 470 601.695>
LayerCount: 2
Fore
SplineSet
523.299804688 185 m 1
 637.900390625 164 l 1
 626.900390625 10 594.900390625 -15 367.299804688 -15 c 1
 353 -51 l 1
 359.5 -49 368.599609375 -49 381.599609375 -49 c 0
 483 -49 498.599609375 -63 498.599609375 -150 c 0
 498.599609375 -235 480.400390625 -248 368.599609375 -248 c 0
 289.299804688 -248 273.700195312 -240 251.599609375 -190 c 1
 310.099609375 -155 l 1
 325.700195312 -190 333.5 -195 364.700195312 -195 c 0
 410.200195312 -195 418 -189 418 -150 c 0
 418 -110 411.5 -104 368.599609375 -104 c 0
 338.700195312 -104 332.200195312 -106 327 -118 c 2
 325.700195312 -120 l 1
 280.200195312 -100 l 1
 315.299804688 -15 l 1
 107 -14 78 8 78 348 c 0
 78 709 111 711 360.799804688 711 c 0
 628.900390625 711 636.900390625 681 636.900390625 495 c 2
 636.900390625 452 l 1
 525.900390625 470 l 1
 525.900390625 496 l 2
 525.900390625 604 520.700195312 621 360.799804688 621 c 0
 219.099609375 621 197 620 197 348 c 0
 197 82 219.099609375 81 360.799804688 81 c 0
 493.400390625 81 515.5 95 523.299804688 185 c 1
EndSplineSet
Validated: 1
EndChar

StartChar: egrave
Encoding: 232 232 167
Width: 683
VWidth: 1024
Flags: W
HStem: -18 84<225.039 480.161> 299 100<181.3 397.822> 313 79<398.063 505> 620 91<211.489 465.263> 777 126<304.8 356.8>
VStem: 76.7002 102<115.925 299 399 591.25> 506.3 96<392 575.58>
LayerCount: 2
Fore
SplineSet
505 392 m 1xbe
 505 409 506.299804688 425 506.299804688 439 c 0
 506.299804688 589 477.700195312 620 333.400390625 620 c 2
 313.900390625 620 l 2
 206 617 178.700195312 615 178.700195312 414 c 2
 178.700195312 399 l 1xde
 505 392 l 1xbe
529.700195312 172 m 1
 630.700195312 146 l 1
 584.700195312 6 552.700195312 -18 367.200195312 -18 c 2
 354.200195312 -18 l 2
 114.700195312 -16 83.7001953125 -14 77.7001953125 355 c 0
 77.7001953125 379 76.7001953125 400 76.7001953125 422 c 0
 76.7001953125 702 118.700195312 705 354.200195312 710 c 0
 377.599609375 710 398.400390625 711 417.900390625 711 c 0
 576.299804688 711 602.299804688 685 602.299804688 520 c 0
 602.299804688 468 600.299804688 400 597.299804688 315 c 2
 597.299804688 317 l 1
 518.299804688 313 l 1xbe
 181.299804688 299 l 1
 187.799804688 68 213.799804688 67 354.200195312 66 c 2
 364.599609375 66 l 2
 468.599609375 66 492 82 529.700195312 172 c 1
304.799804688 777 m 1
 176.700195312 927 l 1
 356.799804688 903 l 1
 434.799804688 777 l 1
 304.799804688 777 l 1
EndSplineSet
Validated: 1
EndChar

StartChar: eacute
Encoding: 233 233 168
Width: 683
VWidth: 1024
Flags: W
HStem: -18 84<225.039 480.161> 299 100<181.3 397.822> 313 79<398.063 505> 620 91<211.489 465.263>
VStem: 76.7002 102<115.925 299 399 591.25> 506.3 96<392 575.58>
LayerCount: 2
Fore
SplineSet
505 392 m 1xbc
 505 409 506.299804688 425 506.299804688 439 c 0
 506.299804688 589 477.700195312 620 333.400390625 620 c 2
 313.900390625 620 l 2
 206 617 178.700195312 615 178.700195312 414 c 2
 178.700195312 399 l 1xdc
 505 392 l 1xbc
529.700195312 172 m 1
 630.700195312 146 l 1
 584.700195312 6 552.700195312 -18 367.200195312 -18 c 2
 354.200195312 -18 l 2
 114.700195312 -16 83.7001953125 -14 77.7001953125 355 c 0
 77.7001953125 379 76.7001953125 400 76.7001953125 422 c 0
 76.7001953125 702 118.700195312 705 354.200195312 710 c 0
 377.599609375 710 398.400390625 711 417.900390625 711 c 0
 576.299804688 711 602.299804688 685 602.299804688 520 c 0
 602.299804688 468 600.299804688 400 597.299804688 315 c 2
 597.299804688 317 l 1
 518.299804688 313 l 1xbc
 181.299804688 299 l 1
 187.799804688 68 213.799804688 67 354.200195312 66 c 2
 364.599609375 66 l 2
 468.599609375 66 492 82 529.700195312 172 c 1
304.799804688 777 m 1
 377.599609375 927 l 1
 520.299804688 893 l 1
 434.799804688 777 l 1
 304.799804688 777 l 1
EndSplineSet
Validated: 1
EndChar

StartChar: ecircumflex
Encoding: 234 234 169
Width: 683
VWidth: 1024
Flags: W
HStem: -18 84<225.039 480.161> 299 100<181.3 397.822> 313 79<398.063 505> 620 91<211.489 465.263>
VStem: 76.7002 102<115.925 299 399 591.25> 506.3 96<392 575.58>
LayerCount: 2
Fore
SplineSet
505 392 m 1xbc
 505 409 506.299804688 425 506.299804688 439 c 0
 506.299804688 589 477.700195312 620 333.400390625 620 c 2
 313.900390625 620 l 2
 206 617 178.700195312 615 178.700195312 414 c 2
 178.700195312 399 l 1xdc
 505 392 l 1xbc
529.700195312 172 m 1
 630.700195312 146 l 1
 584.700195312 6 552.700195312 -18 367.200195312 -18 c 2
 354.200195312 -18 l 2
 114.700195312 -16 83.7001953125 -14 77.7001953125 355 c 0
 77.7001953125 379 76.7001953125 400 76.7001953125 422 c 0
 76.7001953125 702 118.700195312 705 354.200195312 710 c 0
 377.599609375 710 398.400390625 711 417.900390625 711 c 0
 576.299804688 711 602.299804688 685 602.299804688 520 c 0
 602.299804688 468 600.299804688 400 597.299804688 315 c 2
 597.299804688 317 l 1
 518.299804688 313 l 1xbc
 181.299804688 299 l 1
 187.799804688 68 213.799804688 67 354.200195312 66 c 2
 364.599609375 66 l 2
 468.599609375 66 492 82 529.700195312 172 c 1
369.799804688 841 m 1
 261.900390625 777 l 1
 152.700195312 777 l 1
 298.299804688 927 l 1
 404.900390625 913 l 1
 573.299804688 777 l 1
 463.400390625 777 l 1
 369.799804688 841 l 1
EndSplineSet
Validated: 1
EndChar

StartChar: edieresis
Encoding: 235 235 170
Width: 683
VWidth: 1024
Flags: W
HStem: -18 84<225.039 480.161> 299 100<181.3 397.822> 313 79<398.063 505> 620 91<211.489 465.263> 777 119<198.2 342.5 403.6 540.3>
VStem: 76.7002 102<115.925 299 399 591.25> 187.8 154.7<791.351 896> 198.2 144.3<777 879.649> 395.8 144.5<777 888> 506.3 96<392 575.58>
LayerCount: 2
Fore
SplineSet
505 392 m 1xbc40
 505 409 506.299804688 425 506.299804688 439 c 0
 506.299804688 589 477.700195312 620 333.400390625 620 c 2
 313.900390625 620 l 2
 206 617 178.700195312 615 178.700195312 414 c 2
 178.700195312 399 l 1xdc40
 505 392 l 1xbc40
529.700195312 172 m 1
 630.700195312 146 l 1
 584.700195312 6 552.700195312 -18 367.200195312 -18 c 2
 354.200195312 -18 l 2
 114.700195312 -16 83.7001953125 -14 77.7001953125 355 c 0
 77.7001953125 379 76.7001953125 400 76.7001953125 422 c 0
 76.7001953125 702 118.700195312 705 354.200195312 710 c 0
 377.599609375 710 398.400390625 711 417.900390625 711 c 0
 576.299804688 711 602.299804688 685 602.299804688 520 c 0
 602.299804688 468 600.299804688 400 597.299804688 315 c 2
 597.299804688 317 l 1
 518.299804688 313 l 1xbc40
 181.299804688 299 l 1
 187.799804688 68 213.799804688 67 354.200195312 66 c 2
 364.599609375 66 l 2
 468.599609375 66 492 82 529.700195312 172 c 1
198.200195312 775 m 1x9d
 187.799804688 896 l 1
 342.5 896 l 1x9e
 342.5 777 l 1
 198.200195312 775 l 1x9d
395.799804688 777 m 1x9c80
 403.599609375 888 l 1
 540.299804688 896 l 1
 540.299804688 777 l 1
 395.799804688 777 l 1x9c80
EndSplineSet
Validated: 1
EndChar

StartChar: igrave
Encoding: 236 236 171
Width: 336
VWidth: 1024
Flags: W
HStem: 0 21G<143.4 253.4> 677 20G<143.4 253.4>
VStem: 143.4 110<0 697>
LayerCount: 2
Fore
SplineSet
198.400390625 0 m 1
 143.400390625 0 l 1
 143.400390625 5 l 1
 143.400390625 692 l 1
 143.400390625 697 l 1
 198.400390625 697 l 1
 253.400390625 697 l 1
 253.400390625 5 l 1
 253.400390625 3 l 1
 253.400390625 0 l 1
 198.400390625 0 l 1
148.400390625 777 m 1
 49.400390625 927 l 1
 192.400390625 927 l 1
 248.400390625 777 l 1
 148.400390625 777 l 1
EndSplineSet
Validated: 1
EndChar

StartChar: iacute
Encoding: 237 237 172
Width: 325
VWidth: 1024
Flags: W
HStem: 0 21G<89.7002 199.7> 677 20G<89.7002 199.7>
VStem: 89.7002 110<0 697>
LayerCount: 2
Fore
SplineSet
144.700195312 0 m 1
 89.7001953125 0 l 1
 89.7001953125 5 l 1
 89.7001953125 692 l 1
 89.7001953125 697 l 1
 144.700195312 697 l 1
 199.700195312 697 l 1
 199.700195312 5 l 1
 199.700195312 3 l 1
 199.700195312 0 l 1
 144.700195312 0 l 1
94.7001953125 777 m 1
 150.700195312 927 l 1
 293.700195312 927 l 1
 194.700195312 777 l 1
 94.7001953125 777 l 1
EndSplineSet
Validated: 1
EndChar

StartChar: icircumflex
Encoding: 238 238 173
Width: 434
VWidth: 1024
Flags: W
HStem: 0 21G<166.1 276.1> 677 20G<166.1 276.1>
VStem: 166.1 110<0 697>
LayerCount: 2
Fore
SplineSet
221.099609375 0 m 1
 166.099609375 0 l 1
 166.099609375 5 l 1
 166.099609375 692 l 1
 166.099609375 697 l 1
 221.099609375 697 l 1
 276.099609375 697 l 1
 276.099609375 5 l 1
 276.099609375 3 l 1
 276.099609375 0 l 1
 221.099609375 0 l 1
221.099609375 841 m 1
 148.099609375 777 l 1
 48.099609375 777 l 1
 166.099609375 927 l 1
 276.099609375 927 l 1
 393.099609375 777 l 1
 293.099609375 777 l 1
 221.099609375 841 l 1
EndSplineSet
Validated: 1
EndChar

StartChar: idieresis
Encoding: 239 239 174
Width: 443
VWidth: 1024
Flags: W
HStem: 0 21G<170.5 280.5> 677 20G<170.5 280.5> 777 119<58.5 177.5 272.5 391.5>
VStem: 58.5 119<777 896> 170.5 110<0 697> 272.5 119<777 896>
LayerCount: 2
Fore
SplineSet
225.5 0 m 1xe8
 170.5 0 l 1
 170.5 5 l 1
 170.5 692 l 1
 170.5 697 l 1
 225.5 697 l 1
 280.5 697 l 1
 280.5 5 l 1
 280.5 3 l 1
 280.5 0 l 1
 225.5 0 l 1xe8
58.5 777 m 1xf0
 58.5 896 l 1
 177.5 896 l 1
 177.5 777 l 1
 58.5 777 l 1xf0
272.5 777 m 1xe4
 272.5 896 l 1
 391.5 896 l 1
 391.5 777 l 1
 272.5 777 l 1xe4
EndSplineSet
Validated: 1
EndChar

StartChar: eth
Encoding: 240 240 175
Width: 700
VWidth: 1024
Flags: W
HStem: -15 95<243.344 479.94> 617 94<256.476 479.662>
VStem: 75.4004 119<131.704 536.347> 523.3 107<128.194 571.378>
LayerCount: 2
Fore
SplineSet
523.299804688 426 m 1
 516.799804688 589 485.599609375 617 364.700195312 617 c 0
 234.700195312 617 211.299804688 581 194.400390625 348 c 1
 194.400390625 116 217.799804688 80 364.700195312 80 c 0
 488.200195312 80 519.400390625 109 523.299804688 282 c 2
 523.299804688 426 l 1
321.799804688 737 m 1
 275 812 l 1
 341.299804688 876 l 1
 254.200195312 907 139.400390625 947 139.400390625 947 c 1
 114.400390625 1059 l 1
 114.400390625 1059 323.099609375 986 405 961 c 0
 410.200195312 960 416.700195312 958 421.900390625 955 c 1
 503.799804688 1036 l 1
 585.299804688 965 l 1
 585.299804688 965 555.299804688 933 515.5 893 c 1
 556.299804688 849 592.299804688 794 605.299804688 754 c 0
 619.299804688 714 630.299804688 520 630.299804688 347 c 0
 630.299804688 220 624.299804688 105 608.299804688 71 c 0
 570.299804688 -9 418 -15 314 -15 c 0
 104.400390625 -15 75.400390625 34 75.400390625 348 c 1
 92.400390625 662 121.400390625 711 314 711 c 2
 329.599609375 711 l 2
 419.299804688 711 446.599609375 710 531.299804688 675 c 1
 526.299804688 732 486.900390625 794 438.799804688 831 c 1
 377.700195312 781 321.799804688 737 321.799804688 737 c 1
EndSplineSet
Validated: 1
EndChar

StartChar: ntilde
Encoding: 241 241 176
Width: 653
VWidth: 1024
Flags: W
HStem: 607 98<198.786 466.536> 698 20G<89.3732 192.258> 762 82<379.373 460.574> 851 86<251.787 324.094>
VStem: 89.4004 108<-4 599.446 681 697> 162.4 88.2998<783 848.745> 462.6 79.5<847.106 902> 473 111.1<-6 486.275> 482.1 99<-0.274977 586.667>
LayerCount: 2
Fore
SplineSet
473 -6 m 1xb1
 482.099609375 492 l 1
 482.099609375 507 l 2
 482.099609375 602 456.099609375 607 318.299804688 607 c 0xb080
 252 607 215.599609375 603 197.400390625 585 c 1
 194.400390625 -4 l 1
 88.400390625 -17 l 1
 89.400390625 718 l 1x7880
 197.400390625 697 l 1
 197.400390625 681 l 1
 237.700195312 699 298.799804688 705 393.700195312 705 c 0
 558.099609375 705 580.099609375 694 581.099609375 492 c 2xb880
 584.099609375 -17 l 1
 473 -6 l 1xb1
252 783 m 1
 162.400390625 777 l 1
 162.400390625 787 l 2
 162.400390625 916 163.400390625 937 257.200195312 937 c 0
 401.5 937 341.700195312 844 437.900390625 844 c 2
 449.599609375 844 l 2
 461.299804688 844 462.599609375 847 462.599609375 886 c 2
 462.599609375 902 l 1
 542.099609375 922 l 1
 542.099609375 784 529.099609375 762 436.599609375 762 c 0
 292.299804688 762 363.799804688 851 267.599609375 851 c 0
 253.299804688 851 250.700195312 850 250.700195312 836 c 0x36
 250.700195312 827 252 810 252 783 c 1
EndSplineSet
Validated: 1
EndChar

StartChar: ograve
Encoding: 242 242 177
Width: 720
VWidth: 1024
Flags: W
HStem: -15 86<238.345 494.77> 626 85<234.63 491.055>
VStem: 78 119<109.295 585.912> 532.4 119<110.712 587.159>
LayerCount: 2
Fore
SplineSet
78 348 m 0
 78 709 111 711 364.700195312 711 c 0
 650.400390625 711 651.400390625 662 651.400390625 348 c 0
 651.400390625 -13 618.400390625 -15 364.700195312 -15 c 0
 79 -15 78 34 78 348 c 0
364.700195312 71 m 0
 510.299804688 71 532.400390625 72 532.400390625 348 c 0
 532.400390625 589 531.099609375 626 364.700195312 626 c 0
 219.099609375 626 197 626 197 348 c 0
 197 108 198.299804688 71 364.700195312 71 c 0
299.700195312 777 m 1
 177 927 l 1
 356.900390625 927 l 1
 429.700195312 777 l 1
 299.700195312 777 l 1
EndSplineSet
Validated: 1
EndChar

StartChar: oacute
Encoding: 243 243 178
Width: 720
VWidth: 1024
Flags: W
HStem: -15 86<238.345 494.77> 626 85<234.63 491.055>
VStem: 78 119<109.295 585.912> 532.4 119<110.712 587.159>
LayerCount: 2
Fore
SplineSet
78 348 m 0
 78 709 111 711 364.700195312 711 c 0
 650.400390625 711 651.400390625 662 651.400390625 348 c 0
 651.400390625 -13 618.400390625 -15 364.700195312 -15 c 0
 79 -15 78 34 78 348 c 0
364.700195312 71 m 0
 510.299804688 71 532.400390625 72 532.400390625 348 c 0
 532.400390625 589 531.099609375 626 364.700195312 626 c 0
 219.099609375 626 197 626 197 348 c 0
 197 108 198.299804688 71 364.700195312 71 c 0
299.700195312 777 m 1
 372.5 927 l 1
 552.400390625 927 l 1
 429.700195312 777 l 1
 299.700195312 777 l 1
EndSplineSet
Validated: 1
EndChar

StartChar: ocircumflex
Encoding: 244 244 179
Width: 690
VWidth: 1024
Flags: W
HStem: -15 86<223.35 479.663> 626 85<220.454 476.646>
VStem: 78 106<109.295 585.912> 515.5 106<110.712 587.159>
LayerCount: 2
Fore
SplineSet
78 348 m 0
 78 709 110 711 350.400390625 711 c 0
 620.5 711 621.5 662 621.5 348 c 0
 621.5 -13 590.5 -15 350.400390625 -15 c 0
 79 -15 78 34 78 348 c 0
350.400390625 71 m 0
 493.400390625 71 515.5 72 515.5 348 c 0
 515.5 589 514.200195312 626 350.400390625 626 c 0
 206.099609375 626 184 626 184 348 c 0
 184 108 185.299804688 71 350.400390625 71 c 0
346.5 839 m 1
 252.900390625 775 l 1
 137 775 l 1
 275 925 l 1
 418 925 l 1
 558.5 775 l 1
 438.799804688 775 l 1
 346.5 839 l 1
EndSplineSet
Validated: 1
EndChar

StartChar: otilde
Encoding: 245 245 180
Width: 689
VWidth: 1024
Flags: W
HStem: -15 86<223.35 479.663> 626 85<220.454 476.646> 762 86<381.284 463.939> 851 86<254.759 337.716>
VStem: 78 106<109.295 585.912> 155 96.5996<777 847.523> 467.4 92.0996<851.477 922> 515.5 106<110.712 587.159>
LayerCount: 2
Fore
SplineSet
251.599609375 777 m 1xf6
 155 777 l 1
 155 915 168 937 269.799804688 937 c 0
 414.099609375 937 342.599609375 848 438.799804688 848 c 0
 463.5 848 467.400390625 859 467.400390625 922 c 1
 559.5 922 l 1
 559.5 784 546.5 762 449.200195312 762 c 0
 304.900390625 762 376.400390625 851 280.200195312 851 c 0
 255.5 851 251.599609375 840 251.599609375 777 c 1xf6
78 348 m 0xf9
 78 709 110 711 350.400390625 711 c 0
 620.5 711 621.5 662 621.5 348 c 0
 621.5 -13 590.5 -15 350.400390625 -15 c 0
 79 -15 78 34 78 348 c 0xf9
350.400390625 71 m 0
 493.400390625 71 515.5 72 515.5 348 c 0
 515.5 589 514.200195312 626 350.400390625 626 c 0
 206.099609375 626 184 626 184 348 c 0
 184 108 185.299804688 71 350.400390625 71 c 0
EndSplineSet
Validated: 1
EndChar

StartChar: odieresis
Encoding: 246 246 181
Width: 720
VWidth: 1024
Flags: W
HStem: -15 86<238.345 494.77> 626 85<234.63 491.055> 777 119<186 338.7 392 544.4>
VStem: 78 119<109.295 585.912> 186 152.7<777 896> 392 152.4<777 896> 532.4 119<110.712 587.159>
LayerCount: 2
Fore
SplineSet
78 348 m 0xf2
 78 709 111 711 364.700195312 711 c 0
 650.400390625 711 651.400390625 662 651.400390625 348 c 0
 651.400390625 -13 618.400390625 -15 364.700195312 -15 c 0
 79 -15 78 34 78 348 c 0xf2
364.700195312 71 m 0
 510.299804688 71 532.400390625 72 532.400390625 348 c 0
 532.400390625 589 531.099609375 626 364.700195312 626 c 0
 219.099609375 626 197 626 197 348 c 0
 197 108 198.299804688 71 364.700195312 71 c 0
186 777 m 1xe8
 186 896 l 1
 338.700195312 896 l 1
 338.700195312 777 l 1
 186 777 l 1xe8
392 777 m 1xe4
 392 896 l 1
 544.400390625 896 l 1
 544.400390625 777 l 1
 392 777 l 1xe4
EndSplineSet
Validated: 1
EndChar

StartChar: divide
Encoding: 247 247 182
Width: 938
VWidth: 1024
Flags: W
HStem: 176 112<449.286 531.74> 384 106<474.361 870.88> 396 112<77.4004 473.92> 604 98<434.642 527.74> 694 20G<401.367 529.74>
VStem: 403.54 124.2<604 702> 421.74 110<176 288>
LayerCount: 2
Fore
SplineSet
419.139648438 300 m 1x82
 534.33984375 288 l 1
 531.740234375 176 l 1
 421.740234375 164 l 1
 419.139648438 300 l 1x82
400.940429688 714 m 1x8c
 529.740234375 702 l 1
 527.740234375 604 l 1x94
 403.540039062 592 l 1
 400.940429688 714 l 1x8c
77.400390625 508 m 1xa0
 870.879882812 490 l 1
 872.879882812 384 l 1xc0
 75.400390625 396 l 1
 77.400390625 508 l 1xa0
EndSplineSet
Validated: 1
EndChar

StartChar: oslash
Encoding: 248 248 183
Width: 724
VWidth: 1024
Flags: W
HStem: -15 86<238.515 498.67> 626 85<238.53 498.348>
VStem: 81.9004 119<186.074 585.912> 536.3 119<110.712 509.449>
LayerCount: 2
Fore
SplineSet
206.099609375 183 m 1
 518.099609375 572 l 1
 497.299804688 616 455.700195312 626 368.599609375 626 c 0
 223 626 200.900390625 626 200.900390625 348 c 0
 200.900390625 277 200.900390625 223 206.099609375 183 c 1
81.900390625 348 m 0
 81.900390625 709 114.900390625 711 368.599609375 711 c 0
 484.299804688 711 553.299804688 705 590.299804688 682 c 1
 608.299804688 711 l 1
 655.299804688 711 l 1
 620.299804688 654 l 1
 655.299804688 603 655.299804688 512 655.299804688 348 c 0
 655.299804688 -13 622.299804688 -15 368.599609375 -15 c 0
 252.900390625 -15 183.900390625 -9 147.900390625 14 c 1
 129.900390625 -15 l 1
 81.900390625 -15 l 1
 117.900390625 42 l 1
 81.900390625 93 81.900390625 184 81.900390625 348 c 0
368.599609375 71 m 0
 514.200195312 71 536.299804688 72 536.299804688 348 c 0
 536.299804688 419 536.299804688 473 531.099609375 512 c 1
 220.400390625 124 l 1
 239.900390625 81 282.799804688 71 368.599609375 71 c 0
EndSplineSet
Validated: 1
EndChar

StartChar: ugrave
Encoding: 249 249 184
Width: 637
VWidth: 1024
Flags: W
HStem: -15 105<200.167 436.787> 689 12G<85.4602 193.5 454.5 562.528>
VStem: 84.5 110<96.6526 685> 454.5 109<-15 25 107.963 693>
LayerCount: 2
Fore
SplineSet
454.5 210 m 2
 454.5 693 l 1
 562.5 709 l 1
 563.5 -11 l 1
 563.5 -15 l 1
 460.5 -38 l 1
 454.5 5 l 1
 454.5 15 l 1
 454.5 25 l 1
 423.299804688 -7 407.700195312 -15 310.200195312 -15 c 0
 95.5 -15 84.5 -5 84.5 198 c 2
 85.5 701 l 1
 193.5 685 l 1
 194.5 198 l 1
 194.5 150 l 2
 194.5 93 204.900390625 90 315.400390625 90 c 0
 436.299804688 90 454.5 106 454.5 210 c 2
259.5 777 m 1
 144.5 927 l 1
 315.400390625 927 l 1
 389.5 777 l 1
 259.5 777 l 1
EndSplineSet
Validated: 1
EndChar

StartChar: uacute
Encoding: 250 250 185
Width: 637
VWidth: 1024
Flags: W
HStem: -15 105<200.167 436.787> 689 12G<85.4602 193.5 454.5 562.528>
VStem: 84.5 110<96.6526 685> 454.5 109<-15 25 107.963 693>
LayerCount: 2
Fore
SplineSet
454.5 210 m 2
 454.5 693 l 1
 562.5 709 l 1
 563.5 -11 l 1
 563.5 -15 l 1
 460.5 -38 l 1
 454.5 5 l 1
 454.5 15 l 1
 454.5 25 l 1
 423.299804688 -7 407.700195312 -15 310.200195312 -15 c 0
 95.5 -15 84.5 -5 84.5 198 c 2
 85.5 701 l 1
 193.5 685 l 1
 194.5 198 l 1
 194.5 150 l 2
 194.5 93 204.900390625 90 315.400390625 90 c 0
 436.299804688 90 454.5 106 454.5 210 c 2
259.5 777 m 1
 332.299804688 927 l 1
 503.5 927 l 1
 389.5 777 l 1
 259.5 777 l 1
EndSplineSet
Validated: 1
EndChar

StartChar: ucircumflex
Encoding: 251 251 186
Width: 637
VWidth: 1024
Flags: W
HStem: -15 105<200.167 436.787> 689 12G<85.4602 193.5 454.5 562.528>
VStem: 84.5 110<96.6526 685> 454.5 109<-15 25 107.963 693>
LayerCount: 2
Fore
SplineSet
454.5 210 m 2
 454.5 693 l 1
 562.5 709 l 1
 563.5 -11 l 1
 563.5 -15 l 1
 460.5 -38 l 1
 454.5 5 l 1
 454.5 15 l 1
 454.5 25 l 1
 423.299804688 -7 407.700195312 -15 310.200195312 -15 c 0
 95.5 -15 84.5 -5 84.5 198 c 2
 85.5 701 l 1
 193.5 685 l 1
 194.5 198 l 1
 194.5 150 l 2
 194.5 93 204.900390625 90 315.400390625 90 c 0
 436.299804688 90 454.5 106 454.5 210 c 2
324.5 841 m 1
 229.599609375 777 l 1
 121.5 777 l 1
 251.700195312 927 l 1
 396 927 l 1
 526.5 777 l 1
 418.099609375 777 l 1
 324.5 841 l 1
EndSplineSet
Validated: 1
EndChar

StartChar: udieresis
Encoding: 252 252 187
Width: 637
VWidth: 1024
Flags: W
HStem: -15 105<200.167 436.787> 689 12G<85.4602 193.5 454.5 562.528> 777 111<150.5 297.2 350.5 489.5>
VStem: 84.5 110<96.6526 685> 150.5 146.7<777 888> 345.3 148.2<777 888> 454.5 109<-15 25 107.963 693>
LayerCount: 2
Fore
SplineSet
454.5 210 m 2xf2
 454.5 693 l 1
 562.5 709 l 1
 563.5 -11 l 1
 563.5 -15 l 1
 460.5 -38 l 1
 454.5 5 l 1
 454.5 15 l 1
 454.5 25 l 1
 423.299804688 -7 407.700195312 -15 310.200195312 -15 c 0
 95.5 -15 84.5 -5 84.5 198 c 2
 85.5 701 l 1
 193.5 685 l 1
 194.5 198 l 1
 194.5 150 l 2
 194.5 93 204.900390625 90 315.400390625 90 c 0
 436.299804688 90 454.5 106 454.5 210 c 2xf2
150.5 769 m 1xe8
 150.5 888 l 1
 297.200195312 896 l 1
 297.200195312 777 l 1
 150.5 769 l 1xe8
345.299804688 769 m 1xe4
 350.5 896 l 1
 489.5 888 l 1
 493.5 777 l 1
 345.299804688 769 l 1xe4
EndSplineSet
Validated: 1
EndChar

StartChar: yacute
Encoding: 253 253 188
Width: 631
VWidth: 1024
Flags: W
HStem: -200 94<104.9 224.329> 698 20G<90.1861 180.395 449.658 534.555>
LayerCount: 2
Fore
SplineSet
55.900390625 690 m 1
 175.900390625 718 l 1
 300.83984375 162 l 1
 455.1796875 721 l 1
 582.1796875 689 l 1
 359.33984375 -80 l 2
 321.639648438 -190 335.940429688 -200 218.940429688 -200 c 2
 140.900390625 -200 l 1
 104.900390625 -198 l 1
 81.900390625 -104 l 1
 105.900390625 -106 l 1
 162.900390625 -106 l 2
 230.639648438 -106 221.540039062 -99 242.33984375 -36 c 2
 248.83984375 -13 l 1
 55.900390625 690 l 1
252.740234375 777 m 1
 326.83984375 927 l 1
 451.1796875 905 l 1
 382.740234375 777 l 1
 252.740234375 777 l 1
EndSplineSet
Validated: 1
EndChar

StartChar: thorn
Encoding: 254 254 189
Width: 687
VWidth: 1024
Flags: W
HStem: -15 82<238.22 477.868> 617 94<226.29 475.737>
VStem: 81.9004 111<-245 17 118.244 340.674> 99.9004 93<341.326 579.737 679 927> 525.7 92<117.622 562.428>
LayerCount: 2
Fore
SplineSet
99.900390625 927 m 1xd8
 192.900390625 927 l 1
 192.900390625 679 l 1xd8
 234.5 711 299.5 711 404.799804688 711 c 0
 616.700195312 711 617.700195312 708 617.700195312 394 c 0
 617.700195312 80 616.700195312 -15 404.799804688 -15 c 0
 299.5 -15 234.5 -15 192.900390625 17 c 1xe8
 192.900390625 -250 l 1xd8
 137.900390625 -250 l 1
 81.900390625 -245 l 1xe8
 99.900390625 927 l 1xd8
365.799804688 67 m 0
 512.700195312 67 525.700195312 115 525.700195312 348 c 0
 525.700195312 581 502.299804688 617 354.099609375 617 c 0
 216.299804688 617 192.900390625 616 192.900390625 348 c 0
 192.900390625 80 225.400390625 67 365.799804688 67 c 0
EndSplineSet
Validated: 1
EndChar

StartChar: ydieresis
Encoding: 255 255 190
Width: 631
VWidth: 1024
Flags: W
HStem: -200 94<104.9 224.329> 698 20G<90.1861 180.395 449.658 534.555> 777 119<153.9 291.74 372.955 483.18> 777 109<360.64 470.864>
VStem: 153.9 137.84<777 896> 345.04 138.14<777 839.851> 360.64 122.54<823.149 886>
LayerCount: 2
Fore
SplineSet
55.900390625 690 m 1xc8
 175.900390625 718 l 1
 300.83984375 162 l 1
 455.1796875 721 l 1
 582.1796875 689 l 1
 359.33984375 -80 l 2
 321.639648438 -190 335.940429688 -200 218.940429688 -200 c 2
 140.900390625 -200 l 1
 104.900390625 -198 l 1
 81.900390625 -104 l 1
 105.900390625 -106 l 1
 162.900390625 -106 l 2
 230.639648438 -106 221.540039062 -99 242.33984375 -36 c 2
 248.83984375 -13 l 1
 55.900390625 690 l 1xc8
153.900390625 777 m 1xe8
 153.900390625 896 l 1
 291.740234375 896 l 1
 291.740234375 777 l 1
 153.900390625 777 l 1xe8
345.040039062 777 m 1xdc
 360.639648438 886 l 1xda
 483.1796875 896 l 1xea
 483.1796875 777 l 1xec
 345.040039062 777 l 1xdc
EndSplineSet
Validated: 1
EndChar

StartChar: Amacron
Encoding: 256 256 191
Width: 915
VWidth: 1024
Flags: W
HStem: 184 95<267.04 667.44> 193 87<267.04 667.44> 1007 76<257.94 506.845> 1007 62<396.436 637.54>
LayerCount: 2
Fore
SplineSet
267.040039062 279 m 1x80
 667.440429688 280 l 1x40
 454.240234375 779 l 1
 267.040039062 279 l 1x80
59.7998046875 6 m 1
 382.740234375 928 l 1
 553.040039062 927 l 1
 870.780273438 5 l 1
 778.780273438 -26 l 1
 703.83984375 193 l 1x40
 231.940429688 184 l 1x80
 167.799804688 -22 l 1
 59.7998046875 6 l 1
257.940429688 1007 m 1x20
 257.940429688 1083 l 1x20
 645.33984375 1069 l 1
 637.540039062 1007 l 1x10
 257.940429688 1007 l 1x20
EndSplineSet
Validated: 1
EndChar

StartChar: amacron
Encoding: 257 257 192
Width: 707
VWidth: 1024
Flags: W
HStem: -24 94<182.728 460.623> 325 90<204.309 535.65> 613 94<208.852 487.318> 785 68<158 530.5>
VStem: 78 95<80.6278 290.426> 538.3 99<122.844 307>
LayerCount: 2
Fore
SplineSet
537 307 m 1
 537 307 420 318 334.200195312 323 c 0
 313.400390625 324 296.5 325 280.900390625 325 c 0
 199 325 184.700195312 299 174.299804688 162 c 0
 174.299804688 155 173 148 173 141 c 0
 173 85 199 70 253.599609375 70 c 0
 282.200195312 70 313.400390625 73 353.700195312 77 c 0
 451.200195312 87 525.299804688 109 538.299804688 163 c 1
 537 307 l 1
87 561 m 1
 104 656 127 707 293.900390625 707 c 0
 313.400390625 707 334.200195312 706 356.299804688 705 c 0
 588.299804688 692 609.299804688 692 626.299804688 476 c 0
 635.299804688 365 637.299804688 235 637.299804688 136 c 0
 637.299804688 42 636.299804688 -25 636.299804688 -25 c 1
 571.299804688 -17 563.299804688 -18 554.299804688 -14 c 0
 546.299804688 -10 550.299804688 2 545.299804688 37 c 1
 509.700195312 -10 434.299804688 -8 275.700195312 -22 c 0
 254.900390625 -24 234.099609375 -24 215.900390625 -24 c 0
 121 -24 78 11 78 156 c 0
 78 396 110 411 270.5 415 c 1
 468.099609375 410 535.700195312 406 535.700195312 406 c 1
 520.099609375 564 544.299804688 608 356.299804688 610 c 0
 327.700195312 612 306.900390625 613 288.700195312 613 c 0
 219.799804688 613 201.599609375 596 180.799804688 534 c 1
 87 561 l 1
158 785 m 1
 158 853 l 1
 530.5 853 l 1
 530.5 777 l 1
 158 785 l 1
EndSplineSet
Validated: 1
EndChar

StartChar: Abreve
Encoding: 258 258 193
Width: 915
VWidth: 1024
Flags: W
HStem: 184 95<281.34 681.74> 193 87<281.34 681.74> 986 83<374.668 552.715>
VStem: 261.84 105.3<1079.21 1134> 559.54 105.3<1078.66 1140>
LayerCount: 2
Fore
SplineSet
281.33984375 279 m 1xb8
 681.740234375 280 l 1x78
 468.540039062 779 l 1
 281.33984375 279 l 1xb8
59.7998046875 6 m 1
 382.740234375 928 l 1
 553.040039062 927 l 1
 870.780273438 5 l 1
 778.780273438 -26 l 1
 703.83984375 193 l 1x78
 231.940429688 184 l 1xb8
 167.799804688 -22 l 1
 59.7998046875 6 l 1
261.83984375 1134 m 1
 367.139648438 1140 l 1
 367.139648438 1079 381.440429688 1069 463.33984375 1069 c 0
 545.240234375 1069 559.540039062 1079 559.540039062 1140 c 1
 664.83984375 1140 l 1
 664.83984375 1034 642.740234375 986 537.440429688 986 c 0
 516.639648438 986 491.940429688 988 463.33984375 992 c 0
 294.33984375 1014 261.83984375 1006 261.83984375 1134 c 1
EndSplineSet
Validated: 1
EndChar

StartChar: abreve
Encoding: 259 259 194
Width: 706
VWidth: 1024
Flags: W
HStem: -24 94<181.428 459.323> 325 90<203.009 534.351> 613 94<207.551 486.018> 776 69<251.71 428.538>
VStem: 76.7002 95<80.6278 290.426> 146.7 97.7998<853.972 916> 436.9 104.1<852.49 916> 537 99<122.844 307>
LayerCount: 2
Fore
SplineSet
535.700195312 307 m 1xf9
 535.700195312 307 418.700195312 318 332.900390625 323 c 0
 312.099609375 324 295.200195312 325 279.599609375 325 c 0
 197.700195312 325 183.400390625 299 173 162 c 0
 173 155 171.700195312 148 171.700195312 141 c 0
 171.700195312 85 197.700195312 70 252.299804688 70 c 0
 280.900390625 70 312.099609375 73 352.400390625 77 c 0
 449.900390625 87 524 109 537 163 c 1
 535.700195312 307 l 1xf9
85.7001953125 561 m 1
 102.700195312 656 125.700195312 707 292.599609375 707 c 0
 312.099609375 707 332.900390625 706 355 705 c 0
 587 692 608 692 625 476 c 0
 634 365 636 235 636 136 c 0
 636 42 634 -25 634 -25 c 1
 569 -17 562 -18 553 -14 c 0
 545 -10 549 2 544 37 c 1
 508.400390625 -10 433 -8 274.400390625 -22 c 0
 253.599609375 -24 232.799804688 -24 214.599609375 -24 c 0
 119.700195312 -24 76.7001953125 11 76.7001953125 156 c 0
 76.7001953125 396 108.700195312 411 269.200195312 415 c 1
 466.799804688 410 534.400390625 406 534.400390625 406 c 1
 518.799804688 564 543 608 355 610 c 0
 326.400390625 612 305.599609375 613 287.400390625 613 c 0
 218.5 613 200.299804688 596 179.5 534 c 1
 85.7001953125 561 l 1
146.700195312 916 m 1xf6
 244.5 916 l 1
 244.5 855 258.799804688 845 340.700195312 845 c 0
 422.599609375 845 436.900390625 855 436.900390625 916 c 1
 541 916 l 1
 541 788 512.299804688 786 340.700195312 778 c 0
 318.599609375 777 299.099609375 776 282.200195312 776 c 0
 164.700195312 776 146.700195312 804 146.700195312 916 c 1xf6
EndSplineSet
Validated: 1
EndChar

StartChar: Aogonek
Encoding: 260 260 195
Width: 1055
VWidth: 1024
Flags: W
HStem: -214 70<870.376 1012.95> 0 21G<59.7998 194.3> 183 97<299.54 659.64> 921 20G<475.04 572.031>
VStem: 787.04 79.2998<-139.298 -29.882>
LayerCount: 2
Fore
SplineSet
299.540039062 280 m 1
 659.639648438 280 l 1
 496 791 l 1
 299.540039062 280 l 1
127 0 m 1
 59.7998046875 0 l 1
 409.83984375 927 l 5
 420.240234375 927 l 5
 475.040039062 933 l 1
 557.940429688 941 l 1
 564.440429688 941 l 1
 921.580078125 0 l 1
 897.580078125 -14 866.33984375 -39 866.33984375 -86 c 0
 866.33984375 -136 876.580078125 -144 943.580078125 -144 c 0
 991.580078125 -144 1000.58007812 -142 1009.58007812 -132 c 1
 1021.58007812 -195 l 1
 1006.58007812 -211 995.580078125 -214 936.580078125 -214 c 0
 810.440429688 -214 787.040039062 -198 787.040039062 -97 c 0
 787.040039062 -56 814.33984375 -24 849.440429688 0 c 1
 771.440429688 0 l 2
 770.139648438 2 770.139648438 3 768.83984375 5 c 2
 698.639648438 183 l 1
 261.83984375 183 l 1
 195.799804688 5 l 2
 195.025578747 2.91320205878 194.799804688 2 193.799804688 0 c 2
 127 0 l 1
EndSplineSet
EndChar

StartChar: aogonek
Encoding: 261 261 196
Width: 750
VWidth: 1024
Flags: W
HStem: -202 42<595.653 714.555> -24 94<184.028 463.074> 325 90<205.609 536.95> 613 94<210.151 489.114>
VStem: 79.2998 95<80.6278 290.426> 544.5 95<-88.652 -25 -24.9511 32 126.367 307> 544.5 49<-157.574 -84.5692>
LayerCount: 2
Fore
SplineSet
538.299804688 307 m 1xf8
 538.299804688 307 421.299804688 318 335.5 323 c 0
 314.700195312 324 297.799804688 325 282.200195312 325 c 0
 200.299804688 325 186 299 175.599609375 162 c 0
 175.599609375 155 174.299804688 148 174.299804688 141 c 0
 174.299804688 85 200.299804688 70 254.900390625 70 c 0
 283.5 70 314.700195312 73 355 77 c 0
 452.5 87 526.599609375 109 539.599609375 163 c 1
 538.299804688 307 l 1xf8
637.5 -25 m 1
 639.5 -70 l 1
 639.5 -73 l 1xfc
 619.5 -81 593.5 -96 593.5 -123 c 0
 593.5 -155 602.5 -160 656.5 -160 c 0
 696.5 -160 704.5 -158 711.5 -152 c 1
 720.5 -191 l 1
 709.5 -200 700.5 -202 652.5 -202 c 0
 559.5 -202 544.5 -192 544.5 -130 c 0xfa
 544.5 -112 543.5 -9 543.5 32 c 1
 504.5 -10 427.799804688 -9 275.700195312 -22 c 0
 254.900390625 -24 235.400390625 -24 217.200195312 -24 c 0
 122.299804688 -24 79.2998046875 11 79.2998046875 156 c 0
 79.2998046875 396 111.299804688 411 271.799804688 415 c 1
 469.400390625 410 537 406 537 406 c 1
 521.400390625 564 546.5 608 357.599609375 610 c 0
 329 612 308.200195312 613 290 613 c 0
 221.099609375 613 202.900390625 596 182.099609375 534 c 1
 88.2998046875 561 l 1
 105.299804688 656 128.299804688 707 295.200195312 707 c 0
 314.700195312 707 335.5 706 357.599609375 705 c 0
 590.5 692 611.5 692 628.5 476 c 0
 637.5 365 639.5 235 639.5 136 c 0xfc
 639.5 42 637.5 -25 637.5 -25 c 1
EndSplineSet
Validated: 1
EndChar

StartChar: Cacute
Encoding: 262 262 197
Width: 769
VWidth: 1024
Flags: W
HStem: -9 102<316.176 700.309> 840 101<328.572 701.423>
VStem: 76.7002 127<209.695 694.625>
LayerCount: 2
Fore
SplineSet
697.599609375 97 m 2
 717.599609375 -1 l 2
 716.599609375 -8 687.599609375 -9 503.599609375 -9 c 0
 134.700195312 -9 76.7001953125 86 76.7001953125 411 c 2
 76.7001953125 465 l 1
 82.7001953125 833 130.700195312 941 485.799804688 941 c 2
 503.599609375 941 l 2
 689.599609375 938 718.599609375 938 718.599609375 937 c 2
 696.599609375 844 l 2
 696.599609375 842 681.599609375 839 604.599609375 839 c 0
 578.599609375 839 545.599609375 839 503.599609375 840 c 2
 493.599609375 840 l 2
 250.5 840 210.200195312 754 203.700195312 465 c 1
 203.700195312 414 l 2
 203.700195312 166 254.400390625 93 503.599609375 93 c 0
 670.599609375 93 696.599609375 94 697.599609375 97 c 2
405.200195312 1007 m 1
 478 1157 l 1
 624.599609375 1157 l 1
 525.599609375 1007 l 1
 405.200195312 1007 l 1
EndSplineSet
Validated: 1
EndChar

StartChar: cacute
Encoding: 263 263 198
Width: 704
VWidth: 1024
Flags: W
HStem: -15 96<232.101 497.14> 621 90<233.324 505.415>
VStem: 78 119<119.323 583.562> 525.9 111<111.807 165.478 470 601.695>
LayerCount: 2
Fore
SplineSet
523.299804688 185 m 1
 637.900390625 164 l 1
 626.900390625 9 593.900390625 -15 360.799804688 -15 c 0
 111 -15 78 -13 78 348 c 0
 78 709 111 711 360.799804688 711 c 0
 628.900390625 711 636.900390625 681 636.900390625 495 c 2
 636.900390625 452 l 1
 525.900390625 470 l 1
 525.900390625 496 l 2
 525.900390625 604 520.700195312 621 360.799804688 621 c 0
 219.099609375 621 197 620 197 348 c 0
 197 82 219.099609375 81 360.799804688 81 c 0
 493.400390625 81 515.5 95 523.299804688 185 c 1
295.799804688 777 m 1
 368.599609375 927 l 1
 547.900390625 927 l 1
 425.799804688 777 l 1
 295.799804688 777 l 1
EndSplineSet
Validated: 1
EndChar

StartChar: Ccircumflex
Encoding: 264 264 199
Width: 791
VWidth: 1024
Flags: W
HStem: -9 102<317.39 722.02> 839 102<328.572 723.34>
VStem: 76.7002 127<209.695 694.625>
LayerCount: 2
Fore
SplineSet
444.200195312 1071 m 1
 350.599609375 1007 l 1
 220.599609375 1007 l 1
 372.700195312 1157 l 1
 515.700195312 1157 l 1
 648.83984375 1007 l 1
 537.799804688 1007 l 1
 444.200195312 1071 l 1
625.83984375 839 m 0
 598.83984375 839 548.200195312 840 493.599609375 840 c 0
 250.5 840 210.200195312 754 203.700195312 465 c 1
 203.700195312 414 l 2
 203.700195312 166 254.400390625 93 506.599609375 93 c 0
 691.83984375 93 717.83984375 94 718.83984375 97 c 2
 738.83984375 -1 l 2
 737.83984375 -8 708.83984375 -9 506.599609375 -9 c 0
 134.700195312 -9 76.7001953125 86 76.7001953125 411 c 2
 76.7001953125 465 l 1
 82.7001953125 833 130.700195312 941 485.799804688 941 c 0
 682.83984375 941 739.83984375 937 739.83984375 937 c 1
 717.83984375 844 l 2
 717.83984375 842 702.83984375 839 625.83984375 839 c 0
EndSplineSet
Validated: 1
EndChar

StartChar: Cdotaccent
Encoding: 266 266 200
Width: 791
VWidth: 1024
Flags: W
HStem: -9 102<317.39 722.02> 839 102<328.572 723.34> 1007 119<366.2 522.2>
VStem: 76.7002 127<209.695 694.625> 366.2 156<1007 1126>
LayerCount: 2
Fore
SplineSet
366.200195312 1007 m 1
 366.200195312 1126 l 1
 522.200195312 1126 l 1
 522.200195312 1007 l 1
 366.200195312 1007 l 1
625.83984375 839 m 0
 598.83984375 839 548.200195312 840 493.599609375 840 c 0
 250.5 840 210.200195312 754 203.700195312 465 c 1
 203.700195312 414 l 2
 203.700195312 166 254.400390625 93 506.599609375 93 c 0
 691.83984375 93 717.83984375 94 718.83984375 97 c 2
 738.83984375 -1 l 2
 737.83984375 -8 708.83984375 -9 506.599609375 -9 c 0
 134.700195312 -9 76.7001953125 86 76.7001953125 411 c 2
 76.7001953125 465 l 1
 82.7001953125 833 130.700195312 941 485.799804688 941 c 0
 682.83984375 941 739.83984375 937 739.83984375 937 c 1
 717.83984375 844 l 2
 717.83984375 842 702.83984375 839 625.83984375 839 c 0
EndSplineSet
Validated: 1
EndChar

StartChar: cdotaccent
Encoding: 267 267 201
Width: 677
VWidth: 1024
Flags: W
HStem: -10 94<234.699 512.405> 618 90<211.717 505.547> 777 119<234.2 388.9>
VStem: 76.7002 99<155.213 574.486> 234.2 154.7<777 896> 528 91<102.884 139.68>
LayerCount: 2
Fore
SplineSet
234.200195312 777 m 1
 234.200195312 896 l 1
 388.900390625 896 l 1
 388.900390625 777 l 1
 234.200195312 777 l 1
528 155 m 1
 619 138 l 1
 597 22 592 -10 359 -10 c 0
 110.700195312 -10 90.7001953125 -7 78.7001953125 355 c 0
 77.7001953125 389 76.7001953125 421 76.7001953125 449 c 0
 76.7001953125 683 121.700195312 708 296.599609375 708 c 0
 316.099609375 708 336.900390625 707 359 707 c 0
 617 700 598 630 621 570 c 1
 531 549 l 1
 513.700195312 583 531 616 359 617 c 0
 336.900390625 617 317.400390625 618 299.200195312 618 c 0
 209.5 618 175.700195312 597 175.700195312 377 c 0
 175.700195312 107 225.099609375 84 359 84 c 0
 483.799804688 84 517.599609375 86 528 155 c 1
EndSplineSet
Validated: 1
EndChar

StartChar: Ccaron
Encoding: 268 268 202
Width: 771
VWidth: 1024
Flags: W
HStem: -9 102<316.176 700.309> 840 101<328.572 701.423>
VStem: 76.7002 127<209.695 694.625>
LayerCount: 2
Fore
SplineSet
697.599609375 97 m 2
 717.599609375 -1 l 2
 716.599609375 -8 687.599609375 -9 503.599609375 -9 c 0
 134.700195312 -9 76.7001953125 86 76.7001953125 411 c 2
 76.7001953125 465 l 1
 82.7001953125 833 130.700195312 941 485.799804688 941 c 2
 503.599609375 941 l 2
 689.599609375 938 718.599609375 938 718.599609375 937 c 2
 696.599609375 840 l 2
 696.599609375 839 690.599609375 838 662.599609375 838 c 0
 635.599609375 838 587.599609375 839 503.599609375 840 c 2
 493.599609375 840 l 2
 250.5 840 210.200195312 754 203.700195312 465 c 1
 203.700195312 414 l 2
 203.700195312 166 254.400390625 93 503.599609375 93 c 0
 670.599609375 93 696.599609375 94 697.599609375 97 c 2
470.200195312 1093 m 1
 557.599609375 1147 l 1
 647.599609375 1157 l 1
 530.599609375 1007 l 1
 448.099609375 997 l 1
 246.599609375 1157 l 1
 376.599609375 1157 l 1
 470.200195312 1093 l 1
EndSplineSet
Validated: 1
EndChar

StartChar: ccaron
Encoding: 269 269 203
Width: 677
VWidth: 1024
Flags: W
HStem: -10 94<234.699 512.405> 618 90<211.717 505.547>
VStem: 76.7002 99<155.213 574.486> 528 91<102.884 139.68>
LayerCount: 2
Fore
SplineSet
312.200195312 863 m 1
 405.799804688 927 l 1
 534 927 l 1
 383.700195312 777 l 1
 239.400390625 777 l 1
 107.700195312 927 l 1
 217.299804688 927 l 1
 312.200195312 863 l 1
528 155 m 1
 619 138 l 1
 597 22 592 -10 359 -10 c 0
 110.700195312 -10 90.7001953125 -7 78.7001953125 355 c 0
 77.7001953125 389 76.7001953125 421 76.7001953125 449 c 0
 76.7001953125 683 121.700195312 708 296.599609375 708 c 0
 316.099609375 708 336.900390625 707 359 707 c 0
 617 700 598 630 621 570 c 1
 531 549 l 1
 513.700195312 583 531 616 359 617 c 0
 336.900390625 617 317.400390625 618 299.200195312 618 c 0
 209.5 618 175.700195312 597 175.700195312 377 c 0
 175.700195312 107 225.099609375 84 359 84 c 0
 483.799804688 84 517.599609375 86 528 155 c 1
EndSplineSet
Validated: 1
EndChar

StartChar: Dcaron
Encoding: 270 270 204
Width: 901
VWidth: 1024
Flags: W
HStem: 0 96<208 631.154> 830 97<196 626.169>
VStem: 91 117<97 646.445> 96 100<280.555 830> 709.8 127<189.115 748.612>
LayerCount: 2
Fore
SplineSet
150 0 m 1xd8
 91 0 l 1
 91 5 l 1xe8
 96 927 l 1
 145 927 l 1
 194 927 l 1
 361.400390625 927 l 2
 784.799804688 927 836.799804688 908 836.799804688 589 c 0
 836.799804688 551 835.799804688 510 834.799804688 463 c 0
 825.799804688 10 817.799804688 0 400.400390625 0 c 2
 210.599609375 0 l 1
 206 0 l 1
 150 0 l 1xd8
382.200195312 1093 m 1
 475.799804688 1157 l 1
 605.799804688 1157 l 1
 453.700195312 1007 l 1
 310.700195312 1007 l 1
 169 1157 l 1
 287.299804688 1157 l 1
 382.200195312 1093 l 1
208 97 m 1
 283.400390625 97 312 96 388.700195312 96 c 0
 691.599609375 96 698.099609375 104 707.200195312 463 c 0
 708.5 504 709.799804688 540 709.799804688 573 c 0
 709.799804688 816 661.700195312 830 367.900390625 830 c 2
 196 830 l 1xd8
 208 97 l 1
EndSplineSet
Validated: 1
EndChar

StartChar: dcaron
Encoding: 271 271 205
Width: 841
VWidth: 1024
Flags: W
HStem: -15 95<244.644 481.177> 0 21G<525.9 634.9> 617 94<244.644 481.177> 791 150<684.9 764.9>
VStem: 76.7002 119<131.704 564.728> 525.9 109<5 31 130.648 566.215 665 927> 683.9 81<791 824.731>
LayerCount: 2
Fore
SplineSet
525.900390625 348 m 0xbe
 525.900390625 581 503.799804688 617 366 617 c 0
 219.099609375 617 195.700195312 581 195.700195312 348 c 0
 195.700195312 116 219.099609375 80 366 80 c 0
 503.799804688 80 525.900390625 116 525.900390625 348 c 0xbe
76.7001953125 348 m 0
 76.7001953125 662 105.700195312 711 315.299804688 711 c 0
 419.299804688 711 484.299804688 702 525.900390625 665 c 1
 525.900390625 918 l 1
 525.900390625 922 l 1
 525.900390625 927 l 1
 580.900390625 927 l 1
 634.900390625 927 l 1
 634.900390625 918 l 1
 634.900390625 10 l 1
 634.900390625 5 l 2
 635.900390625 5 635.900390625 5 634.900390625 3 c 0
 635.900390625 0 635.900390625 0 634.900390625 0 c 2
 580.900390625 0 l 1
 525.900390625 0 l 1x7e
 525.900390625 10 l 1
 525.900390625 31 l 1
 484.299804688 -6 419.299804688 -15 315.299804688 -15 c 0
 105.700195312 -15 76.7001953125 34 76.7001953125 348 c 0
684.900390625 941 m 1
 804.900390625 941 l 1
 764.900390625 791 l 1
 683.900390625 791 l 1
 684.900390625 941 l 1
EndSplineSet
Validated: 1
EndChar

StartChar: Dcroat
Encoding: 272 272 206
Width: 960
VWidth: 1024
Flags: W
HStem: 0 96<262.7 688.315> 423 81<63.7002 143.7 262.7 434.3> 830 97<262.7 666.278>
VStem: 143.7 119<97 423 504 830> 759.3 127<173.286 745.285>
LayerCount: 2
Fore
SplineSet
262.700195312 97 m 1
 339.400390625 97 362.799804688 96 440.799804688 96 c 0
 751.5 96 759.299804688 104 759.299804688 463 c 0
 759.299804688 812 742.400390625 830 420 830 c 2
 262.700195312 830 l 1
 262.700195312 504 l 1
 434.299804688 504 l 1
 434.299804688 423 l 1
 262.700195312 423 l 1
 262.700195312 97 l 1
63.7001953125 423 m 1
 63.7001953125 504 l 1
 143.700195312 504 l 1
 143.700195312 922 l 1
 143.700195312 927 l 1
 202.700195312 927 l 1
 262.700195312 927 l 1
 413.5 927 l 2
 867.299804688 927 886.299804688 905 886.299804688 463 c 0
 886.299804688 10 878.299804688 0 452.5 0 c 2
 262.700195312 0 l 1
 202.700195312 0 l 1
 143.700195312 0 l 1
 143.700195312 5 l 1
 143.700195312 423 l 1
 63.7001953125 423 l 1
EndSplineSet
Validated: 1
EndChar

StartChar: dcroat
Encoding: 273 273 207
Width: 788
VWidth: 1024
Flags: W
HStem: -15 95<244.644 481.177> 0 21G<525.9 634.9> 617 94<244.644 481.177> 779 80<315.3 525.9 634.9 744.9>
VStem: 76.7002 119<131.704 564.728> 525.9 109<5 31 130.648 566.215 665 779 859 927>
LayerCount: 2
Fore
SplineSet
525.900390625 348 m 0xbc
 525.900390625 581 503.799804688 617 366 617 c 0
 219.099609375 617 195.700195312 581 195.700195312 348 c 0
 195.700195312 116 219.099609375 80 366 80 c 0
 503.799804688 80 525.900390625 116 525.900390625 348 c 0xbc
315.299804688 779 m 1
 315.299804688 859 l 1
 525.900390625 859 l 1
 525.900390625 918 l 1
 525.900390625 922 l 1
 525.900390625 927 l 1
 580.900390625 927 l 1
 634.900390625 927 l 1
 634.900390625 918 l 1
 634.900390625 859 l 1
 744.900390625 859 l 1
 744.900390625 779 l 1
 634.900390625 779 l 1
 634.900390625 10 l 1
 634.900390625 5 l 2
 635.900390625 5 635.900390625 5 634.900390625 3 c 0
 635.900390625 0 635.900390625 0 634.900390625 0 c 2
 580.900390625 0 l 1
 525.900390625 0 l 1x7c
 525.900390625 10 l 1
 525.900390625 31 l 1
 484.299804688 -6 419.299804688 -15 315.299804688 -15 c 0
 105.700195312 -15 76.7001953125 34 76.7001953125 348 c 0
 76.7001953125 662 105.700195312 711 315.299804688 711 c 0
 419.299804688 711 484.299804688 702 525.900390625 665 c 1
 525.900390625 779 l 1
 315.299804688 779 l 1
EndSplineSet
Validated: 1
EndChar

StartChar: Emacron
Encoding: 274 274 208
Width: 718
VWidth: 1024
Flags: W
HStem: 0 101<212.6 657.94> 369 97<212.6 627.94> 826 101<212.6 647.94> 1007 76<191.6 549.94>
VStem: 93.5996 119<101 369 466 826>
LayerCount: 2
Fore
SplineSet
662.940429688 51 m 1
 662.940429688 0 l 1
 212.599609375 0 l 1
 211.599609375 0 l 1
 152.599609375 0 l 1
 93.599609375 0 l 1
 93.599609375 5 l 1
 93.599609375 922 l 1
 93.599609375 927 l 1
 152.599609375 927 l 1
 211.599609375 927 l 1
 212.599609375 927 l 1
 647.940429688 927 l 1
 647.940429688 876 l 1
 647.940429688 826 l 1
 642.940429688 826 l 1
 212.599609375 826 l 1
 212.599609375 466 l 1
 623.940429688 466 l 1
 627.940429688 466 l 1
 627.940429688 417 l 1
 627.940429688 369 l 1
 623.940429688 369 l 1
 212.599609375 369 l 1
 212.599609375 101 l 1
 657.940429688 101 l 2
 657.940429688 102 657.940429688 102 659.940429688 101 c 0
 662.940429688 102 662.940429688 102 662.940429688 101 c 2
 662.940429688 51 l 1
191.599609375 1007 m 1
 191.599609375 1083 l 1
 549.940429688 1083 l 1
 549.940429688 1007 l 1
 191.599609375 1007 l 1
EndSplineSet
Validated: 1
EndChar

StartChar: emacron
Encoding: 275 275 209
Width: 683
VWidth: 1024
Flags: W
HStem: -14 84<224.752 479.561> 303 98<180.7 397.608> 317 77<397.849 507> 622 93<211.236 464.838> 777 76<258.501 530.3> 777 64<167.7 439.499>
VStem: 76.7002 104<117.793 303 401 588.422> 508.3 94<394 579.58>
LayerCount: 2
Fore
SplineSet
507 394 m 1xb3
 507 411 508.299804688 427 508.299804688 441 c 0
 508.299804688 591 479.700195312 622 335.400390625 622 c 2
 315.900390625 622 l 2
 208 619 180.700195312 617 180.700195312 416 c 2
 180.700195312 401 l 1xd3
 507 394 l 1xb3
529.099609375 176 m 1
 630.099609375 150 l 1
 584.099609375 10 552.099609375 -14 366.599609375 -14 c 2
 353.599609375 -14 l 2
 114.700195312 -12 83.7001953125 -10 77.7001953125 359 c 0
 77.7001953125 383 76.7001953125 404 76.7001953125 426 c 0
 76.7001953125 706 118.700195312 709 353.599609375 714 c 0
 377 714 397.799804688 715 417.299804688 715 c 0
 576.299804688 715 602.299804688 689 602.299804688 524 c 0
 602.299804688 472 600.299804688 404 597.299804688 319 c 2
 597.299804688 321 l 1
 518.299804688 317 l 1xb3
 180.700195312 303 l 1
 187.200195312 72 213.200195312 71 353.599609375 70 c 2
 364 70 l 2
 468 70 491.400390625 86 529.099609375 176 c 1
164.700195312 777 m 1x97
 167.700195312 841 l 1x97
 530.299804688 853 l 1
 530.299804688 777 l 1x9b
 164.700195312 777 l 1x97
EndSplineSet
Validated: 1
EndChar

StartChar: Ebreve
Encoding: 276 276 210
Width: 718
VWidth: 1024
Flags: W
HStem: 4 105<212.6 657.94> 380 99<212.6 627.94> 853 96<212.6 647.94> 992 77<312.867 492.746>
VStem: 93.5996 119<109 387 471 853> 203.6 102.601<1078.81 1140> 498.6 83.3408<1078.81 1140>
LayerCount: 2
Fore
SplineSet
210.599609375 4 m 1xfa
 208.599609375 4 l 1
 93.599609375 4 l 1
 93.599609375 949 l 1
 211.599609375 949 l 1
 212.599609375 949 l 1
 647.940429688 949 l 1
 647.940429688 846 l 1
 479.099609375 846 402.400390625 852 212.599609375 853 c 1
 212.599609375 471 l 1
 623.940429688 479 l 1
 627.940429688 479 l 1
 627.940429688 429 l 1
 627.940429688 380 l 1
 623.940429688 380 l 1
 212.599609375 387 l 1
 212.599609375 109 l 1
 423.200195312 109 494.700195312 117 657.940429688 117 c 1
 657.940429688 118 657.940429688 118 659.940429688 117 c 0
 662.940429688 118 662.940429688 118 662.940429688 117 c 2
 662.940429688 61 l 1
 662.940429688 4 l 1
 210.599609375 4 l 1xfa
203.599609375 1140 m 1xf6
 306.200195312 1140 l 1
 306.200195312 1079 320.5 1069 402.400390625 1069 c 0
 484.299804688 1069 498.599609375 1079 498.599609375 1140 c 1
 581.940429688 1140 l 1
 581.940429688 1012 560.940429688 992 402.400390625 992 c 0
 228.200195312 992 203.599609375 1012 203.599609375 1140 c 1xf6
EndSplineSet
Validated: 1
EndChar

StartChar: ebreve
Encoding: 277 277 211
Width: 732
VWidth: 1024
Flags: W
HStem: -15 96<231.199 510.832> 292 81<195.7 555.8> 621 90<235.924 511.752> 762 77<280.559 459.385>
VStem: 76.7002 119<120.656 292 373 575.344> 174.7 99<848.811 910> 466.1 101.7<848.811 910> 528.5 115<102.666 167> 555.8 110<373 568.803>
LayerCount: 2
Fore
SplineSet
195.700195312 373 m 1xf880
 555.799804688 373 l 1
 554.5 586 542.799804688 621 369.900390625 621 c 0
 224.299804688 621 197 620 195.700195312 373 c 1xf880
528.5 177 m 1xf9
 643.5 167 l 1xf9
 643.5 10 610.5 -15 359.5 -15 c 0
 109.700195312 -15 76.7001953125 -13 76.7001953125 348 c 0
 76.7001953125 709 110.700195312 711 369.900390625 711 c 0
 656.799804688 711 665.799804688 662 665.799804688 364 c 2
 665.799804688 292 l 1xf880
 195.700195312 292 l 1
 199.599609375 82 228.200195312 81 359.5 81 c 0
 505.099609375 81 528.5 94 528.5 177 c 1xf9
174.700195312 910 m 1xf6
 273.700195312 910 l 1
 273.700195312 849 288 839 369.900390625 839 c 0
 451.799804688 839 466.099609375 849 466.099609375 910 c 1
 567.799804688 910 l 1
 567.799804688 782 544.099609375 762 369.900390625 762 c 0
 195.700195312 762 174.700195312 782 174.700195312 910 c 1xf6
EndSplineSet
Validated: 1
EndChar

StartChar: Edotaccent
Encoding: 278 278 212
Width: 718
VWidth: 1024
Flags: W
HStem: 0 101<212.6 657.94> 369 97<212.6 627.94> 826 101<212.6 647.94> 1007 119<297.1 451.8>
VStem: 93.5996 119<101 369 466 826> 297.1 154.7<1007 1126>
LayerCount: 2
Fore
SplineSet
662.940429688 51 m 1
 662.940429688 0 l 1
 212.599609375 0 l 1
 211.599609375 0 l 1
 152.599609375 0 l 1
 93.599609375 0 l 1
 93.599609375 5 l 1
 93.599609375 922 l 1
 93.599609375 927 l 1
 152.599609375 927 l 1
 211.599609375 927 l 1
 212.599609375 927 l 1
 647.940429688 927 l 1
 647.940429688 876 l 1
 647.940429688 826 l 1
 642.940429688 826 l 1
 212.599609375 826 l 1
 212.599609375 466 l 1
 623.940429688 466 l 1
 627.940429688 466 l 1
 627.940429688 417 l 1
 627.940429688 369 l 1
 623.940429688 369 l 1
 212.599609375 369 l 1
 212.599609375 101 l 1
 657.940429688 101 l 2
 657.940429688 102 657.940429688 102 659.940429688 101 c 0
 662.940429688 102 662.940429688 102 662.940429688 101 c 2
 662.940429688 51 l 1
297.099609375 1007 m 1
 297.099609375 1126 l 1
 451.799804688 1126 l 1
 451.799804688 1007 l 1
 297.099609375 1007 l 1
EndSplineSet
Validated: 1
EndChar

StartChar: edotaccent
Encoding: 279 279 213
Width: 683
VWidth: 1024
Flags: W
HStem: -14 84<224.752 479.561> 303 98<180.7 397.608> 317 77<397.849 507> 622 93<211.236 464.838> 777 119<278.2 432.9>
VStem: 76.7002 104<117.793 303 401 588.422> 278.2 154.7<777 896> 508.3 94<394 579.58>
LayerCount: 2
Fore
SplineSet
507 394 m 1xbf
 507 411 508.299804688 427 508.299804688 441 c 0
 508.299804688 591 479.700195312 622 335.400390625 622 c 2
 315.900390625 622 l 2
 208 619 180.700195312 617 180.700195312 416 c 2
 180.700195312 401 l 1xdf
 507 394 l 1xbf
529.099609375 176 m 1
 630.099609375 150 l 1
 584.099609375 10 552.099609375 -14 366.599609375 -14 c 2
 353.599609375 -14 l 2
 114.700195312 -12 83.7001953125 -10 77.7001953125 359 c 0
 77.7001953125 383 76.7001953125 404 76.7001953125 426 c 0
 76.7001953125 706 118.700195312 709 353.599609375 714 c 0
 377 714 397.799804688 715 417.299804688 715 c 0
 576.299804688 715 602.299804688 689 602.299804688 524 c 0
 602.299804688 472 600.299804688 404 597.299804688 319 c 2
 597.299804688 321 l 1
 518.299804688 317 l 1xbf
 180.700195312 303 l 1
 187.200195312 72 213.200195312 71 353.599609375 70 c 2
 364 70 l 2
 468 70 491.400390625 86 529.099609375 176 c 1
278.200195312 777 m 1
 278.200195312 896 l 1
 432.900390625 896 l 1
 432.900390625 777 l 1
 278.200195312 777 l 1
EndSplineSet
Validated: 1
EndChar

StartChar: Eogonek
Encoding: 280 280 214
Width: 718
VWidth: 1024
Flags: W
HStem: -214 70<337.524 518.894> 0 101<212.6 327 358.72 657.94> 369 97<212.6 627.94> 826 101<212.6 647.94>
VStem: 93.5996 119<101 369 466 826> 252.9 79.2998<-137.686 -36.5423>
LayerCount: 2
Fore
SplineSet
327 0 m 1
 212.599609375 0 l 1
 211.599609375 0 l 1
 152.599609375 0 l 1
 93.599609375 0 l 1
 93.599609375 5 l 1
 93.599609375 922 l 1
 93.599609375 927 l 1
 152.599609375 927 l 1
 211.599609375 927 l 1
 212.599609375 927 l 1
 647.940429688 927 l 1
 647.940429688 876 l 1
 647.940429688 826 l 1
 642.940429688 826 l 1
 212.599609375 826 l 1
 212.599609375 466 l 1
 623.940429688 466 l 1
 627.940429688 466 l 1
 627.940429688 417 l 1
 627.940429688 369 l 1
 623.940429688 369 l 1
 212.599609375 369 l 1
 212.599609375 101 l 1
 657.940429688 101 l 2
 657.940429688 102 657.940429688 102 659.940429688 101 c 0
 662.940429688 102 662.940429688 102 662.940429688 101 c 2
 662.940429688 51 l 1
 662.940429688 0 l 1
 402.400390625 0 l 1
 372.5 -14 332.200195312 -39 332.200195312 -84 c 0
 332.200195312 -136 345.200195312 -144 431 -144 c 0
 494.700195312 -144 506.400390625 -142 515.940429688 -132 c 1
 526.940429688 -195 l 1
 512.940429688 -211 499.900390625 -214 423.200195312 -214 c 0
 276.299804688 -214 252.900390625 -198 252.900390625 -95 c 0
 252.900390625 -58 285.400390625 -26 327 0 c 1
EndSplineSet
Validated: 1
EndChar

StartChar: eogonek
Encoding: 281 281 215
Width: 734
VWidth: 1024
Flags: W
HStem: -214 70<474.625 631.811> -15 96<233.873 454.4> 292 81<197 557.1> 621 90<237.223 513.052>
VStem: 78 119<120.656 292 373 575.344> 392 79.2998<-138.96 -42.713> 529.8 115<102.309 167> 557.1 110<373 568.803>
LayerCount: 2
Fore
SplineSet
197 373 m 1xfd
 557.099609375 373 l 1
 555.799804688 586 544.099609375 621 371.200195312 621 c 0
 225.599609375 621 198.299804688 620 197 373 c 1xfd
539.799804688 -7 m 1
 511.599609375 -20 471.299804688 -45 471.299804688 -88 c 0
 471.299804688 -136 484.299804688 -144 561.799804688 -144 c 0
 609.799804688 -144 619.799804688 -142 628.799804688 -132 c 1
 639.799804688 -195 l 1
 625.799804688 -211 614.799804688 -214 554.799804688 -214 c 0
 415.400390625 -214 392 -198 392 -98 c 0
 392 -66 419.299804688 -38 454.400390625 -14 c 1
 425.799804688 -15 395.900390625 -15 360.799804688 -15 c 0
 111 -15 78 -13 78 348 c 0
 78 709 112 711 371.200195312 711 c 0
 658.099609375 711 667.099609375 662 667.099609375 364 c 2
 667.099609375 292 l 1xfd
 197 292 l 1
 200.900390625 82 229.5 81 360.799804688 81 c 0
 506.400390625 81 529.799804688 94 529.799804688 177 c 1
 644.799804688 167 l 1xfe
 644.799804688 54 627.799804688 10 539.799804688 -7 c 1
EndSplineSet
Validated: 1
EndChar

